{"glyphs":{"0":{"ha":769,"x_min":38,"x_max":729,"o":"m 481 944 q 672 862 614 944 q 729 621 729 779 q 683 318 729 467 q 536 71 636 169 q 286 -28 436 -28 q 95 55 153 -28 q 38 296 38 138 q 84 599 38 450 q 231 846 131 747 q 481 944 331 944 m 447 839 q 329 771 372 839 q 251 554 286 703 q 213 250 213 388 q 234 123 213 168 q 319 78 256 78 q 438 146 394 78 q 515 363 481 214 q 556 667 556 536 q 533 794 556 749 q 447 839 511 839 z "},"1":{"ha":769,"x_min":-11,"x_max":690,"o":"m 669 143 q 690 83 690 117 q 572 -4 690 -4 l 97 0 q 1 -17 22 0 q -11 36 -11 6 q 17 101 -11 76 q 101 125 44 125 l 278 125 l 397 742 q 295 701 353 718 q 194 685 238 685 q 124 715 149 685 q 94 794 100 746 q 558 939 290 828 l 597 917 l 443 121 l 599 121 q 669 143 651 121 z "},"2":{"ha":769,"x_min":14,"x_max":697,"o":"m 329 390 q 481 547 431 478 q 531 686 531 615 q 490 781 531 746 q 371 817 450 817 q 233 779 290 817 q 131 675 175 742 q 98 705 108 688 q 88 750 88 722 q 135 853 88 808 q 258 922 182 897 q 417 946 333 946 q 622 885 546 946 q 697 704 697 824 q 649 532 697 607 q 514 382 601 457 l 421 311 q 319 233 392 289 q 218 150 246 176 q 489 125 368 125 q 576 132 542 125 q 639 156 611 139 q 657 86 657 124 q 504 -17 657 -17 q 317 3 442 -17 q 146 21 206 21 q 49 4 89 21 q 24 38 33 17 q 14 81 14 60 q 64 172 14 126 l 329 390 z "},"3":{"ha":769,"x_min":4,"x_max":704,"o":"m 253 507 q 384 537 319 513 q 492 606 449 561 q 535 711 535 650 q 491 791 535 765 q 368 817 447 817 q 154 704 242 817 q 111 775 111 726 q 154 867 111 829 q 267 926 197 906 q 411 946 336 946 q 624 897 544 946 q 704 744 704 849 q 640 579 704 646 q 475 488 575 513 q 628 417 576 465 q 681 283 681 369 q 625 123 681 193 q 476 13 569 53 q 272 -26 382 -26 q 83 21 163 -26 q 4 150 4 68 q 15 197 4 179 q 49 226 25 214 q 279 107 131 107 q 444 145 383 107 q 506 261 506 183 q 435 386 506 353 q 239 419 364 419 l 253 507 z "},"4":{"ha":769,"x_min":-21,"x_max":732,"o":"m 692 917 q 647 696 675 838 q 603 469 619 554 l 575 322 l 640 322 q 710 344 693 322 q 732 286 732 318 q 704 221 732 244 q 624 197 676 197 l 551 197 l 513 0 l 351 0 l 389 200 l -8 200 q -21 251 -21 222 q -12 285 -21 271 q 7 314 -4 300 q 24 333 18 328 l 528 917 l 692 917 m 435 433 q 489 713 463 567 l 154 326 l 414 326 l 435 433 z "},"5":{"ha":769,"x_min":1,"x_max":731,"o":"m 625 917 q 673 921 654 917 q 706 939 692 925 q 731 874 731 913 q 697 800 731 824 q 604 776 663 776 l 281 776 l 233 557 q 332 560 289 560 q 690 318 690 560 q 636 142 690 221 q 487 19 582 64 q 274 -26 392 -26 q 81 21 161 -26 q 1 150 1 68 q 12 197 1 179 q 46 226 22 214 q 147 137 88 167 q 281 107 207 107 q 453 153 392 107 q 515 283 515 199 q 452 410 515 372 q 269 447 389 447 q 169 443 226 447 q 82 435 113 439 l 194 917 l 625 917 z "},"6":{"ha":769,"x_min":44,"x_max":693,"o":"m 508 946 q 638 918 582 946 q 693 829 693 890 q 656 758 693 781 q 510 818 596 818 q 332 731 400 818 q 238 513 264 644 q 332 595 272 567 q 460 624 392 624 q 621 556 567 624 q 675 365 675 488 q 632 166 675 256 q 508 24 589 76 q 314 -28 426 -28 q 44 294 44 -28 q 101 599 44 447 q 263 848 157 750 q 508 946 368 946 m 397 521 q 297 477 336 521 q 238 367 257 433 q 219 232 219 301 q 325 78 219 78 q 426 123 386 78 q 485 235 467 168 q 504 371 504 303 q 481 480 504 439 q 397 521 457 521 z "},"7":{"ha":769,"x_min":88,"x_max":788,"o":"m 788 838 q 610 590 696 717 q 410 230 456 361 q 365 29 365 99 q 367 -6 365 7 q 313 -22 343 -15 q 258 -28 282 -28 q 182 -2 210 -28 q 154 68 154 24 q 221 240 154 138 l 574 776 l 214 776 q 122 800 156 776 q 88 874 88 824 q 113 939 88 913 q 146 921 126 925 q 194 917 165 917 l 788 917 l 788 838 z "},"8":{"ha":769,"x_min":39,"x_max":715,"o":"m 486 944 q 652 898 589 944 q 715 763 715 851 q 518 490 715 613 q 591 425 564 453 q 635 359 618 397 q 653 268 653 321 q 607 116 653 183 q 483 11 561 49 q 313 -26 406 -26 q 117 33 194 -26 q 39 201 39 93 q 100 370 39 296 q 261 492 161 444 q 184 578 211 533 q 157 685 157 624 q 204 824 157 765 q 327 914 251 883 q 486 944 403 944 m 444 547 q 526 632 492 574 q 561 744 561 690 q 534 815 561 790 q 458 839 507 839 q 367 808 404 839 q 329 725 329 778 q 356 638 329 679 q 424 565 383 597 l 444 547 m 331 436 q 228 347 264 404 q 193 224 193 289 q 230 117 193 156 q 331 79 267 79 q 438 121 397 79 q 479 226 479 163 q 451 320 479 279 q 372 401 424 361 l 331 436 z "},"9":{"ha":769,"x_min":65,"x_max":714,"o":"m 443 946 q 714 624 714 946 q 658 319 714 471 q 495 70 601 168 q 249 -28 389 -28 q 120 0 175 -28 q 65 89 65 28 q 103 160 65 138 q 249 100 163 100 q 426 187 358 100 q 521 406 494 274 q 428 324 488 353 q 299 294 369 294 q 138 363 192 294 q 83 553 83 431 q 126 752 83 663 q 249 894 168 842 q 443 946 331 946 m 432 840 q 331 795 371 840 q 272 683 290 750 q 254 547 254 615 q 277 438 254 479 q 360 397 300 397 q 460 441 421 397 q 519 551 500 485 q 538 686 538 617 q 515 799 538 757 q 432 840 492 840 z "},"\u0000":{"ha":0,"x_min":0,"x_max":0,"o":""},"\r":{"ha":225,"x_min":0,"x_max":0,"o":""}," ":{"ha":225,"x_min":0,"x_max":0,"o":""},"A":{"ha":744,"x_min":-37,"x_max":697,"o":"m 643 171 q 697 42 651 71 q 662 -9 689 10 q 599 -28 635 -28 q 522 15 544 -28 q 489 129 499 57 q 478 233 481 192 l 218 233 l 163 97 l 122 0 l -37 0 l 376 917 l 579 917 l 643 171 m 331 518 l 257 332 l 469 332 l 443 803 l 331 518 z "},"Á":{"ha":744,"x_min":-37,"x_max":724,"o":"m 0 0 m 643 171 q 697 42 651 71 q 662 -9 689 10 q 599 -28 635 -28 q 522 15 544 -28 q 489 129 499 57 q 478 233 481 192 l 218 233 l 163 97 l 122 0 l -37 0 l 376 917 l 579 917 l 643 171 m 331 518 l 257 332 l 469 332 l 443 803 l 331 518 m 368 1050 l 693 1174 q 724 1111 724 1153 q 672 1026 724 1049 q 539 999 621 1003 l 379 990 l 368 1050 z "},"Ă":{"ha":744,"x_min":-37,"x_max":726,"o":"m 0 0 m 643 171 q 697 42 651 71 q 662 -9 689 10 q 599 -28 635 -28 q 522 15 544 -28 q 489 129 499 57 q 478 233 481 192 l 218 233 l 163 97 l 122 0 l -37 0 l 376 917 l 579 917 l 643 171 m 331 518 l 257 332 l 469 332 l 443 803 l 331 518 m 431 1156 q 425 1115 425 1129 q 443 1060 425 1081 q 494 1039 461 1039 q 573 1076 539 1039 q 615 1156 607 1113 l 726 1156 q 645 1021 711 1071 q 481 971 579 971 q 350 1009 394 971 q 306 1117 306 1047 q 310 1156 306 1135 l 431 1156 z "},"Â":{"ha":744,"x_min":-37,"x_max":697,"o":"m 0 0 m 643 171 q 697 42 651 71 q 662 -9 689 10 q 599 -28 635 -28 q 522 15 544 -28 q 489 129 499 57 q 478 233 481 192 l 218 233 l 163 97 l 122 0 l -37 0 l 376 917 l 579 917 l 643 171 m 331 518 l 257 332 l 469 332 l 443 803 l 331 518 m 676 1003 l 621 936 l 475 1036 l 294 936 l 257 1004 l 483 1165 l 493 1165 l 676 1003 z "},"Ä":{"ha":744,"x_min":-37,"x_max":736,"o":"m 0 0 m 643 171 q 697 42 651 71 q 662 -9 689 10 q 599 -28 635 -28 q 522 15 544 -28 q 489 129 499 57 q 478 233 481 192 l 218 233 l 163 97 l 122 0 l -37 0 l 376 917 l 579 917 l 643 171 m 331 518 l 257 332 l 469 332 l 443 803 l 331 518 m 343 1185 q 417 1163 389 1185 q 446 1099 446 1140 q 415 1033 446 1056 q 339 1010 385 1010 q 265 1032 293 1010 q 238 1096 238 1054 q 267 1162 238 1139 q 343 1185 297 1185 m 633 1185 q 708 1163 679 1185 q 736 1099 736 1140 q 706 1033 736 1056 q 629 1010 675 1010 q 556 1032 583 1010 q 528 1096 528 1054 q 558 1162 528 1139 q 633 1185 588 1185 z "},"À":{"ha":744,"x_min":-37,"x_max":697,"o":"m 0 0 m 643 171 q 697 42 651 71 q 662 -9 689 10 q 599 -28 635 -28 q 522 15 544 -28 q 489 129 499 57 q 478 233 481 192 l 218 233 l 163 97 l 122 0 l -37 0 l 376 917 l 579 917 l 643 171 m 331 518 l 257 332 l 469 332 l 443 803 l 331 518 m 589 990 l 429 999 q 296 1026 347 1003 q 244 1111 244 1049 q 275 1174 244 1153 l 600 1050 l 589 990 z "},"Ā":{"ha":744,"x_min":-37,"x_max":697,"o":"m 675 1133 q 679 1100 679 1119 q 655 1042 679 1064 q 585 1019 631 1019 l 292 1019 q 289 1053 289 1031 q 313 1112 290 1090 q 374 1133 336 1133 l 675 1133 m 643 171 q 697 42 651 71 q 662 -9 689 10 q 599 -28 635 -28 q 522 15 544 -28 q 489 129 499 57 q 478 233 481 192 l 218 233 l 163 97 l 122 0 l -37 0 l 376 917 l 579 917 l 643 171 m 331 518 l 257 332 l 469 332 l 443 803 l 331 518 z "},"Ą":{"ha":744,"x_min":-37,"x_max":738,"o":"m 715 -237 q 738 -278 738 -254 q 704 -335 738 -311 q 619 -358 671 -358 q 503 -319 546 -358 q 460 -208 460 -279 q 488 -104 460 -153 q 560 -21 515 -56 q 512 33 526 -6 q 489 129 497 71 q 478 233 481 192 l 218 233 l 163 97 l 122 0 l -37 0 l 376 917 l 579 917 l 643 171 q 697 42 651 71 q 690 24 696 33 l 694 24 l 694 14 l 674 1 q 656 -14 663 -10 q 586 -96 611 -49 q 561 -190 561 -143 q 580 -253 561 -233 q 643 -272 599 -272 q 684 -264 664 -272 q 715 -237 704 -256 m 469 332 l 443 803 l 331 518 l 257 332 l 469 332 z "},"Å":{"ha":744,"x_min":-37,"x_max":697,"o":"m 0 0 m 643 171 q 697 42 651 71 q 662 -9 689 10 q 599 -28 635 -28 q 522 15 544 -28 q 489 129 499 57 q 478 233 481 192 l 218 233 l 163 97 l 122 0 l -37 0 l 376 917 l 579 917 l 643 171 m 331 518 l 257 332 l 469 332 l 443 803 l 331 518 m 635 1093 q 585 996 635 1033 q 471 958 535 958 q 382 983 414 958 q 350 1053 350 1007 q 399 1151 350 1114 q 511 1188 447 1188 q 601 1163 568 1188 q 635 1093 635 1138 m 551 1089 q 538 1126 551 1113 q 497 1139 524 1139 q 451 1113 471 1139 q 431 1051 431 1088 q 479 1003 431 1003 q 528 1028 506 1003 q 551 1089 551 1054 z "},"Ǻ":{"ha":744,"x_min":-37,"x_max":765,"o":"m 735 1289 q 765 1226 765 1268 q 714 1141 765 1164 q 581 1114 663 1118 l 421 1106 l 410 1165 l 735 1289 m 643 171 q 697 42 651 71 q 662 -9 689 10 q 599 -28 635 -28 q 522 15 544 -28 q 489 129 499 57 q 478 233 481 192 l 218 233 l 163 97 l 122 0 l -37 0 l 374 911 q 356 967 356 933 q 404 1065 356 1028 q 517 1101 453 1101 q 607 1076 574 1101 q 640 1007 640 1051 q 624 947 640 974 q 581 903 608 921 l 643 171 m 503 1053 q 456 1027 476 1053 q 436 965 436 1001 q 485 917 436 917 q 534 942 511 917 q 557 1003 557 968 q 543 1040 557 1026 q 503 1053 529 1053 m 469 332 l 443 803 l 331 518 l 257 332 l 469 332 z "},"Ã":{"ha":744,"x_min":-37,"x_max":715,"o":"m 0 0 m 643 171 q 697 42 651 71 q 662 -9 689 10 q 599 -28 635 -28 q 522 15 544 -28 q 489 129 499 57 q 478 233 481 192 l 218 233 l 163 97 l 122 0 l -37 0 l 376 917 l 579 917 l 643 171 m 331 518 l 257 332 l 469 332 l 443 803 l 331 518 m 693 1147 q 715 1090 715 1121 q 686 1028 715 1050 q 608 1007 657 1007 q 492 1018 581 1007 q 378 1029 406 1029 q 300 1008 326 1029 q 276 1072 276 1043 q 306 1128 276 1108 q 388 1147 335 1147 q 508 1136 419 1147 q 624 1125 594 1125 q 693 1147 676 1125 z "},"Æ":{"ha":929,"x_min":-99,"x_max":940,"o":"m 63 0 l -99 0 l 399 917 l 940 917 q 899 818 940 851 q 790 785 858 785 q 695 796 749 785 q 603 822 642 807 l 576 524 l 833 524 q 797 437 833 464 q 699 410 761 410 q 630 417 665 410 q 568 436 594 425 q 551 222 551 264 q 587 122 551 151 q 693 93 622 93 q 810 113 757 93 q 818 72 818 96 q 760 -4 818 19 q 628 -28 701 -28 q 458 24 521 -28 q 396 175 396 76 q 400 246 396 213 l 186 246 l 63 0 m 415 353 q 440 583 424 440 l 464 790 l 240 353 l 415 353 z "},"Ǽ":{"ha":929,"x_min":-99,"x_max":940,"o":"m 0 0 m 63 0 l -99 0 l 399 917 l 940 917 q 899 818 940 851 q 790 785 858 785 q 695 796 749 785 q 603 822 642 807 l 576 524 l 833 524 q 797 437 833 464 q 699 410 761 410 q 630 417 665 410 q 568 436 594 425 q 551 222 551 264 q 587 122 551 151 q 693 93 622 93 q 810 113 757 93 q 818 72 818 96 q 760 -4 818 19 q 628 -28 701 -28 q 458 24 521 -28 q 396 175 396 76 q 400 246 396 213 l 186 246 l 63 0 m 415 353 q 440 583 424 440 l 464 790 l 240 353 l 415 353 m 446 1050 l 771 1174 q 801 1111 801 1153 q 750 1026 801 1049 q 617 999 699 1003 l 457 990 l 446 1050 z "},"B":{"ha":758,"x_min":32,"x_max":722,"o":"m 207 917 q 442 929 338 929 q 648 891 574 929 q 722 742 722 853 q 569 513 722 589 q 711 315 711 469 q 651 137 711 211 q 490 25 592 63 q 267 -12 389 -12 q 32 0 175 -12 l 207 917 m 299 539 q 363 535 328 535 q 499 584 450 535 q 549 721 549 633 q 521 810 549 782 q 432 838 493 838 q 356 828 397 838 l 299 539 m 211 93 q 306 83 254 83 q 474 140 411 83 q 536 292 536 196 q 504 392 536 360 q 422 432 472 424 q 279 440 371 440 l 211 93 z "},"C":{"ha":711,"x_min":38,"x_max":742,"o":"m 513 944 q 679 897 617 944 q 742 761 742 849 q 707 660 742 696 q 619 624 672 624 q 580 629 599 624 q 551 646 561 635 q 565 698 560 668 q 571 749 571 728 q 547 819 571 793 q 476 846 522 846 q 331 758 390 846 q 242 548 271 671 q 213 321 213 425 q 247 165 213 222 q 364 107 281 107 q 488 149 436 107 q 579 267 539 192 q 613 237 603 254 q 624 190 624 219 q 580 78 624 128 q 465 0 536 28 q 317 -28 394 -28 q 109 58 181 -28 q 38 311 38 144 q 92 606 38 460 q 253 849 146 753 q 513 944 361 944 z "},"Ć":{"ha":711,"x_min":38,"x_max":760,"o":"m 38 0 m 513 944 q 679 897 617 944 q 742 761 742 849 q 707 660 742 696 q 619 624 672 624 q 580 629 599 624 q 551 646 561 635 q 565 698 560 668 q 571 749 571 728 q 547 819 571 793 q 476 846 522 846 q 331 758 390 846 q 242 548 271 671 q 213 321 213 425 q 247 165 213 222 q 364 107 281 107 q 488 149 436 107 q 579 267 539 192 q 613 237 603 254 q 624 190 624 219 q 580 78 624 128 q 465 0 536 28 q 317 -28 394 -28 q 109 58 181 -28 q 38 311 38 144 q 92 606 38 460 q 253 849 146 753 q 513 944 361 944 m 404 1050 l 729 1174 q 760 1111 760 1153 q 708 1026 760 1049 q 575 999 657 1003 l 415 990 l 404 1050 z "},"Č":{"ha":711,"x_min":38,"x_max":749,"o":"m 38 0 m 513 944 q 679 897 617 944 q 742 761 742 849 q 707 660 742 696 q 619 624 672 624 q 580 629 599 624 q 551 646 561 635 q 565 698 560 668 q 571 749 571 728 q 547 819 571 793 q 476 846 522 846 q 331 758 390 846 q 242 548 271 671 q 213 321 213 425 q 247 165 213 222 q 364 107 281 107 q 488 149 436 107 q 579 267 539 192 q 613 237 603 254 q 624 190 624 219 q 580 78 624 128 q 465 0 536 28 q 317 -28 394 -28 q 109 58 181 -28 q 38 311 38 144 q 92 606 38 460 q 253 849 146 753 q 513 944 361 944 m 331 1110 l 386 1163 l 531 1090 l 711 1163 l 749 1108 l 522 961 l 514 961 l 331 1110 z "},"Ç":{"ha":711,"x_min":38,"x_max":742,"o":"m 619 624 q 580 629 599 624 q 551 646 561 635 q 565 698 560 668 q 571 749 571 728 q 547 819 571 793 q 476 846 522 846 q 331 758 390 846 q 242 548 271 671 q 213 321 213 425 q 247 165 213 222 q 364 107 281 107 q 488 149 436 107 q 579 267 539 192 q 613 237 603 254 q 624 190 624 219 q 549 48 624 107 q 368 -25 475 -11 l 349 -92 q 404 -89 376 -89 q 503 -115 465 -89 q 540 -194 540 -140 q 481 -307 540 -262 q 332 -351 421 -351 q 245 -334 278 -351 q 213 -285 213 -317 q 235 -239 213 -256 q 322 -278 258 -278 q 394 -262 364 -278 q 425 -211 425 -247 q 315 -154 425 -154 q 264 -157 300 -154 l 303 -28 q 106 63 174 -22 q 38 311 38 149 q 92 606 38 460 q 253 849 146 753 q 513 944 361 944 q 679 897 617 944 q 742 761 742 849 q 707 660 742 696 q 619 624 672 624 z "},"Ĉ":{"ha":711,"x_min":38,"x_max":742,"o":"m 38 0 m 513 944 q 679 897 617 944 q 742 761 742 849 q 707 660 742 696 q 619 624 672 624 q 580 629 599 624 q 551 646 561 635 q 565 698 560 668 q 571 749 571 728 q 547 819 571 793 q 476 846 522 846 q 331 758 390 846 q 242 548 271 671 q 213 321 213 425 q 247 165 213 222 q 364 107 281 107 q 488 149 436 107 q 579 267 539 192 q 613 237 603 254 q 624 190 624 219 q 580 78 624 128 q 465 0 536 28 q 317 -28 394 -28 q 109 58 181 -28 q 38 311 38 144 q 92 606 38 460 q 253 849 146 753 q 513 944 361 944 m 713 1003 l 657 936 l 511 1036 l 331 936 l 293 1004 l 519 1165 l 529 1165 l 713 1003 z "},"Ċ":{"ha":711,"x_min":38,"x_max":742,"o":"m 519 1185 q 594 1163 565 1185 q 622 1099 622 1140 q 592 1033 622 1056 q 515 1010 561 1010 q 442 1032 469 1010 q 414 1096 414 1054 q 444 1162 414 1139 q 519 1185 474 1185 m 513 944 q 679 897 617 944 q 742 761 742 849 q 707 660 742 696 q 619 624 672 624 q 580 629 599 624 q 551 646 561 635 q 565 698 560 668 q 571 749 571 728 q 547 819 571 793 q 476 846 522 846 q 331 758 390 846 q 242 548 271 671 q 213 321 213 425 q 247 165 213 222 q 364 107 281 107 q 488 149 436 107 q 579 267 539 192 q 613 237 603 254 q 624 190 624 219 q 580 78 624 128 q 465 0 536 28 q 317 -28 394 -28 q 109 58 181 -28 q 38 311 38 144 q 92 606 38 460 q 253 849 146 753 q 513 944 361 944 z "},"D":{"ha":831,"x_min":29,"x_max":792,"o":"m 207 917 q 347 925 268 921 q 469 929 425 929 q 660 894 590 929 q 761 789 731 860 q 792 606 792 718 q 736 301 792 442 q 565 74 681 161 q 279 -12 450 -12 q 164 -9 232 -12 q 29 0 96 -6 l 207 917 m 210 93 q 265 86 233 89 q 322 83 297 83 q 485 158 425 83 q 576 363 544 233 q 604 504 592 425 q 617 643 617 583 q 578 785 617 739 q 451 832 540 832 q 353 822 408 832 l 210 93 z "},"Ǳ":{"ha":1454,"x_min":29,"x_max":1511,"o":"m 29 0 m 207 917 q 347 925 268 921 q 469 929 425 929 q 660 894 590 929 q 761 789 731 860 q 792 606 792 718 q 736 301 792 442 q 565 74 681 161 q 279 -12 450 -12 q 164 -9 232 -12 q 29 0 96 -6 l 207 917 m 210 93 q 265 86 233 89 q 322 83 297 83 q 485 158 425 83 q 576 363 544 233 q 604 504 592 425 q 617 643 617 583 q 578 785 617 739 q 451 832 540 832 q 353 822 408 832 l 210 93 m 1310 771 q 1082 796 1182 796 q 994 789 1029 796 q 932 765 960 782 q 914 836 914 797 q 1067 938 914 938 q 1231 918 1125 938 q 1378 900 1324 900 q 1476 917 1436 900 q 1501 882 1492 904 q 1511 839 1511 860 q 1492 783 1511 806 l 989 146 q 1228 121 1114 121 q 1315 128 1281 121 q 1378 151 1350 135 q 1396 82 1396 119 q 1354 2 1396 25 q 1242 -21 1313 -21 q 1071 -1 1185 -21 q 917 17 971 17 q 819 0 860 17 q 794 35 804 13 q 785 79 785 57 q 808 140 785 114 l 1310 771 z "},"Ǆ":{"ha":1454,"x_min":29,"x_max":1511,"o":"m 29 0 m 207 917 q 347 925 268 921 q 469 929 425 929 q 660 894 590 929 q 761 789 731 860 q 792 606 792 718 q 736 301 792 442 q 565 74 681 161 q 279 -12 450 -12 q 164 -9 232 -12 q 29 0 96 -6 l 207 917 m 210 93 q 265 86 233 89 q 322 83 297 83 q 485 158 425 83 q 576 363 544 233 q 604 504 592 425 q 617 643 617 583 q 578 785 617 739 q 451 832 540 832 q 353 822 408 832 l 210 93 m 1310 771 q 1082 796 1182 796 q 994 789 1029 796 q 932 765 960 782 q 914 836 914 797 q 1067 938 914 938 q 1231 918 1125 938 q 1378 900 1324 900 q 1476 917 1436 900 q 1501 882 1492 904 q 1511 839 1511 860 q 1492 783 1511 806 l 989 146 q 1228 121 1114 121 q 1315 128 1281 121 q 1378 151 1350 135 q 1396 82 1396 119 q 1354 2 1396 25 q 1242 -21 1313 -21 q 1071 -1 1185 -21 q 917 17 971 17 q 819 0 860 17 q 794 35 804 13 q 785 79 785 57 q 808 140 785 114 l 1310 771 m 1039 1110 l 1094 1163 l 1239 1090 l 1419 1163 l 1457 1108 l 1231 961 l 1222 961 l 1039 1110 z "},"Ð":{"ha":831,"x_min":4,"x_max":792,"o":"m 4 0 m 207 917 q 347 925 268 921 q 469 929 425 929 q 660 894 590 929 q 761 789 731 860 q 792 606 792 718 q 736 301 792 442 q 565 74 681 161 q 279 -12 450 -12 q 164 -9 232 -12 q 29 0 96 -6 l 108 410 l 7 410 q 4 443 4 421 q 82 510 7 510 l 128 510 l 207 917 m 210 93 q 265 86 233 89 q 322 83 297 83 q 485 158 425 83 q 576 363 544 233 q 604 504 592 425 q 617 643 617 583 q 578 785 617 739 q 451 832 540 832 q 353 822 408 832 l 292 510 l 501 510 q 506 476 506 496 q 418 410 506 410 l 272 410 l 210 93 z "},"Ď":{"ha":831,"x_min":29,"x_max":792,"o":"m 29 0 m 207 917 q 347 925 268 921 q 469 929 425 929 q 660 894 590 929 q 761 789 731 860 q 792 606 792 718 q 736 301 792 442 q 565 74 681 161 q 279 -12 450 -12 q 164 -9 232 -12 q 29 0 96 -6 l 207 917 m 210 93 q 265 86 233 89 q 322 83 297 83 q 485 158 425 83 q 576 363 544 233 q 604 504 592 425 q 617 643 617 583 q 578 785 617 739 q 451 832 540 832 q 353 822 408 832 l 210 93 m 317 1110 l 372 1163 l 517 1090 l 697 1163 l 735 1108 l 508 961 l 500 961 l 317 1110 z "},"Đ":{"ha":831,"x_min":4,"x_max":792,"o":"m 207 917 q 347 925 268 921 q 469 929 425 929 q 660 894 590 929 q 761 789 731 860 q 792 606 792 718 q 736 301 792 442 q 565 74 681 161 q 279 -12 450 -12 q 164 -9 232 -12 q 29 0 96 -6 l 108 410 l 7 410 q 4 443 4 421 q 82 510 7 510 l 128 510 l 207 917 m 210 93 q 265 86 233 89 q 322 83 297 83 q 485 158 425 83 q 576 363 544 233 q 604 504 592 425 q 617 643 617 583 q 578 785 617 739 q 451 832 540 832 q 353 822 408 832 l 292 510 l 501 510 q 506 476 506 496 q 418 410 506 410 l 272 410 l 210 93 z "},"Ḍ":{"ha":831,"x_min":29,"x_max":792,"o":"m 29 0 m 207 917 q 347 925 268 921 q 469 929 425 929 q 660 894 590 929 q 761 789 731 860 q 792 606 792 718 q 736 301 792 442 q 565 74 681 161 q 279 -12 450 -12 q 164 -9 232 -12 q 29 0 96 -6 l 207 917 m 210 93 q 265 86 233 89 q 322 83 297 83 q 485 158 425 83 q 576 363 544 233 q 604 504 592 425 q 617 643 617 583 q 578 785 617 739 q 451 832 540 832 q 353 822 408 832 l 210 93 m 281 -75 q 354 -97 326 -75 q 382 -161 382 -119 q 352 -227 382 -204 q 276 -250 322 -250 q 203 -228 231 -250 q 175 -164 175 -206 q 205 -98 175 -121 q 281 -75 235 -75 z "},"ǲ":{"ha":1381,"x_min":29,"x_max":1404,"o":"m 29 0 m 207 917 q 347 925 268 921 q 469 929 425 929 q 660 894 590 929 q 761 789 731 860 q 792 606 792 718 q 736 301 792 442 q 565 74 681 161 q 279 -12 450 -12 q 164 -9 232 -12 q 29 0 96 -6 l 207 917 m 210 93 q 265 86 233 89 q 322 83 297 83 q 485 158 425 83 q 576 363 544 233 q 604 504 592 425 q 617 643 617 583 q 578 785 617 739 q 451 832 540 832 q 353 822 408 832 l 210 93 m 1235 581 q 1131 595 1193 589 q 1033 601 1069 601 q 973 593 999 601 q 926 564 947 585 q 901 640 901 596 q 939 713 901 690 q 1038 735 976 735 q 1117 728 1074 735 q 1169 719 1161 721 q 1304 703 1261 703 q 1379 717 1353 703 q 1404 656 1404 692 q 1363 557 1404 604 l 983 133 q 1090 118 1024 125 q 1196 111 1157 111 q 1310 149 1274 111 q 1335 74 1335 117 q 1295 0 1335 22 q 1193 -22 1256 -22 q 1054 -6 1146 -22 q 925 11 965 11 q 849 -4 876 11 q 825 27 835 4 q 815 75 815 50 q 867 190 815 133 l 1235 581 z "},"ǅ":{"ha":1381,"x_min":29,"x_max":1422,"o":"m 29 0 m 207 917 q 347 925 268 921 q 469 929 425 929 q 660 894 590 929 q 761 789 731 860 q 792 606 792 718 q 736 301 792 442 q 565 74 681 161 q 279 -12 450 -12 q 164 -9 232 -12 q 29 0 96 -6 l 207 917 m 210 93 q 265 86 233 89 q 322 83 297 83 q 485 158 425 83 q 576 363 544 233 q 604 504 592 425 q 617 643 617 583 q 578 785 617 739 q 451 832 540 832 q 353 822 408 832 l 210 93 m 1235 581 q 1131 595 1193 589 q 1033 601 1069 601 q 973 593 999 601 q 926 564 947 585 q 901 640 901 596 q 939 713 901 690 q 1038 735 976 735 q 1117 728 1074 735 q 1169 719 1161 721 q 1304 703 1261 703 q 1379 717 1353 703 q 1404 656 1404 692 q 1363 557 1404 604 l 983 133 q 1090 118 1024 125 q 1196 111 1157 111 q 1310 149 1274 111 q 1335 74 1335 117 q 1295 0 1335 22 q 1193 -22 1256 -22 q 1054 -6 1146 -22 q 925 11 965 11 q 849 -4 876 11 q 825 27 835 4 q 815 75 815 50 q 867 190 815 133 l 1235 581 m 1004 901 l 1060 954 l 1204 882 l 1385 954 l 1422 900 l 1196 753 l 1188 753 l 1004 901 z "},"E":{"ha":613,"x_min":31,"x_max":667,"o":"m 667 917 q 626 818 667 851 q 517 785 585 785 q 347 822 440 785 l 296 524 l 546 524 q 510 437 546 464 q 413 410 474 410 q 278 442 344 410 l 221 124 l 389 124 q 449 128 417 124 q 499 140 481 132 q 513 112 507 129 q 518 78 518 94 q 478 16 518 32 q 375 0 439 0 l 31 0 l 207 917 l 667 917 z "},"É":{"ha":613,"x_min":31,"x_max":690,"o":"m 31 0 m 667 917 q 626 818 667 851 q 517 785 585 785 q 347 822 440 785 l 296 524 l 546 524 q 510 437 546 464 q 413 410 474 410 q 278 442 344 410 l 221 124 l 389 124 q 449 128 417 124 q 499 140 481 132 q 513 112 507 129 q 518 78 518 94 q 478 16 518 32 q 375 0 439 0 l 31 0 l 207 917 l 667 917 m 335 1050 l 660 1174 q 690 1111 690 1153 q 639 1026 690 1049 q 506 999 588 1003 l 346 990 l 335 1050 z "},"Ĕ":{"ha":613,"x_min":31,"x_max":693,"o":"m 31 0 m 667 917 q 626 818 667 851 q 517 785 585 785 q 347 822 440 785 l 296 524 l 546 524 q 510 437 546 464 q 413 410 474 410 q 278 442 344 410 l 221 124 l 389 124 q 449 128 417 124 q 499 140 481 132 q 513 112 507 129 q 518 78 518 94 q 478 16 518 32 q 375 0 439 0 l 31 0 l 207 917 l 667 917 m 397 1156 q 392 1115 392 1129 q 410 1060 392 1081 q 461 1039 428 1039 q 540 1076 506 1039 q 582 1156 574 1113 l 693 1156 q 612 1021 678 1071 q 447 971 546 971 q 317 1009 361 971 q 272 1117 272 1047 q 276 1156 272 1135 l 397 1156 z "},"Ě":{"ha":613,"x_min":31,"x_max":679,"o":"m 31 0 m 667 917 q 626 818 667 851 q 517 785 585 785 q 347 822 440 785 l 296 524 l 546 524 q 510 437 546 464 q 413 410 474 410 q 278 442 344 410 l 221 124 l 389 124 q 449 128 417 124 q 499 140 481 132 q 513 112 507 129 q 518 78 518 94 q 478 16 518 32 q 375 0 439 0 l 31 0 l 207 917 l 667 917 m 261 1110 l 317 1163 l 461 1090 l 642 1163 l 679 1108 l 453 961 l 444 961 l 261 1110 z "},"Ê":{"ha":613,"x_min":31,"x_max":667,"o":"m 31 0 m 667 917 q 626 818 667 851 q 517 785 585 785 q 347 822 440 785 l 296 524 l 546 524 q 510 437 546 464 q 413 410 474 410 q 278 442 344 410 l 221 124 l 389 124 q 449 128 417 124 q 499 140 481 132 q 513 112 507 129 q 518 78 518 94 q 478 16 518 32 q 375 0 439 0 l 31 0 l 207 917 l 667 917 m 643 1003 l 588 936 l 442 1036 l 261 936 l 224 1004 l 450 1165 l 460 1165 l 643 1003 z "},"Ë":{"ha":613,"x_min":31,"x_max":703,"o":"m 31 0 m 667 917 q 626 818 667 851 q 517 785 585 785 q 347 822 440 785 l 296 524 l 546 524 q 510 437 546 464 q 413 410 474 410 q 278 442 344 410 l 221 124 l 389 124 q 449 128 417 124 q 499 140 481 132 q 513 112 507 129 q 518 78 518 94 q 478 16 518 32 q 375 0 439 0 l 31 0 l 207 917 l 667 917 m 310 1185 q 384 1163 356 1185 q 413 1099 413 1140 q 382 1033 413 1056 q 306 1010 351 1010 q 232 1032 260 1010 q 204 1096 204 1054 q 234 1162 204 1139 q 310 1185 264 1185 m 600 1185 q 674 1163 646 1185 q 703 1099 703 1140 q 672 1033 703 1056 q 596 1010 642 1010 q 522 1032 550 1010 q 494 1096 494 1054 q 524 1162 494 1139 q 600 1185 554 1185 z "},"Ė":{"ha":613,"x_min":31,"x_max":667,"o":"m 451 1185 q 526 1163 497 1185 q 554 1099 554 1140 q 524 1033 554 1056 q 447 1010 493 1010 q 374 1032 401 1010 q 346 1096 346 1054 q 376 1162 346 1139 q 451 1185 406 1185 m 667 917 q 626 818 667 851 q 517 785 585 785 q 347 822 440 785 l 296 524 l 546 524 q 510 437 546 464 q 413 410 474 410 q 278 442 344 410 l 221 124 l 389 124 q 449 128 417 124 q 499 140 481 132 q 513 112 507 129 q 518 78 518 94 q 478 16 518 32 q 375 0 439 0 l 31 0 l 207 917 l 667 917 z "},"Ẹ":{"ha":613,"x_min":31,"x_max":667,"o":"m 31 0 m 667 917 q 626 818 667 851 q 517 785 585 785 q 347 822 440 785 l 296 524 l 546 524 q 510 437 546 464 q 413 410 474 410 q 278 442 344 410 l 221 124 l 389 124 q 449 128 417 124 q 499 140 481 132 q 513 112 507 129 q 518 78 518 94 q 478 16 518 32 q 375 0 439 0 l 31 0 l 207 917 l 667 917 m 253 -75 q 326 -97 299 -75 q 354 -161 354 -119 q 324 -227 354 -204 q 249 -250 294 -250 q 175 -228 203 -250 q 147 -164 147 -206 q 177 -98 147 -121 q 253 -75 207 -75 z "},"È":{"ha":613,"x_min":31,"x_max":667,"o":"m 31 0 m 667 917 q 626 818 667 851 q 517 785 585 785 q 347 822 440 785 l 296 524 l 546 524 q 510 437 546 464 q 413 410 474 410 q 278 442 344 410 l 221 124 l 389 124 q 449 128 417 124 q 499 140 481 132 q 513 112 507 129 q 518 78 518 94 q 478 16 518 32 q 375 0 439 0 l 31 0 l 207 917 l 667 917 m 556 990 l 396 999 q 263 1026 314 1003 q 211 1111 211 1049 q 242 1174 211 1153 l 567 1050 l 556 990 z "},"Ē":{"ha":613,"x_min":31,"x_max":667,"o":"m 642 1133 q 646 1100 646 1119 q 622 1042 646 1064 q 551 1019 597 1019 l 258 1019 q 256 1053 256 1031 q 280 1112 257 1090 q 340 1133 303 1133 l 642 1133 m 667 917 q 626 818 667 851 q 517 785 585 785 q 347 822 440 785 l 296 524 l 546 524 q 510 437 546 464 q 413 410 474 410 q 278 442 344 410 l 221 124 l 389 124 q 449 128 417 124 q 499 140 481 132 q 513 112 507 129 q 518 78 518 94 q 478 16 518 32 q 375 0 439 0 l 31 0 l 207 917 l 667 917 z "},"Ę":{"ha":613,"x_min":31,"x_max":667,"o":"m 517 785 q 347 822 440 785 l 296 524 l 546 524 q 510 437 546 464 q 413 410 474 410 q 278 442 344 410 l 221 124 l 389 124 q 449 128 417 124 q 499 140 481 132 q 513 112 507 129 q 518 78 518 94 q 474 14 518 32 q 377 -76 414 -21 q 340 -190 340 -132 q 359 -253 340 -233 q 422 -272 378 -272 q 463 -264 443 -272 q 494 -237 483 -256 q 517 -278 517 -254 q 483 -335 517 -311 q 399 -358 450 -358 q 282 -319 325 -358 q 239 -208 239 -279 q 275 -90 239 -143 q 368 0 311 -36 l 31 0 l 207 917 l 667 917 q 626 818 667 851 q 517 785 585 785 z "},"Ẽ":{"ha":613,"x_min":31,"x_max":682,"o":"m 31 0 m 667 917 q 626 818 667 851 q 517 785 585 785 q 347 822 440 785 l 296 524 l 546 524 q 510 437 546 464 q 413 410 474 410 q 278 442 344 410 l 221 124 l 389 124 q 449 128 417 124 q 499 140 481 132 q 513 112 507 129 q 518 78 518 94 q 478 16 518 32 q 375 0 439 0 l 31 0 l 207 917 l 667 917 m 660 1147 q 682 1090 682 1121 q 653 1028 682 1050 q 575 1007 624 1007 q 458 1018 547 1007 q 344 1029 372 1029 q 267 1008 293 1029 q 243 1072 243 1043 q 272 1128 243 1108 q 354 1147 301 1147 q 475 1136 386 1147 q 590 1125 561 1125 q 660 1147 643 1125 z "},"F":{"ha":600,"x_min":31,"x_max":667,"o":"m 667 917 q 626 818 667 851 q 517 785 585 785 q 347 822 440 785 l 296 524 l 546 524 q 510 437 546 464 q 413 410 474 410 q 278 442 344 410 l 199 0 l 31 0 l 207 917 l 667 917 z "},"G":{"ha":733,"x_min":36,"x_max":740,"o":"m 704 453 q 643 238 664 363 q 618 -6 622 113 q 569 -28 604 -28 q 489 53 489 -28 q 278 -28 389 -28 q 98 60 160 -28 q 36 307 36 149 q 90 606 36 458 q 252 849 144 753 q 511 944 360 944 q 678 897 615 944 q 740 761 740 849 q 706 660 740 696 q 618 624 671 624 q 578 629 597 624 q 550 646 560 635 q 565 698 560 668 q 571 749 571 728 q 546 819 571 793 q 476 846 521 846 q 329 758 389 846 q 240 547 269 671 q 211 318 211 424 q 246 162 211 218 q 367 106 281 106 q 430 113 397 106 q 483 135 463 119 l 528 428 l 704 453 z "},"Ğ":{"ha":733,"x_min":36,"x_max":769,"o":"m 36 0 m 704 453 q 643 238 664 363 q 618 -6 622 113 q 569 -28 604 -28 q 489 53 489 -28 q 278 -28 389 -28 q 98 60 160 -28 q 36 307 36 149 q 90 606 36 458 q 252 849 144 753 q 511 944 360 944 q 678 897 615 944 q 740 761 740 849 q 706 660 740 696 q 618 624 671 624 q 578 629 597 624 q 550 646 560 635 q 565 698 560 668 q 571 749 571 728 q 546 819 571 793 q 476 846 521 846 q 329 758 389 846 q 240 547 269 671 q 211 318 211 424 q 246 162 211 218 q 367 106 281 106 q 430 113 397 106 q 483 135 463 119 l 528 428 l 704 453 m 474 1156 q 468 1115 468 1129 q 486 1060 468 1081 q 538 1039 504 1039 q 616 1076 582 1039 q 658 1156 650 1113 l 769 1156 q 688 1021 754 1071 q 524 971 622 971 q 393 1009 438 971 q 349 1117 349 1047 q 353 1156 349 1135 l 474 1156 z "},"Ĝ":{"ha":733,"x_min":36,"x_max":740,"o":"m 36 0 m 704 453 q 643 238 664 363 q 618 -6 622 113 q 569 -28 604 -28 q 489 53 489 -28 q 278 -28 389 -28 q 98 60 160 -28 q 36 307 36 149 q 90 606 36 458 q 252 849 144 753 q 511 944 360 944 q 678 897 615 944 q 740 761 740 849 q 706 660 740 696 q 618 624 671 624 q 578 629 597 624 q 550 646 560 635 q 565 698 560 668 q 571 749 571 728 q 546 819 571 793 q 476 846 521 846 q 329 758 389 846 q 240 547 269 671 q 211 318 211 424 q 246 162 211 218 q 367 106 281 106 q 430 113 397 106 q 483 135 463 119 l 528 428 l 704 453 m 719 1003 l 664 936 l 518 1036 l 338 936 l 300 1004 l 526 1165 l 536 1165 l 719 1003 z "},"Ģ":{"ha":733,"x_min":36,"x_max":740,"o":"m 36 0 m 704 453 q 643 238 664 363 q 618 -6 622 113 q 569 -28 604 -28 q 489 53 489 -28 q 278 -28 389 -28 q 98 60 160 -28 q 36 307 36 149 q 90 606 36 458 q 252 849 144 753 q 511 944 360 944 q 678 897 615 944 q 740 761 740 849 q 706 660 740 696 q 618 624 671 624 q 578 629 597 624 q 550 646 560 635 q 565 698 560 668 q 571 749 571 728 q 546 819 571 793 q 476 846 521 846 q 329 758 389 846 q 240 547 269 671 q 211 318 211 424 q 246 162 211 218 q 367 106 281 106 q 430 113 397 106 q 483 135 463 119 l 528 428 l 704 453 m 410 -146 q 384 -231 410 -189 q 317 -301 358 -274 q 235 -329 276 -329 q 196 -314 211 -329 q 252 -222 233 -262 q 271 -135 271 -182 q 261 -83 271 -108 q 333 -68 290 -68 q 388 -87 367 -68 q 410 -146 410 -107 z "},"Ġ":{"ha":733,"x_min":36,"x_max":740,"o":"m 526 1185 q 601 1163 572 1185 q 629 1099 629 1140 q 599 1033 629 1056 q 522 1010 568 1010 q 449 1032 476 1010 q 421 1096 421 1054 q 451 1162 421 1139 q 526 1185 481 1185 m 704 453 q 643 238 664 363 q 618 -6 622 113 q 569 -28 604 -28 q 489 53 489 -28 q 278 -28 389 -28 q 98 60 160 -28 q 36 307 36 149 q 90 606 36 458 q 252 849 144 753 q 511 944 360 944 q 678 897 615 944 q 740 761 740 849 q 706 660 740 696 q 618 624 671 624 q 578 629 597 624 q 550 646 560 635 q 565 698 560 668 q 571 749 571 728 q 546 819 571 793 q 476 846 521 846 q 329 758 389 846 q 240 547 269 671 q 211 318 211 424 q 246 162 211 218 q 367 106 281 106 q 430 113 397 106 q 483 135 463 119 l 528 428 l 704 453 z "},"H":{"ha":854,"x_min":31,"x_max":835,"o":"m 689 132 q 682 68 682 94 q 699 6 682 33 q 606 -28 657 -28 q 540 -4 558 -28 q 521 65 521 19 q 536 185 521 93 l 574 403 l 271 403 l 193 0 l 31 0 l 207 917 l 372 917 l 290 500 l 592 500 l 669 917 l 835 917 l 689 132 z "},"Ħ":{"ha":854,"x_min":31,"x_max":894,"o":"m 890 729 q 894 696 894 715 q 870 636 894 658 q 800 614 846 614 l 779 614 l 689 132 q 682 68 682 94 q 699 6 682 33 q 606 -28 657 -28 q 540 -4 558 -28 q 521 65 521 19 q 536 185 521 93 l 574 403 l 271 403 l 193 0 l 31 0 l 149 614 l 61 614 q 58 649 58 625 q 83 708 60 686 q 143 729 106 729 l 171 729 l 207 917 l 372 917 l 335 729 l 635 729 l 669 917 l 835 917 l 800 729 l 890 729 m 592 500 l 613 614 l 313 614 l 290 500 l 592 500 z "},"Ĥ":{"ha":854,"x_min":31,"x_max":835,"o":"m 31 0 m 689 132 q 682 68 682 94 q 699 6 682 33 q 606 -28 657 -28 q 540 -4 558 -28 q 521 65 521 19 q 536 185 521 93 l 574 403 l 271 403 l 193 0 l 31 0 l 207 917 l 372 917 l 290 500 l 592 500 l 669 917 l 835 917 l 689 132 m 722 1003 l 667 936 l 521 1036 l 340 936 l 303 1004 l 529 1165 l 539 1165 l 722 1003 z "},"Ḥ":{"ha":854,"x_min":31,"x_max":835,"o":"m 31 0 m 689 132 q 682 68 682 94 q 699 6 682 33 q 606 -28 657 -28 q 540 -4 558 -28 q 521 65 521 19 q 536 185 521 93 l 574 403 l 271 403 l 193 0 l 31 0 l 207 917 l 372 917 l 290 500 l 592 500 l 669 917 l 835 917 l 689 132 m 336 -75 q 410 -97 382 -75 q 438 -161 438 -119 q 408 -227 438 -204 q 332 -250 378 -250 q 258 -228 286 -250 q 231 -164 231 -206 q 260 -98 231 -121 q 336 -75 290 -75 z "},"I":{"ha":403,"x_min":31,"x_max":372,"o":"m 372 917 l 193 0 l 31 0 l 207 917 l 372 917 z "},"Ĳ":{"ha":806,"x_min":31,"x_max":775,"o":"m 31 0 m 372 917 l 193 0 l 31 0 l 207 917 l 372 917 m 615 99 q 540 -136 588 -50 q 414 -222 493 -222 q 357 -208 382 -222 q 321 -168 332 -194 q 403 -83 375 -147 q 447 71 431 -18 l 610 917 l 775 917 l 615 99 z "},"Í":{"ha":403,"x_min":31,"x_max":560,"o":"m 31 0 m 372 917 l 193 0 l 31 0 l 207 917 l 372 917 m 204 1050 l 529 1174 q 560 1111 560 1153 q 508 1026 560 1049 q 375 999 457 1003 l 215 990 l 204 1050 z "},"Ĭ":{"ha":403,"x_min":31,"x_max":563,"o":"m 31 0 m 372 917 l 193 0 l 31 0 l 207 917 l 372 917 m 267 1156 q 261 1115 261 1129 q 279 1060 261 1081 q 331 1039 297 1039 q 409 1076 375 1039 q 451 1156 443 1113 l 563 1156 q 481 1021 547 1071 q 317 971 415 971 q 186 1009 231 971 q 142 1117 142 1047 q 146 1156 142 1135 l 267 1156 z "},"Î":{"ha":403,"x_min":31,"x_max":513,"o":"m 31 0 m 372 917 l 193 0 l 31 0 l 207 917 l 372 917 m 513 1003 l 457 936 l 311 1036 l 131 936 l 93 1004 l 319 1165 l 329 1165 l 513 1003 z "},"Ï":{"ha":403,"x_min":31,"x_max":572,"o":"m 31 0 m 372 917 l 193 0 l 31 0 l 207 917 l 372 917 m 179 1185 q 253 1163 225 1185 q 282 1099 282 1140 q 251 1033 282 1056 q 175 1010 221 1010 q 101 1032 129 1010 q 74 1096 74 1054 q 103 1162 74 1139 q 179 1185 133 1185 m 469 1185 q 544 1163 515 1185 q 572 1099 572 1140 q 542 1033 572 1056 q 465 1010 511 1010 q 392 1032 419 1010 q 364 1096 364 1054 q 394 1162 364 1139 q 469 1185 424 1185 z "},"İ":{"ha":403,"x_min":31,"x_max":424,"o":"m 321 1185 q 395 1163 367 1185 q 424 1099 424 1140 q 393 1033 424 1056 q 317 1010 363 1010 q 243 1032 271 1010 q 215 1096 215 1054 q 245 1162 215 1139 q 321 1185 275 1185 m 372 917 l 193 0 l 31 0 l 207 917 l 372 917 z "},"Ị":{"ha":403,"x_min":-17,"x_max":372,"o":"m 0 0 m 372 917 l 193 0 l 31 0 l 207 917 l 372 917 m 89 -75 q 163 -97 135 -75 q 190 -161 190 -119 q 160 -227 190 -204 q 85 -250 131 -250 q 11 -228 39 -250 q -17 -164 -17 -206 q 13 -98 -17 -121 q 89 -75 43 -75 z "},"Ì":{"ha":403,"x_min":31,"x_max":436,"o":"m 31 0 m 372 917 l 193 0 l 31 0 l 207 917 l 372 917 m 425 990 l 265 999 q 132 1026 183 1003 q 81 1111 81 1049 q 111 1174 81 1153 l 436 1050 l 425 990 z "},"Ī":{"ha":403,"x_min":31,"x_max":515,"o":"m 511 1133 q 515 1100 515 1119 q 491 1042 515 1064 q 421 1019 467 1019 l 128 1019 q 125 1053 125 1031 q 149 1112 126 1090 q 210 1133 172 1133 l 511 1133 m 372 917 l 193 0 l 31 0 l 207 917 l 372 917 z "},"Į":{"ha":403,"x_min":-39,"x_max":372,"o":"m 217 -237 q 239 -278 239 -254 q 206 -335 239 -311 q 121 -358 172 -358 q 4 -319 47 -358 q -39 -208 -39 -279 q -3 -90 -39 -143 q 90 0 33 -36 l 31 0 l 207 917 l 372 917 l 196 14 l 193 0 l 174 0 q 92 -87 122 -36 q 63 -190 63 -137 q 81 -253 63 -233 q 144 -272 100 -272 q 185 -264 165 -272 q 217 -237 206 -256 z "},"Ĩ":{"ha":403,"x_min":31,"x_max":551,"o":"m 31 0 m 372 917 l 193 0 l 31 0 l 207 917 l 372 917 m 529 1147 q 551 1090 551 1121 q 522 1028 551 1050 q 444 1007 493 1007 q 328 1018 417 1007 q 214 1029 242 1029 q 136 1008 163 1029 q 113 1072 113 1043 q 142 1128 113 1108 q 224 1147 171 1147 q 344 1136 256 1147 q 460 1125 431 1125 q 529 1147 513 1125 z "},"J":{"ha":403,"x_min":-82,"x_max":372,"o":"m 213 99 q 138 -136 185 -50 q 11 -222 90 -222 q -46 -208 -21 -222 q -82 -168 -71 -194 q 0 -83 -28 -147 q 44 71 28 -18 l 207 917 l 372 917 l 213 99 z "},"Ĵ":{"ha":403,"x_min":-82,"x_max":514,"o":"m 0 0 m 213 99 q 138 -136 185 -50 q 11 -222 90 -222 q -46 -208 -21 -222 q -82 -168 -71 -194 q 0 -83 -28 -147 q 44 71 28 -18 l 207 917 l 372 917 l 213 99 m 514 1003 l 458 936 l 313 1036 l 132 936 l 94 1004 l 321 1165 l 331 1165 l 514 1003 z "},"K":{"ha":776,"x_min":35,"x_max":833,"o":"m 197 0 l 35 0 q 135 532 88 275 q 207 917 183 789 l 372 917 l 197 0 m 833 917 q 575 596 803 879 l 472 467 q 610 178 542 285 q 731 49 679 72 q 692 -7 721 13 q 622 -26 664 -26 q 513 21 558 -26 q 426 164 468 68 q 314 456 383 260 l 651 917 l 833 917 z "},"Ķ":{"ha":776,"x_min":35,"x_max":833,"o":"m 35 0 m 197 0 l 35 0 q 135 532 88 275 q 207 917 183 789 l 372 917 l 197 0 m 833 917 q 575 596 803 879 l 472 467 q 610 178 542 285 q 731 49 679 72 q 692 -7 721 13 q 622 -26 664 -26 q 513 21 558 -26 q 426 164 468 68 q 314 456 383 260 l 651 917 l 833 917 m 421 -146 q 395 -231 421 -189 q 328 -301 369 -274 q 246 -329 288 -329 q 207 -314 222 -329 q 263 -222 244 -262 q 282 -135 282 -182 q 272 -83 282 -108 q 344 -68 301 -68 q 399 -87 378 -68 q 421 -146 421 -107 z "},"L":{"ha":522,"x_min":31,"x_max":518,"o":"m 207 917 l 372 917 l 217 124 l 389 124 q 449 128 417 124 q 499 140 481 132 q 513 112 507 129 q 518 78 518 94 q 478 16 518 32 q 376 0 439 0 l 31 0 l 207 917 z "},"Ǉ":{"ha":925,"x_min":31,"x_max":894,"o":"m 31 0 m 207 917 l 372 917 l 217 124 l 389 124 q 449 128 417 124 q 499 140 481 132 q 513 112 507 129 q 518 78 518 94 q 478 16 518 32 q 376 0 439 0 l 31 0 l 207 917 m 735 99 q 660 -136 707 -50 q 533 -222 613 -222 q 476 -208 501 -222 q 440 -168 451 -194 q 522 -83 494 -147 q 567 71 550 -18 l 729 917 l 894 917 l 735 99 z "},"Ĺ":{"ha":522,"x_min":31,"x_max":519,"o":"m 31 0 m 207 917 l 372 917 l 217 124 l 389 124 q 449 128 417 124 q 499 140 481 132 q 513 112 507 129 q 518 78 518 94 q 478 16 518 32 q 376 0 439 0 l 31 0 l 207 917 m 164 1050 l 489 1174 q 519 1111 519 1153 q 468 1026 519 1049 q 335 999 417 1003 l 175 990 l 164 1050 z "},"Ľ":{"ha":522,"x_min":31,"x_max":638,"o":"m 31 0 m 207 917 l 372 917 l 217 124 l 389 124 q 449 128 417 124 q 499 140 481 132 q 513 112 507 129 q 518 78 518 94 q 478 16 518 32 q 376 0 439 0 l 31 0 l 207 917 m 496 981 q 526 992 507 988 q 564 997 546 997 q 617 976 597 997 q 638 914 638 956 q 613 828 638 868 q 551 763 589 788 q 476 739 514 739 q 433 747 456 739 q 489 834 471 793 q 507 925 507 875 q 496 981 507 958 z "},"Ļ":{"ha":522,"x_min":31,"x_max":518,"o":"m 31 0 m 207 917 l 372 917 l 217 124 l 389 124 q 449 128 417 124 q 499 140 481 132 q 513 112 507 129 q 518 78 518 94 q 478 16 518 32 q 376 0 439 0 l 31 0 l 207 917 m 324 -146 q 298 -231 324 -189 q 231 -301 272 -274 q 149 -329 190 -329 q 110 -314 125 -329 q 166 -222 147 -262 q 185 -135 185 -182 q 175 -83 185 -108 q 247 -68 204 -68 q 302 -87 281 -68 q 324 -146 324 -107 z "},"Ŀ":{"ha":522,"x_min":31,"x_max":521,"o":"m 207 917 l 372 917 l 217 124 l 389 124 q 449 128 417 124 q 499 140 481 132 q 513 112 507 129 q 518 78 518 94 q 478 16 518 32 q 376 0 439 0 l 31 0 l 207 917 m 454 564 q 502 547 483 564 q 521 503 521 531 q 489 431 521 458 q 418 403 457 403 q 371 419 389 403 q 353 464 353 435 q 384 536 353 508 q 454 564 415 564 z "},"ǈ":{"ha":522,"x_min":-143,"x_max":518,"o":"m 282 1039 q 208 1061 236 1039 q 181 1125 181 1083 q 210 1191 181 1168 q 286 1214 240 1214 q 360 1192 332 1214 q 388 1128 388 1169 q 358 1062 388 1085 q 282 1039 328 1039 m 499 140 q 513 112 507 129 q 518 78 518 94 q 478 16 518 32 q 376 0 439 0 l 89 0 q -46 -69 32 -69 q -143 11 -131 -69 q -55 47 -90 13 q 6 151 -19 81 q 56 346 31 222 l 171 917 l 328 933 l 325 917 l 372 917 l 217 124 l 389 124 q 449 128 417 124 q 499 140 481 132 z "},"Ł":{"ha":553,"x_min":-18,"x_max":549,"o":"m 419 124 q 479 128 447 124 q 529 140 511 132 q 543 112 538 129 q 549 78 549 94 q 509 16 549 32 q 407 0 469 0 l 61 0 l 129 357 l 7 313 q -12 338 -6 326 q -18 367 -18 350 q 35 438 -18 417 l 154 482 l 238 917 l 403 917 l 331 546 l 479 601 q 501 543 501 581 q 481 495 501 514 q 418 461 461 476 l 306 421 l 247 124 l 419 124 z "},"M":{"ha":1040,"x_min":14,"x_max":1035,"o":"m 1035 917 l 963 169 q 960 142 961 158 q 958 113 958 125 q 965 63 958 83 q 989 22 972 42 q 883 -31 947 -31 q 813 -1 829 -31 q 797 96 797 29 q 806 199 797 124 l 863 719 l 531 0 l 417 0 l 297 719 l 150 0 l 14 0 l 215 917 l 422 917 l 531 276 l 824 917 l 1035 917 z "},"N":{"ha":901,"x_min":38,"x_max":861,"o":"m 174 0 l 38 0 l 207 917 l 407 917 l 607 200 l 726 917 l 861 917 l 694 0 l 513 0 l 297 740 l 174 0 z "},"Ǌ":{"ha":1304,"x_min":38,"x_max":1274,"o":"m 38 0 m 174 0 l 38 0 l 207 917 l 407 917 l 607 200 l 726 917 l 861 917 l 694 0 l 513 0 l 297 740 l 174 0 m 1114 99 q 1039 -136 1086 -50 q 913 -222 992 -222 q 856 -208 881 -222 q 819 -168 831 -194 q 901 -83 874 -147 q 946 71 929 -18 l 1108 917 l 1274 917 l 1114 99 z "},"Ń":{"ha":901,"x_min":38,"x_max":861,"o":"m 38 0 m 174 0 l 38 0 l 207 917 l 407 917 l 607 200 l 726 917 l 861 917 l 694 0 l 513 0 l 297 740 l 174 0 m 443 1050 l 768 1174 q 799 1111 799 1153 q 747 1026 799 1049 q 614 999 696 1003 l 454 990 l 443 1050 z "},"Ň":{"ha":901,"x_min":38,"x_max":861,"o":"m 38 0 m 174 0 l 38 0 l 207 917 l 407 917 l 607 200 l 726 917 l 861 917 l 694 0 l 513 0 l 297 740 l 174 0 m 369 1110 l 425 1163 l 569 1090 l 750 1163 l 788 1108 l 561 961 l 553 961 l 369 1110 z "},"Ņ":{"ha":901,"x_min":38,"x_max":861,"o":"m 38 0 m 174 0 l 38 0 l 207 917 l 407 917 l 607 200 l 726 917 l 861 917 l 694 0 l 513 0 l 297 740 l 174 0 m 472 -146 q 447 -231 472 -189 q 380 -301 421 -274 q 297 -329 339 -329 q 258 -314 274 -329 q 315 -222 296 -262 q 333 -135 333 -182 q 324 -83 333 -108 q 396 -68 353 -68 q 451 -87 429 -68 q 472 -146 472 -107 z "},"Ṅ":{"ha":901,"x_min":38,"x_max":861,"o":"m 560 1185 q 634 1163 606 1185 q 663 1099 663 1140 q 632 1033 663 1056 q 556 1010 601 1010 q 482 1032 510 1010 q 454 1096 454 1054 q 484 1162 454 1139 q 560 1185 514 1185 m 174 0 l 38 0 l 207 917 l 407 917 l 607 200 l 726 917 l 861 917 l 694 0 l 513 0 l 297 740 l 174 0 z "},"Ŋ":{"ha":900,"x_min":38,"x_max":861,"o":"m 174 0 l 38 0 l 207 917 l 407 917 l 607 200 l 726 917 l 861 917 l 710 88 q 641 -140 683 -57 q 526 -222 599 -222 q 475 -210 499 -222 q 442 -178 451 -199 q 565 0 525 -147 l 513 0 l 297 740 l 174 0 z "},"ǋ":{"ha":901,"x_min":38,"x_max":861,"o":"m 561 1039 q 488 1061 515 1039 q 460 1125 460 1083 q 490 1191 460 1168 q 565 1214 519 1214 q 639 1192 611 1214 q 667 1128 667 1169 q 637 1062 667 1085 q 561 1039 607 1039 m 861 917 l 694 0 l 513 0 l 456 193 q 363 -7 421 56 q 233 -69 306 -69 q 139 0 156 -69 l 38 0 l 207 917 l 407 917 l 432 828 l 450 917 l 607 933 l 521 507 l 607 200 l 726 917 l 861 917 m 367 503 l 297 740 l 176 18 q 269 113 233 38 q 335 346 304 188 l 367 503 z "},"Ñ":{"ha":901,"x_min":38,"x_max":861,"o":"m 38 0 m 174 0 l 38 0 l 207 917 l 407 917 l 607 200 l 726 917 l 861 917 l 694 0 l 513 0 l 297 740 l 174 0 m 768 1147 q 790 1090 790 1121 q 761 1028 790 1050 q 683 1007 732 1007 q 567 1018 656 1007 q 453 1029 481 1029 q 375 1008 401 1029 q 351 1072 351 1043 q 381 1128 351 1108 q 463 1147 410 1147 q 583 1136 494 1147 q 699 1125 669 1125 q 768 1147 751 1125 z "},"O":{"ha":821,"x_min":36,"x_max":785,"o":"m 515 944 q 720 863 656 944 q 785 621 785 782 q 734 320 785 469 q 575 72 683 171 q 306 -28 467 -28 q 101 53 165 -28 q 36 297 36 135 q 88 599 36 450 q 247 846 139 747 q 515 944 356 944 m 479 847 q 333 767 386 847 q 250 557 281 688 q 222 403 233 488 q 210 257 210 318 q 342 71 210 71 q 490 153 439 71 q 571 361 542 236 q 599 515 588 431 q 611 661 611 600 q 479 847 611 847 z "},"Ó":{"ha":821,"x_min":36,"x_max":785,"o":"m 36 0 m 515 944 q 720 863 656 944 q 785 621 785 782 q 734 320 785 469 q 575 72 683 171 q 306 -28 467 -28 q 101 53 165 -28 q 36 297 36 135 q 88 599 36 450 q 247 846 139 747 q 515 944 356 944 m 479 847 q 333 767 386 847 q 250 557 281 688 q 222 403 233 488 q 210 257 210 318 q 342 71 210 71 q 490 153 439 71 q 571 361 542 236 q 599 515 588 431 q 611 661 611 600 q 479 847 611 847 m 418 1050 l 743 1174 q 774 1111 774 1153 q 722 1026 774 1049 q 589 999 671 1003 l 429 990 l 418 1050 z "},"Ŏ":{"ha":821,"x_min":36,"x_max":785,"o":"m 36 0 m 515 944 q 720 863 656 944 q 785 621 785 782 q 734 320 785 469 q 575 72 683 171 q 306 -28 467 -28 q 101 53 165 -28 q 36 297 36 135 q 88 599 36 450 q 247 846 139 747 q 515 944 356 944 m 479 847 q 333 767 386 847 q 250 557 281 688 q 222 403 233 488 q 210 257 210 318 q 342 71 210 71 q 490 153 439 71 q 571 361 542 236 q 599 515 588 431 q 611 661 611 600 q 479 847 611 847 m 481 1156 q 475 1115 475 1129 q 493 1060 475 1081 q 544 1039 511 1039 q 623 1076 589 1039 q 665 1156 657 1113 l 776 1156 q 695 1021 761 1071 q 531 971 629 971 q 400 1009 444 971 q 356 1117 356 1047 q 360 1156 356 1135 l 481 1156 z "},"Ô":{"ha":821,"x_min":36,"x_max":785,"o":"m 36 0 m 515 944 q 720 863 656 944 q 785 621 785 782 q 734 320 785 469 q 575 72 683 171 q 306 -28 467 -28 q 101 53 165 -28 q 36 297 36 135 q 88 599 36 450 q 247 846 139 747 q 515 944 356 944 m 479 847 q 333 767 386 847 q 250 557 281 688 q 222 403 233 488 q 210 257 210 318 q 342 71 210 71 q 490 153 439 71 q 571 361 542 236 q 599 515 588 431 q 611 661 611 600 q 479 847 611 847 m 726 1003 l 671 936 l 525 1036 l 344 936 l 307 1004 l 533 1165 l 543 1165 l 726 1003 z "},"Ö":{"ha":821,"x_min":36,"x_max":786,"o":"m 36 0 m 515 944 q 720 863 656 944 q 785 621 785 782 q 734 320 785 469 q 575 72 683 171 q 306 -28 467 -28 q 101 53 165 -28 q 36 297 36 135 q 88 599 36 450 q 247 846 139 747 q 515 944 356 944 m 479 847 q 333 767 386 847 q 250 557 281 688 q 222 403 233 488 q 210 257 210 318 q 342 71 210 71 q 490 153 439 71 q 571 361 542 236 q 599 515 588 431 q 611 661 611 600 q 479 847 611 847 m 393 1185 q 467 1163 439 1185 q 496 1099 496 1140 q 465 1033 496 1056 q 389 1010 435 1010 q 315 1032 343 1010 q 288 1096 288 1054 q 317 1162 288 1139 q 393 1185 347 1185 m 683 1185 q 758 1163 729 1185 q 786 1099 786 1140 q 756 1033 786 1056 q 679 1010 725 1010 q 606 1032 633 1010 q 578 1096 578 1054 q 608 1162 578 1139 q 683 1185 638 1185 z "},"Ọ":{"ha":821,"x_min":36,"x_max":785,"o":"m 36 0 m 515 944 q 720 863 656 944 q 785 621 785 782 q 734 320 785 469 q 575 72 683 171 q 306 -28 467 -28 q 101 53 165 -28 q 36 297 36 135 q 88 599 36 450 q 247 846 139 747 q 515 944 356 944 m 479 847 q 333 767 386 847 q 250 557 281 688 q 222 403 233 488 q 210 257 210 318 q 342 71 210 71 q 490 153 439 71 q 571 361 542 236 q 599 515 588 431 q 611 661 611 600 q 479 847 611 847 m 282 -75 q 356 -97 328 -75 q 383 -161 383 -119 q 353 -227 383 -204 q 278 -250 324 -250 q 204 -228 232 -250 q 176 -164 176 -206 q 206 -98 176 -121 q 282 -75 236 -75 z "},"Ò":{"ha":821,"x_min":36,"x_max":785,"o":"m 36 0 m 515 944 q 720 863 656 944 q 785 621 785 782 q 734 320 785 469 q 575 72 683 171 q 306 -28 467 -28 q 101 53 165 -28 q 36 297 36 135 q 88 599 36 450 q 247 846 139 747 q 515 944 356 944 m 479 847 q 333 767 386 847 q 250 557 281 688 q 222 403 233 488 q 210 257 210 318 q 342 71 210 71 q 490 153 439 71 q 571 361 542 236 q 599 515 588 431 q 611 661 611 600 q 479 847 611 847 m 639 990 l 479 999 q 346 1026 397 1003 q 294 1111 294 1049 q 325 1174 294 1153 l 650 1050 l 639 990 z "},"Ő":{"ha":821,"x_min":36,"x_max":853,"o":"m 36 0 m 515 944 q 720 863 656 944 q 785 621 785 782 q 734 320 785 469 q 575 72 683 171 q 306 -28 467 -28 q 101 53 165 -28 q 36 297 36 135 q 88 599 36 450 q 247 846 139 747 q 515 944 356 944 m 479 847 q 333 767 386 847 q 250 557 281 688 q 222 403 233 488 q 210 257 210 318 q 342 71 210 71 q 490 153 439 71 q 571 361 542 236 q 599 515 588 431 q 611 661 611 600 q 479 847 611 847 m 565 1176 q 589 1147 581 1165 q 597 1108 597 1129 q 569 1042 597 1067 q 482 1004 542 1017 l 376 982 l 346 1028 l 565 1176 m 819 1176 q 853 1110 853 1154 q 826 1042 853 1067 q 739 1004 799 1017 l 631 982 l 601 1028 l 819 1176 z "},"Ō":{"ha":821,"x_min":36,"x_max":785,"o":"m 725 1133 q 729 1100 729 1119 q 705 1042 729 1064 q 635 1019 681 1019 l 342 1019 q 339 1053 339 1031 q 363 1112 340 1090 q 424 1133 386 1133 l 725 1133 m 515 944 q 720 863 656 944 q 785 621 785 782 q 734 320 785 469 q 575 72 683 171 q 306 -28 467 -28 q 101 53 165 -28 q 36 297 36 135 q 88 599 36 450 q 247 846 139 747 q 515 944 356 944 m 479 847 q 333 767 386 847 q 250 557 281 688 q 222 403 233 488 q 210 257 210 318 q 342 71 210 71 q 490 153 439 71 q 571 361 542 236 q 599 515 588 431 q 611 661 611 600 q 479 847 611 847 z "},"Ǫ":{"ha":821,"x_min":36,"x_max":785,"o":"m 488 13 q 392 -78 428 -22 q 356 -190 356 -133 q 374 -253 356 -233 q 438 -272 393 -272 q 478 -264 458 -272 q 510 -237 499 -256 q 532 -278 532 -254 q 499 -335 532 -311 q 414 -358 465 -358 q 297 -319 340 -358 q 254 -208 254 -279 q 280 -108 254 -154 q 347 -26 306 -61 q 306 -28 335 -28 q 101 53 165 -28 q 36 297 36 135 q 88 599 36 450 q 247 846 139 747 q 515 944 356 944 q 720 863 656 944 q 785 621 785 782 q 753 382 785 503 q 654 162 721 261 q 488 13 588 63 m 210 257 q 342 71 210 71 q 490 153 439 71 q 571 361 542 236 q 599 515 588 431 q 611 661 611 600 q 479 847 611 847 q 333 767 386 847 q 250 557 281 688 q 222 403 233 488 q 210 257 210 318 z "},"Ø":{"ha":844,"x_min":-40,"x_max":882,"o":"m 882 925 q 856 865 882 896 l 785 786 q 808 621 808 721 q 758 320 808 469 q 599 72 707 171 q 329 -28 490 -28 q 124 54 189 -28 l 79 7 q 18 -75 44 -31 q -24 -58 -8 -75 q -40 -17 -39 -42 q -15 46 -40 17 l 78 149 q 60 297 60 211 q 111 599 60 450 q 271 846 163 747 q 539 944 379 944 q 731 876 665 944 l 764 914 q 825 990 797 950 q 863 972 844 990 q 882 925 882 953 m 274 557 q 236 326 246 439 l 622 757 q 501 847 596 847 q 356 767 408 847 q 274 557 304 688 m 364 71 q 519 165 463 71 q 598 369 576 258 q 633 619 619 481 l 240 185 q 364 71 261 71 z "},"Ǿ":{"ha":844,"x_min":-40,"x_max":882,"o":"m 0 0 m 882 925 q 856 865 882 896 l 785 786 q 808 621 808 721 q 758 320 808 469 q 599 72 707 171 q 329 -28 490 -28 q 124 54 189 -28 l 79 7 q 18 -75 44 -31 q -24 -58 -8 -75 q -40 -17 -39 -42 q -15 46 -40 17 l 78 149 q 60 297 60 211 q 111 599 60 450 q 271 846 163 747 q 539 944 379 944 q 731 876 665 944 l 764 914 q 825 990 797 950 q 863 972 844 990 q 882 925 882 953 m 274 557 q 236 326 246 439 l 622 757 q 501 847 596 847 q 356 767 408 847 q 274 557 304 688 m 364 71 q 519 165 463 71 q 598 369 576 258 q 633 619 619 481 l 240 185 q 364 71 261 71 m 407 1050 l 732 1174 q 763 1111 763 1153 q 711 1026 763 1049 q 578 999 660 1003 l 418 990 l 407 1050 z "},"Õ":{"ha":821,"x_min":36,"x_max":785,"o":"m 36 0 m 515 944 q 720 863 656 944 q 785 621 785 782 q 734 320 785 469 q 575 72 683 171 q 306 -28 467 -28 q 101 53 165 -28 q 36 297 36 135 q 88 599 36 450 q 247 846 139 747 q 515 944 356 944 m 479 847 q 333 767 386 847 q 250 557 281 688 q 222 403 233 488 q 210 257 210 318 q 342 71 210 71 q 490 153 439 71 q 571 361 542 236 q 599 515 588 431 q 611 661 611 600 q 479 847 611 847 m 743 1147 q 765 1090 765 1121 q 736 1028 765 1050 q 658 1007 707 1007 q 542 1018 631 1007 q 428 1029 456 1029 q 350 1008 376 1029 q 326 1072 326 1043 q 356 1128 326 1108 q 438 1147 385 1147 q 558 1136 469 1147 q 674 1125 644 1125 q 743 1147 726 1125 z "},"Œ":{"ha":1099,"x_min":35,"x_max":1125,"o":"m 1018 524 q 982 437 1018 464 q 883 410 946 410 q 815 417 850 410 q 753 436 779 425 q 736 232 736 272 q 771 124 736 154 q 878 93 806 93 q 994 113 942 93 q 1003 72 1003 96 q 944 -4 1003 19 q 813 -28 886 -28 q 674 2 731 -28 q 592 88 617 32 q 465 -1 531 26 q 314 -28 399 -28 q 100 51 165 -28 q 35 293 35 131 q 88 601 35 450 q 248 848 142 751 q 503 944 354 944 q 649 917 586 944 l 1125 917 q 1084 818 1125 851 q 975 785 1043 785 q 880 796 933 785 q 788 822 826 807 l 761 524 l 1018 524 m 340 71 q 486 154 433 71 q 568 363 539 238 q 597 514 585 432 q 608 656 608 596 q 479 846 608 846 q 332 763 385 846 q 250 554 279 679 q 222 403 233 485 q 210 261 210 321 q 340 71 210 71 z "},"P":{"ha":704,"x_min":31,"x_max":749,"o":"m 31 0 l 207 917 q 442 929 338 929 q 672 880 594 929 q 749 697 749 831 q 714 537 749 608 q 615 425 679 465 q 464 385 550 385 q 376 400 414 385 q 329 453 338 415 q 368 450 342 450 q 519 510 463 450 q 576 688 576 571 q 547 801 576 764 q 446 838 517 838 q 354 828 403 838 l 193 0 l 31 0 z "},"Þ":{"ha":696,"x_min":31,"x_max":715,"o":"m 338 744 q 433 747 401 747 q 647 696 579 747 q 715 522 715 644 q 681 360 715 432 q 581 247 646 288 q 431 207 517 207 q 342 222 381 207 q 296 275 304 238 q 332 274 313 274 q 489 333 435 274 q 543 496 543 392 q 508 614 543 578 q 399 650 474 650 q 318 640 360 650 l 193 0 l 31 0 l 207 917 l 372 917 l 338 744 z "},"Q":{"ha":822,"x_min":57,"x_max":806,"o":"m 536 944 q 741 864 676 944 q 806 624 806 783 q 752 319 806 469 q 594 70 699 168 q 346 -28 490 -28 q 433 -46 354 -29 q 600 -62 513 -62 q 743 -32 694 -62 q 761 -101 761 -64 q 720 -181 761 -157 q 615 -204 679 -204 q 529 -196 572 -204 q 413 -169 486 -187 q 313 -146 354 -154 q 236 -137 272 -137 q 143 -154 183 -137 q 118 -119 128 -142 q 108 -74 108 -97 q 149 1 108 -19 q 251 29 190 21 q 403 70 343 42 q 511 167 464 99 q 590 363 558 236 q 619 514 607 433 q 631 658 631 594 q 603 796 631 744 q 506 847 575 847 q 272 556 343 847 q 244 410 256 489 q 233 279 233 332 q 247 210 233 232 q 296 183 260 189 q 274 144 296 160 q 207 129 251 129 q 57 328 57 129 q 106 592 57 449 q 263 840 156 736 q 536 944 371 944 z "},"R":{"ha":786,"x_min":31,"x_max":749,"o":"m 207 917 q 442 929 338 929 q 672 880 594 929 q 749 697 749 831 q 685 491 749 575 q 515 389 622 407 q 638 156 578 242 q 744 49 699 69 q 705 -8 735 10 q 636 -26 675 -26 q 528 20 574 -26 q 438 165 482 67 q 329 453 394 264 q 364 451 346 451 q 522 510 468 451 q 575 676 575 569 q 541 798 575 758 q 433 838 507 838 q 354 828 396 838 l 193 0 l 31 0 l 207 917 z "},"Ŕ":{"ha":786,"x_min":31,"x_max":749,"o":"m 31 0 m 207 917 q 442 929 338 929 q 672 880 594 929 q 749 697 749 831 q 685 491 749 575 q 515 389 622 407 q 638 156 578 242 q 744 49 699 69 q 705 -8 735 10 q 636 -26 675 -26 q 528 20 574 -26 q 438 165 482 67 q 329 453 394 264 q 364 451 346 451 q 522 510 468 451 q 575 676 575 569 q 541 798 575 758 q 433 838 507 838 q 354 828 396 838 l 193 0 l 31 0 l 207 917 m 369 1050 l 694 1174 q 725 1111 725 1153 q 674 1026 725 1049 q 540 999 622 1003 l 381 990 l 369 1050 z "},"Ř":{"ha":786,"x_min":31,"x_max":749,"o":"m 31 0 m 207 917 q 442 929 338 929 q 672 880 594 929 q 749 697 749 831 q 685 491 749 575 q 515 389 622 407 q 638 156 578 242 q 744 49 699 69 q 705 -8 735 10 q 636 -26 675 -26 q 528 20 574 -26 q 438 165 482 67 q 329 453 394 264 q 364 451 346 451 q 522 510 468 451 q 575 676 575 569 q 541 798 575 758 q 433 838 507 838 q 354 828 396 838 l 193 0 l 31 0 l 207 917 m 296 1110 l 351 1163 l 496 1090 l 676 1163 l 714 1108 l 488 961 l 479 961 l 296 1110 z "},"Ŗ":{"ha":786,"x_min":31,"x_max":749,"o":"m 31 0 m 207 917 q 442 929 338 929 q 672 880 594 929 q 749 697 749 831 q 685 491 749 575 q 515 389 622 407 q 638 156 578 242 q 744 49 699 69 q 705 -8 735 10 q 636 -26 675 -26 q 528 20 574 -26 q 438 165 482 67 q 329 453 394 264 q 364 451 346 451 q 522 510 468 451 q 575 676 575 569 q 541 798 575 758 q 433 838 507 838 q 354 828 396 838 l 193 0 l 31 0 l 207 917 m 425 -146 q 399 -231 425 -189 q 333 -301 374 -274 q 250 -329 292 -329 q 211 -314 226 -329 q 267 -222 249 -262 q 286 -135 286 -182 q 276 -83 286 -108 q 349 -68 306 -68 q 403 -87 382 -68 q 425 -146 425 -107 z "},"Ṛ":{"ha":786,"x_min":31,"x_max":749,"o":"m 31 0 m 207 917 q 442 929 338 929 q 672 880 594 929 q 749 697 749 831 q 685 491 749 575 q 515 389 622 407 q 638 156 578 242 q 744 49 699 69 q 705 -8 735 10 q 636 -26 675 -26 q 528 20 574 -26 q 438 165 482 67 q 329 453 394 264 q 364 451 346 451 q 522 510 468 451 q 575 676 575 569 q 541 798 575 758 q 433 838 507 838 q 354 828 396 838 l 193 0 l 31 0 l 207 917 m 336 -75 q 410 -97 382 -75 q 438 -161 438 -119 q 408 -227 438 -204 q 332 -250 378 -250 q 258 -228 286 -250 q 231 -164 231 -206 q 260 -98 231 -121 q 336 -75 290 -75 z "},"S":{"ha":701,"x_min":14,"x_max":671,"o":"m 450 944 q 611 904 551 944 q 671 781 671 864 q 633 676 671 713 q 544 639 594 639 q 478 657 504 639 q 493 708 488 679 q 499 760 499 738 q 473 831 499 804 q 401 857 447 857 q 310 819 346 857 q 275 725 275 782 q 315 617 275 663 q 432 515 354 572 q 526 438 490 472 q 588 356 563 404 q 614 247 614 308 q 567 101 614 164 q 441 3 519 38 q 272 -31 363 -31 q 89 17 164 -31 q 14 150 14 64 q 50 242 14 210 q 138 275 86 275 q 207 257 179 275 q 192 206 197 235 q 186 156 186 176 q 218 85 186 110 q 300 60 250 60 q 410 100 364 60 q 456 204 456 140 q 435 279 456 244 q 386 340 415 314 q 304 406 357 365 q 206 487 242 454 q 144 568 169 519 q 118 679 118 617 q 162 820 118 760 q 281 913 206 881 q 450 944 357 944 z "},"Ś":{"ha":701,"x_min":14,"x_max":718,"o":"m 14 0 m 450 944 q 611 904 551 944 q 671 781 671 864 q 633 676 671 713 q 544 639 594 639 q 478 657 504 639 q 493 708 488 679 q 499 760 499 738 q 473 831 499 804 q 401 857 447 857 q 310 819 346 857 q 275 725 275 782 q 315 617 275 663 q 432 515 354 572 q 526 438 490 472 q 588 356 563 404 q 614 247 614 308 q 567 101 614 164 q 441 3 519 38 q 272 -31 363 -31 q 89 17 164 -31 q 14 150 14 64 q 50 242 14 210 q 138 275 86 275 q 207 257 179 275 q 192 206 197 235 q 186 156 186 176 q 218 85 186 110 q 300 60 250 60 q 410 100 364 60 q 456 204 456 140 q 435 279 456 244 q 386 340 415 314 q 304 406 357 365 q 206 487 242 454 q 144 568 169 519 q 118 679 118 617 q 162 820 118 760 q 281 913 206 881 q 450 944 357 944 m 363 1050 l 688 1174 q 718 1111 718 1153 q 667 1026 718 1049 q 533 999 615 1003 l 374 990 l 363 1050 z "},"Š":{"ha":701,"x_min":14,"x_max":707,"o":"m 14 0 m 450 944 q 611 904 551 944 q 671 781 671 864 q 633 676 671 713 q 544 639 594 639 q 478 657 504 639 q 493 708 488 679 q 499 760 499 738 q 473 831 499 804 q 401 857 447 857 q 310 819 346 857 q 275 725 275 782 q 315 617 275 663 q 432 515 354 572 q 526 438 490 472 q 588 356 563 404 q 614 247 614 308 q 567 101 614 164 q 441 3 519 38 q 272 -31 363 -31 q 89 17 164 -31 q 14 150 14 64 q 50 242 14 210 q 138 275 86 275 q 207 257 179 275 q 192 206 197 235 q 186 156 186 176 q 218 85 186 110 q 300 60 250 60 q 410 100 364 60 q 456 204 456 140 q 435 279 456 244 q 386 340 415 314 q 304 406 357 365 q 206 487 242 454 q 144 568 169 519 q 118 679 118 617 q 162 820 118 760 q 281 913 206 881 q 450 944 357 944 m 289 1110 l 344 1163 l 489 1090 l 669 1163 l 707 1108 l 481 961 l 472 961 l 289 1110 z "},"Ş":{"ha":701,"x_min":14,"x_max":671,"o":"m 544 639 q 478 657 504 639 q 493 708 488 679 q 499 760 499 738 q 473 831 499 804 q 401 857 447 857 q 310 819 346 857 q 275 725 275 782 q 315 617 275 663 q 432 515 354 572 q 526 438 490 472 q 588 356 563 404 q 614 247 614 308 q 574 112 614 171 q 467 17 535 53 q 319 -28 400 -19 l 300 -92 q 356 -89 328 -89 q 454 -115 417 -89 q 492 -194 492 -140 q 432 -307 492 -262 q 283 -351 372 -351 q 197 -334 229 -351 q 164 -285 164 -317 q 186 -239 164 -256 q 274 -278 210 -278 q 346 -262 315 -278 q 376 -211 376 -247 q 267 -154 376 -154 q 215 -157 251 -154 l 253 -31 q 83 21 151 -26 q 14 150 14 68 q 50 242 14 210 q 138 275 86 275 q 207 257 179 275 q 192 206 197 235 q 186 156 186 176 q 218 85 186 110 q 300 60 250 60 q 410 100 364 60 q 456 204 456 140 q 435 279 456 244 q 386 340 415 314 q 304 406 357 365 q 206 487 242 454 q 144 568 169 519 q 118 679 118 617 q 162 820 118 760 q 281 913 206 881 q 450 944 357 944 q 611 904 551 944 q 671 781 671 864 q 633 676 671 713 q 544 639 594 639 z "},"Ŝ":{"ha":701,"x_min":14,"x_max":671,"o":"m 14 0 m 450 944 q 611 904 551 944 q 671 781 671 864 q 633 676 671 713 q 544 639 594 639 q 478 657 504 639 q 493 708 488 679 q 499 760 499 738 q 473 831 499 804 q 401 857 447 857 q 310 819 346 857 q 275 725 275 782 q 315 617 275 663 q 432 515 354 572 q 526 438 490 472 q 588 356 563 404 q 614 247 614 308 q 567 101 614 164 q 441 3 519 38 q 272 -31 363 -31 q 89 17 164 -31 q 14 150 14 64 q 50 242 14 210 q 138 275 86 275 q 207 257 179 275 q 192 206 197 235 q 186 156 186 176 q 218 85 186 110 q 300 60 250 60 q 410 100 364 60 q 456 204 456 140 q 435 279 456 244 q 386 340 415 314 q 304 406 357 365 q 206 487 242 454 q 144 568 169 519 q 118 679 118 617 q 162 820 118 760 q 281 913 206 881 q 450 944 357 944 m 671 1003 l 615 936 l 469 1036 l 289 936 l 251 1004 l 478 1165 l 488 1165 l 671 1003 z "},"Ș":{"ha":701,"x_min":14,"x_max":671,"o":"m 14 0 m 450 944 q 611 904 551 944 q 671 781 671 864 q 633 676 671 713 q 544 639 594 639 q 478 657 504 639 q 493 708 488 679 q 499 760 499 738 q 473 831 499 804 q 401 857 447 857 q 310 819 346 857 q 275 725 275 782 q 315 617 275 663 q 432 515 354 572 q 526 438 490 472 q 588 356 563 404 q 614 247 614 308 q 567 101 614 164 q 441 3 519 38 q 272 -31 363 -31 q 89 17 164 -31 q 14 150 14 64 q 50 242 14 210 q 138 275 86 275 q 207 257 179 275 q 192 206 197 235 q 186 156 186 176 q 218 85 186 110 q 300 60 250 60 q 410 100 364 60 q 456 204 456 140 q 435 279 456 244 q 386 340 415 314 q 304 406 357 365 q 206 487 242 454 q 144 568 169 519 q 118 679 118 617 q 162 820 118 760 q 281 913 206 881 q 450 944 357 944 m 372 -146 q 347 -231 372 -189 q 280 -301 321 -274 q 197 -329 239 -329 q 158 -314 174 -329 q 215 -222 196 -262 q 233 -135 233 -182 q 224 -83 233 -108 q 296 -68 253 -68 q 351 -87 329 -68 q 372 -146 372 -107 z "},"Ṣ":{"ha":701,"x_min":14,"x_max":671,"o":"m 14 0 m 450 944 q 611 904 551 944 q 671 781 671 864 q 633 676 671 713 q 544 639 594 639 q 478 657 504 639 q 493 708 488 679 q 499 760 499 738 q 473 831 499 804 q 401 857 447 857 q 310 819 346 857 q 275 725 275 782 q 315 617 275 663 q 432 515 354 572 q 526 438 490 472 q 588 356 563 404 q 614 247 614 308 q 567 101 614 164 q 441 3 519 38 q 272 -31 363 -31 q 89 17 164 -31 q 14 150 14 64 q 50 242 14 210 q 138 275 86 275 q 207 257 179 275 q 192 206 197 235 q 186 156 186 176 q 218 85 186 110 q 300 60 250 60 q 410 100 364 60 q 456 204 456 140 q 435 279 456 244 q 386 340 415 314 q 304 406 357 365 q 206 487 242 454 q 144 568 169 519 q 118 679 118 617 q 162 820 118 760 q 281 913 206 881 q 450 944 357 944 m 283 -75 q 357 -97 329 -75 q 385 -161 385 -119 q 355 -227 385 -204 q 279 -250 325 -250 q 206 -228 233 -250 q 178 -164 178 -206 q 208 -98 178 -121 q 283 -75 238 -75 z "},"ẞ":{"ha":992,"x_min":18,"x_max":946,"o":"m 107 458 q 280 831 157 717 q 601 944 403 944 q 808 908 721 944 q 946 806 894 872 q 740 687 800 746 q 681 578 681 628 q 703 517 681 543 q 778 451 726 492 q 852 389 824 417 q 901 320 881 361 q 922 225 922 279 q 876 88 922 146 q 756 0 831 31 q 593 -31 681 -31 q 410 17 483 -31 q 336 150 336 64 q 372 242 336 210 q 460 275 408 275 q 529 257 503 275 q 514 206 519 235 q 508 156 508 176 q 539 85 508 110 q 619 60 569 60 q 720 91 676 60 q 764 179 764 122 q 737 258 764 225 q 654 333 710 290 q 557 428 590 385 q 524 536 524 471 q 574 671 524 604 q 750 807 625 738 q 582 864 676 864 q 379 764 449 864 q 271 464 310 664 l 182 0 l 18 0 l 107 458 z "},"Ə":{"ha":775,"x_min":46,"x_max":735,"o":"m 261 -36 q 103 10 161 -36 q 46 163 46 57 q 101 334 46 263 q 251 442 157 406 q 458 479 346 479 q 551 475 489 479 q 560 592 560 540 q 526 756 560 703 q 408 810 493 810 q 281 773 338 810 q 192 669 224 736 q 169 693 176 675 q 161 732 161 711 q 201 833 163 785 q 310 913 240 882 q 467 944 379 944 q 669 859 604 944 q 735 594 735 774 q 680 292 735 438 q 517 56 625 147 q 261 -36 410 -36 m 300 50 q 409 104 360 50 q 492 239 458 158 q 542 403 525 319 q 384 377 460 403 q 260 298 308 351 q 213 164 213 244 q 300 50 213 50 z "},"T":{"ha":560,"x_min":61,"x_max":679,"o":"m 550 917 q 610 921 578 917 q 660 933 642 925 q 674 905 668 922 q 679 871 679 888 q 640 809 679 825 q 538 793 601 793 l 443 793 l 311 132 q 304 68 304 94 q 321 6 304 33 q 226 -28 279 -28 q 162 -4 181 -28 q 143 63 143 19 q 151 147 143 106 l 279 793 l 190 793 q 131 789 163 793 q 81 776 99 785 q 67 805 72 788 q 61 839 61 822 q 101 901 61 885 q 203 917 140 917 l 550 917 z "},"Ŧ":{"ha":564,"x_min":-3,"x_max":679,"o":"m 660 933 q 674 905 668 922 q 679 871 679 888 q 640 809 679 825 q 538 793 601 793 l 443 793 l 390 526 l 606 526 q 610 493 610 513 q 522 426 610 426 l 369 426 l 311 132 q 304 68 304 94 q 321 6 304 33 q 226 -28 279 -28 q 162 -4 181 -28 q 143 63 143 19 q 151 146 143 107 l 207 426 l 0 426 q -3 460 -3 438 q 75 526 0 526 l 226 526 l 279 793 l 190 793 q 131 789 163 793 q 81 776 99 785 q 67 805 72 788 q 61 839 61 822 q 101 901 61 885 q 203 917 140 917 l 550 917 q 610 921 578 917 q 660 933 642 925 z "},"Ť":{"ha":560,"x_min":61,"x_max":679,"o":"m 61 0 m 550 917 q 610 921 578 917 q 660 933 642 925 q 674 905 668 922 q 679 871 679 888 q 640 809 679 825 q 538 793 601 793 l 443 793 l 311 132 q 304 68 304 94 q 321 6 304 33 q 226 -28 279 -28 q 162 -4 181 -28 q 143 63 143 19 q 151 147 143 106 l 279 793 l 190 793 q 131 789 163 793 q 81 776 99 785 q 67 805 72 788 q 61 839 61 822 q 101 901 61 885 q 203 917 140 917 l 550 917 m 211 1110 l 267 1163 l 411 1090 l 592 1163 l 629 1108 l 403 961 l 394 961 l 211 1110 z "},"Ţ":{"ha":560,"x_min":61,"x_max":679,"o":"m 660 933 q 674 905 668 922 q 679 871 679 888 q 640 809 679 825 q 538 793 601 793 l 443 793 l 311 132 q 304 68 304 94 q 321 6 304 33 q 254 -25 290 -18 l 235 -92 q 290 -89 263 -89 q 389 -115 351 -89 q 426 -194 426 -140 q 367 -307 426 -262 q 218 -351 307 -351 q 131 -334 164 -351 q 99 -285 99 -317 q 121 -239 99 -256 q 208 -278 144 -278 q 281 -262 250 -278 q 311 -211 311 -247 q 201 -154 311 -154 q 150 -157 186 -154 l 190 -22 q 143 63 143 -8 q 151 147 143 106 l 279 793 l 190 793 q 131 789 163 793 q 81 776 99 785 q 67 805 72 788 q 61 839 61 822 q 101 901 61 885 q 203 917 140 917 l 550 917 q 610 921 578 917 q 660 933 642 925 z "},"Ț":{"ha":560,"x_min":61,"x_max":679,"o":"m 61 0 m 550 917 q 610 921 578 917 q 660 933 642 925 q 674 905 668 922 q 679 871 679 888 q 640 809 679 825 q 538 793 601 793 l 443 793 l 311 132 q 304 68 304 94 q 321 6 304 33 q 226 -28 279 -28 q 162 -4 181 -28 q 143 63 143 19 q 151 147 143 106 l 279 793 l 190 793 q 131 789 163 793 q 81 776 99 785 q 67 805 72 788 q 61 839 61 822 q 101 901 61 885 q 203 917 140 917 l 550 917 m 307 -146 q 281 -231 307 -189 q 215 -301 256 -274 q 132 -329 174 -329 q 93 -314 108 -329 q 149 -222 131 -262 q 168 -135 168 -182 q 158 -83 168 -108 q 231 -68 188 -68 q 285 -87 264 -68 q 307 -146 307 -107 z "},"Ṭ":{"ha":560,"x_min":61,"x_max":679,"o":"m 61 0 m 550 917 q 610 921 578 917 q 660 933 642 925 q 674 905 668 922 q 679 871 679 888 q 640 809 679 825 q 538 793 601 793 l 443 793 l 311 132 q 304 68 304 94 q 321 6 304 33 q 226 -28 279 -28 q 162 -4 181 -28 q 143 63 143 19 q 151 147 143 106 l 279 793 l 190 793 q 131 789 163 793 q 81 776 99 785 q 67 805 72 788 q 61 839 61 822 q 101 901 61 885 q 203 917 140 917 l 550 917 m 218 -75 q 292 -97 264 -75 q 319 -161 319 -119 q 290 -227 319 -204 q 214 -250 260 -250 q 140 -228 168 -250 q 113 -164 113 -206 q 142 -98 113 -121 q 218 -75 172 -75 z "},"U":{"ha":792,"x_min":58,"x_max":792,"o":"m 688 375 q 562 71 649 169 q 313 -28 475 -28 q 124 28 189 -28 q 58 192 58 83 q 78 350 58 253 l 188 917 l 351 917 l 242 335 q 224 199 224 238 q 256 110 224 142 q 346 78 288 78 q 482 153 439 78 q 549 363 525 229 l 646 917 l 792 917 l 688 375 z "},"Ú":{"ha":792,"x_min":58,"x_max":792,"o":"m 58 0 m 688 375 q 562 71 649 169 q 313 -28 475 -28 q 124 28 189 -28 q 58 192 58 83 q 78 350 58 253 l 188 917 l 351 917 l 242 335 q 224 199 224 238 q 256 110 224 142 q 346 78 288 78 q 482 153 439 78 q 549 363 525 229 l 646 917 l 792 917 l 688 375 m 429 1050 l 754 1174 q 785 1111 785 1153 q 733 1026 785 1049 q 600 999 682 1003 l 440 990 l 429 1050 z "},"Ŭ":{"ha":792,"x_min":58,"x_max":792,"o":"m 58 0 m 688 375 q 562 71 649 169 q 313 -28 475 -28 q 124 28 189 -28 q 58 192 58 83 q 78 350 58 253 l 188 917 l 351 917 l 242 335 q 224 199 224 238 q 256 110 224 142 q 346 78 288 78 q 482 153 439 78 q 549 363 525 229 l 646 917 l 792 917 l 688 375 m 492 1156 q 486 1115 486 1129 q 504 1060 486 1081 q 556 1039 522 1039 q 634 1076 600 1039 q 676 1156 668 1113 l 788 1156 q 706 1021 772 1071 q 542 971 640 971 q 411 1009 456 971 q 367 1117 367 1047 q 371 1156 367 1135 l 492 1156 z "},"Û":{"ha":792,"x_min":58,"x_max":792,"o":"m 58 0 m 688 375 q 562 71 649 169 q 313 -28 475 -28 q 124 28 189 -28 q 58 192 58 83 q 78 350 58 253 l 188 917 l 351 917 l 242 335 q 224 199 224 238 q 256 110 224 142 q 346 78 288 78 q 482 153 439 78 q 549 363 525 229 l 646 917 l 792 917 l 688 375 m 738 1003 l 682 936 l 536 1036 l 356 936 l 318 1004 l 544 1165 l 554 1165 l 738 1003 z "},"Ü":{"ha":792,"x_min":58,"x_max":797,"o":"m 58 0 m 688 375 q 562 71 649 169 q 313 -28 475 -28 q 124 28 189 -28 q 58 192 58 83 q 78 350 58 253 l 188 917 l 351 917 l 242 335 q 224 199 224 238 q 256 110 224 142 q 346 78 288 78 q 482 153 439 78 q 549 363 525 229 l 646 917 l 792 917 l 688 375 m 404 1185 q 478 1163 450 1185 q 507 1099 507 1140 q 476 1033 507 1056 q 400 1010 446 1010 q 326 1032 354 1010 q 299 1096 299 1054 q 328 1162 299 1139 q 404 1185 358 1185 m 694 1185 q 769 1163 740 1185 q 797 1099 797 1140 q 767 1033 797 1056 q 690 1010 736 1010 q 617 1032 644 1010 q 589 1096 589 1054 q 619 1162 589 1139 q 694 1185 649 1185 z "},"Ụ":{"ha":792,"x_min":58,"x_max":792,"o":"m 58 0 m 688 375 q 562 71 649 169 q 313 -28 475 -28 q 124 28 189 -28 q 58 192 58 83 q 78 350 58 253 l 188 917 l 351 917 l 242 335 q 224 199 224 238 q 256 110 224 142 q 346 78 288 78 q 482 153 439 78 q 549 363 525 229 l 646 917 l 792 917 l 688 375 m 268 -75 q 342 -97 314 -75 q 369 -161 369 -119 q 340 -227 369 -204 q 264 -250 310 -250 q 190 -228 218 -250 q 163 -164 163 -206 q 192 -98 163 -121 q 268 -75 222 -75 z "},"Ù":{"ha":792,"x_min":58,"x_max":792,"o":"m 58 0 m 688 375 q 562 71 649 169 q 313 -28 475 -28 q 124 28 189 -28 q 58 192 58 83 q 78 350 58 253 l 188 917 l 351 917 l 242 335 q 224 199 224 238 q 256 110 224 142 q 346 78 288 78 q 482 153 439 78 q 549 363 525 229 l 646 917 l 792 917 l 688 375 m 650 990 l 490 999 q 357 1026 408 1003 q 306 1111 306 1049 q 336 1174 306 1153 l 661 1050 l 650 990 z "},"Ű":{"ha":792,"x_min":58,"x_max":864,"o":"m 58 0 m 688 375 q 562 71 649 169 q 313 -28 475 -28 q 124 28 189 -28 q 58 192 58 83 q 78 350 58 253 l 188 917 l 351 917 l 242 335 q 224 199 224 238 q 256 110 224 142 q 346 78 288 78 q 482 153 439 78 q 549 363 525 229 l 646 917 l 792 917 l 688 375 m 576 1176 q 600 1147 592 1165 q 608 1108 608 1129 q 581 1042 608 1067 q 493 1004 553 1017 l 388 982 l 357 1028 l 576 1176 m 831 1176 q 864 1110 864 1154 q 837 1042 864 1067 q 750 1004 810 1017 l 642 982 l 613 1028 l 831 1176 z "},"Ū":{"ha":792,"x_min":58,"x_max":792,"o":"m 736 1133 q 740 1100 740 1119 q 716 1042 740 1064 q 646 1019 692 1019 l 353 1019 q 350 1053 350 1031 q 374 1112 351 1090 q 435 1133 397 1133 l 736 1133 m 688 375 q 562 71 649 169 q 313 -28 475 -28 q 124 28 189 -28 q 58 192 58 83 q 78 350 58 253 l 188 917 l 351 917 l 242 335 q 224 199 224 238 q 256 110 224 142 q 346 78 288 78 q 482 153 439 78 q 549 363 525 229 l 646 917 l 792 917 l 688 375 z "},"Ų":{"ha":792,"x_min":58,"x_max":792,"o":"m 792 917 l 688 375 q 615 147 661 236 q 493 15 568 58 l 493 14 q 397 -76 433 -21 q 360 -190 360 -132 q 378 -253 360 -233 q 442 -272 397 -272 q 483 -264 463 -272 q 514 -237 503 -256 q 536 -278 536 -254 q 503 -335 536 -311 q 418 -358 469 -358 q 301 -319 344 -358 q 258 -208 258 -279 q 283 -108 258 -154 q 351 -26 308 -61 q 313 -28 339 -28 q 124 28 189 -28 q 58 192 58 83 q 78 350 58 253 l 188 917 l 351 917 l 242 335 q 224 199 224 238 q 256 110 224 142 q 346 78 288 78 q 482 153 439 78 q 549 363 525 229 l 646 917 l 792 917 z "},"Ů":{"ha":792,"x_min":58,"x_max":792,"o":"m 58 0 m 688 375 q 562 71 649 169 q 313 -28 475 -28 q 124 28 189 -28 q 58 192 58 83 q 78 350 58 253 l 188 917 l 351 917 l 242 335 q 224 199 224 238 q 256 110 224 142 q 346 78 288 78 q 482 153 439 78 q 549 363 525 229 l 646 917 l 792 917 l 688 375 m 696 1093 q 646 996 696 1033 q 532 958 596 958 q 443 983 475 958 q 411 1053 411 1007 q 460 1151 411 1114 q 572 1188 508 1188 q 663 1163 629 1188 q 696 1093 696 1138 m 613 1089 q 599 1126 613 1113 q 558 1139 585 1139 q 512 1113 532 1139 q 492 1051 492 1088 q 540 1003 492 1003 q 590 1028 567 1003 q 613 1089 613 1054 z "},"Ũ":{"ha":792,"x_min":58,"x_max":792,"o":"m 58 0 m 688 375 q 562 71 649 169 q 313 -28 475 -28 q 124 28 189 -28 q 58 192 58 83 q 78 350 58 253 l 188 917 l 351 917 l 242 335 q 224 199 224 238 q 256 110 224 142 q 346 78 288 78 q 482 153 439 78 q 549 363 525 229 l 646 917 l 792 917 l 688 375 m 754 1147 q 776 1090 776 1121 q 747 1028 776 1050 q 669 1007 718 1007 q 553 1018 642 1007 q 439 1029 467 1029 q 361 1008 388 1029 q 338 1072 338 1043 q 367 1128 338 1108 q 449 1147 396 1147 q 569 1136 481 1147 q 685 1125 656 1125 q 754 1147 738 1125 z "},"V":{"ha":679,"x_min":44,"x_max":783,"o":"m 99 744 q 44 874 93 840 q 80 924 53 906 q 142 943 107 943 q 253 785 243 943 l 293 111 l 624 917 l 783 917 l 363 0 l 144 0 l 99 744 z "},"W":{"ha":1117,"x_min":44,"x_max":1221,"o":"m 99 744 q 44 874 93 840 q 80 924 53 906 q 142 943 107 943 q 253 785 243 943 l 293 111 l 599 917 l 708 917 l 756 111 l 1061 917 l 1221 917 l 825 0 l 608 0 l 583 574 l 363 0 l 144 0 l 99 744 z "},"Ẃ":{"ha":1117,"x_min":44,"x_max":1221,"o":"m 44 0 m 99 744 q 44 874 93 840 q 80 924 53 906 q 142 943 107 943 q 253 785 243 943 l 293 111 l 599 917 l 708 917 l 756 111 l 1061 917 l 1221 917 l 825 0 l 608 0 l 583 574 l 363 0 l 144 0 l 99 744 m 567 1050 l 892 1174 q 922 1111 922 1153 q 871 1026 922 1049 q 738 999 819 1003 l 578 990 l 567 1050 z "},"Ŵ":{"ha":1117,"x_min":44,"x_max":1221,"o":"m 44 0 m 99 744 q 44 874 93 840 q 80 924 53 906 q 142 943 107 943 q 253 785 243 943 l 293 111 l 599 917 l 708 917 l 756 111 l 1061 917 l 1221 917 l 825 0 l 608 0 l 583 574 l 363 0 l 144 0 l 99 744 m 875 1003 l 819 936 l 674 1036 l 493 936 l 456 1004 l 682 1165 l 692 1165 l 875 1003 z "},"Ẅ":{"ha":1117,"x_min":44,"x_max":1221,"o":"m 44 0 m 99 744 q 44 874 93 840 q 80 924 53 906 q 142 943 107 943 q 253 785 243 943 l 293 111 l 599 917 l 708 917 l 756 111 l 1061 917 l 1221 917 l 825 0 l 608 0 l 583 574 l 363 0 l 144 0 l 99 744 m 542 1185 q 616 1163 588 1185 q 644 1099 644 1140 q 614 1033 644 1056 q 538 1010 583 1010 q 464 1032 492 1010 q 436 1096 436 1054 q 466 1162 436 1139 q 542 1185 496 1185 m 832 1185 q 906 1163 878 1185 q 935 1099 935 1140 q 904 1033 935 1056 q 828 1010 874 1010 q 754 1032 782 1010 q 726 1096 726 1054 q 756 1162 726 1139 q 832 1185 786 1185 z "},"Ẁ":{"ha":1117,"x_min":44,"x_max":1221,"o":"m 44 0 m 99 744 q 44 874 93 840 q 80 924 53 906 q 142 943 107 943 q 253 785 243 943 l 293 111 l 599 917 l 708 917 l 756 111 l 1061 917 l 1221 917 l 825 0 l 608 0 l 583 574 l 363 0 l 144 0 l 99 744 m 788 990 l 628 999 q 494 1026 546 1003 q 443 1111 443 1049 q 474 1174 443 1153 l 799 1050 l 788 990 z "},"X":{"ha":724,"x_min":-72,"x_max":797,"o":"m 165 747 q 124 826 149 790 q 71 869 99 863 q 111 924 82 904 q 181 943 140 943 q 266 907 236 943 q 322 801 296 871 l 401 588 l 636 917 l 797 917 l 450 458 l 560 168 q 601 89 576 125 q 654 46 626 53 q 613 -8 643 11 q 543 -28 583 -28 q 458 8 488 -28 q 401 114 429 44 l 315 344 l 88 0 l -72 0 l 267 474 l 165 747 z "},"Y":{"ha":521,"x_min":-8,"x_max":676,"o":"m 289 554 q 447 840 376 756 q 592 925 517 925 q 647 910 625 925 q 676 865 669 894 q 497 694 585 807 q 338 428 408 581 l 257 0 l 89 0 l 178 446 q 85 728 133 628 q -8 850 38 829 q 31 906 1 886 q 101 925 60 925 q 176 899 147 925 q 226 815 206 874 q 271 642 247 756 l 289 554 z "},"Ý":{"ha":521,"x_min":-8,"x_max":676,"o":"m 0 0 m 289 554 q 447 840 376 756 q 592 925 517 925 q 647 910 625 925 q 676 865 669 894 q 497 694 585 807 q 338 428 408 581 l 257 0 l 89 0 l 178 446 q 85 728 133 628 q -8 850 38 829 q 31 906 1 886 q 101 925 60 925 q 176 899 147 925 q 226 815 206 874 q 271 642 247 756 l 289 554 m 261 1050 l 586 1174 q 617 1111 617 1153 q 565 1026 617 1049 q 432 999 514 1003 l 272 990 l 261 1050 z "},"Ŷ":{"ha":521,"x_min":-8,"x_max":676,"o":"m 0 0 m 289 554 q 447 840 376 756 q 592 925 517 925 q 647 910 625 925 q 676 865 669 894 q 497 694 585 807 q 338 428 408 581 l 257 0 l 89 0 l 178 446 q 85 728 133 628 q -8 850 38 829 q 31 906 1 886 q 101 925 60 925 q 176 899 147 925 q 226 815 206 874 q 271 642 247 756 l 289 554 m 569 1003 l 514 936 l 368 1036 l 188 936 l 150 1004 l 376 1165 l 386 1165 l 569 1003 z "},"Ÿ":{"ha":521,"x_min":-8,"x_max":676,"o":"m 0 0 m 289 554 q 447 840 376 756 q 592 925 517 925 q 647 910 625 925 q 676 865 669 894 q 497 694 585 807 q 338 428 408 581 l 257 0 l 89 0 l 178 446 q 85 728 133 628 q -8 850 38 829 q 31 906 1 886 q 101 925 60 925 q 176 899 147 925 q 226 815 206 874 q 271 642 247 756 l 289 554 m 236 1185 q 310 1163 282 1185 q 339 1099 339 1140 q 308 1033 339 1056 q 232 1010 278 1010 q 158 1032 186 1010 q 131 1096 131 1054 q 160 1162 131 1139 q 236 1185 190 1185 m 526 1185 q 601 1163 572 1185 q 629 1099 629 1140 q 599 1033 629 1056 q 522 1010 568 1010 q 449 1032 476 1010 q 421 1096 421 1054 q 451 1162 421 1139 q 526 1185 481 1185 z "},"Ỳ":{"ha":521,"x_min":-8,"x_max":676,"o":"m 0 0 m 289 554 q 447 840 376 756 q 592 925 517 925 q 647 910 625 925 q 676 865 669 894 q 497 694 585 807 q 338 428 408 581 l 257 0 l 89 0 l 178 446 q 85 728 133 628 q -8 850 38 829 q 31 906 1 886 q 101 925 60 925 q 176 899 147 925 q 226 815 206 874 q 271 642 247 756 l 289 554 m 482 990 l 322 999 q 189 1026 240 1003 q 138 1111 138 1049 q 168 1174 138 1153 l 493 1050 l 482 990 z "},"Ỹ":{"ha":521,"x_min":-8,"x_max":676,"o":"m 0 0 m 289 554 q 447 840 376 756 q 592 925 517 925 q 647 910 625 925 q 676 865 669 894 q 497 694 585 807 q 338 428 408 581 l 257 0 l 89 0 l 178 446 q 85 728 133 628 q -8 850 38 829 q 31 906 1 886 q 101 925 60 925 q 176 899 147 925 q 226 815 206 874 q 271 642 247 756 l 289 554 m 586 1147 q 608 1090 608 1121 q 579 1028 608 1050 q 501 1007 550 1007 q 385 1018 474 1007 q 271 1029 299 1029 q 193 1008 219 1029 q 169 1072 169 1043 q 199 1128 169 1108 q 281 1147 228 1147 q 401 1136 313 1147 q 517 1125 488 1125 q 586 1147 569 1125 z "},"Z":{"ha":624,"x_min":-46,"x_max":681,"o":"m 479 771 q 251 796 351 796 q 164 789 199 796 q 101 765 129 782 q 83 836 83 797 q 236 938 83 938 q 400 918 294 938 q 547 900 493 900 q 646 917 606 900 q 671 882 661 904 q 681 839 681 860 q 661 783 681 806 l 158 146 q 397 121 283 121 q 485 128 450 121 q 547 151 519 135 q 565 82 565 119 q 524 2 565 25 q 411 -21 482 -21 q 240 -1 354 -21 q 86 17 140 17 q -11 0 29 17 q -36 35 -26 13 q -46 79 -46 57 q -22 140 -46 114 l 479 771 z "},"Ź":{"ha":624,"x_min":-46,"x_max":681,"o":"m 0 0 m 479 771 q 251 796 351 796 q 164 789 199 796 q 101 765 129 782 q 83 836 83 797 q 236 938 83 938 q 400 918 294 938 q 547 900 493 900 q 646 917 606 900 q 671 882 661 904 q 681 839 681 860 q 661 783 681 806 l 158 146 q 397 121 283 121 q 485 128 450 121 q 547 151 519 135 q 565 82 565 119 q 524 2 565 25 q 411 -21 482 -21 q 240 -1 354 -21 q 86 17 140 17 q -11 0 29 17 q -36 35 -26 13 q -46 79 -46 57 q -22 140 -46 114 l 479 771 m 282 1050 l 607 1174 q 638 1111 638 1153 q 586 1026 638 1049 q 453 999 535 1003 l 293 990 l 282 1050 z "},"Ž":{"ha":624,"x_min":-46,"x_max":681,"o":"m 0 0 m 479 771 q 251 796 351 796 q 164 789 199 796 q 101 765 129 782 q 83 836 83 797 q 236 938 83 938 q 400 918 294 938 q 547 900 493 900 q 646 917 606 900 q 671 882 661 904 q 681 839 681 860 q 661 783 681 806 l 158 146 q 397 121 283 121 q 485 128 450 121 q 547 151 519 135 q 565 82 565 119 q 524 2 565 25 q 411 -21 482 -21 q 240 -1 354 -21 q 86 17 140 17 q -11 0 29 17 q -36 35 -26 13 q -46 79 -46 57 q -22 140 -46 114 l 479 771 m 208 1110 l 264 1163 l 408 1090 l 589 1163 l 626 1108 l 400 961 l 392 961 l 208 1110 z "},"Ż":{"ha":624,"x_min":-46,"x_max":681,"o":"m 399 1185 q 473 1163 444 1185 q 501 1099 501 1140 q 471 1033 501 1056 q 394 1010 440 1010 q 321 1032 349 1010 q 293 1096 293 1054 q 323 1162 293 1139 q 399 1185 353 1185 m 479 771 q 251 796 351 796 q 164 789 199 796 q 101 765 129 782 q 83 836 83 797 q 236 938 83 938 q 400 918 294 938 q 547 900 493 900 q 646 917 606 900 q 671 882 661 904 q 681 839 681 860 q 661 783 681 806 l 158 146 q 397 121 283 121 q 485 128 450 121 q 547 151 519 135 q 565 82 565 119 q 524 2 565 25 q 411 -21 482 -21 q 240 -1 354 -21 q 86 17 140 17 q -11 0 29 17 q -36 35 -26 13 q -46 79 -46 57 q -22 140 -46 114 l 479 771 z "},"Ẓ":{"ha":624,"x_min":-46,"x_max":681,"o":"m 0 0 m 479 771 q 251 796 351 796 q 164 789 199 796 q 101 765 129 782 q 83 836 83 797 q 236 938 83 938 q 400 918 294 938 q 547 900 493 900 q 646 917 606 900 q 671 882 661 904 q 681 839 681 860 q 661 783 681 806 l 158 146 q 397 121 283 121 q 485 128 450 121 q 547 151 519 135 q 565 82 565 119 q 524 2 565 25 q 411 -21 482 -21 q 240 -1 354 -21 q 86 17 140 17 q -11 0 29 17 q -36 35 -26 13 q -46 79 -46 57 q -22 140 -46 114 l 479 771 m 240 -75 q 314 -97 286 -75 q 342 -161 342 -119 q 312 -227 342 -204 q 236 -250 282 -250 q 163 -228 190 -250 q 135 -164 135 -206 q 165 -98 135 -121 q 240 -75 194 -75 z "},"a":{"ha":735,"x_min":38,"x_max":701,"o":"m 590 144 q 583 86 583 103 q 625 38 583 42 q 588 -11 617 6 q 524 -28 560 -28 q 459 -7 485 -28 q 429 51 433 14 q 350 -8 401 11 q 240 -28 299 -28 q 85 38 133 -28 q 38 232 38 104 q 79 472 38 357 q 208 662 121 588 q 422 736 294 736 q 491 729 460 736 q 563 707 522 722 l 701 725 l 590 144 m 525 610 q 467 642 500 631 q 406 653 435 653 q 293 590 333 653 q 229 429 253 528 q 206 310 215 375 q 197 201 197 246 q 221 95 197 135 q 296 56 244 56 q 407 122 367 56 q 464 279 447 188 l 525 610 z "},"á":{"ha":735,"x_min":38,"x_max":715,"o":"m 38 0 m 590 144 q 583 86 583 103 q 625 38 583 42 q 588 -11 617 6 q 524 -28 560 -28 q 459 -7 485 -28 q 429 51 433 14 q 350 -8 401 11 q 240 -28 299 -28 q 85 38 133 -28 q 38 232 38 104 q 79 472 38 357 q 208 662 121 588 q 422 736 294 736 q 491 729 460 736 q 563 707 522 722 l 701 725 l 590 144 m 525 610 q 467 642 500 631 q 406 653 435 653 q 293 590 333 653 q 229 429 253 528 q 206 310 215 375 q 197 201 197 246 q 221 95 197 135 q 296 56 244 56 q 407 122 367 56 q 464 279 447 188 l 525 610 m 669 1068 q 704 1038 693 1060 q 715 990 715 1015 q 673 912 715 939 q 554 864 631 885 l 400 822 l 376 879 l 669 1068 z "},"ă":{"ha":735,"x_min":38,"x_max":758,"o":"m 38 0 m 590 144 q 583 86 583 103 q 625 38 583 42 q 588 -11 617 6 q 524 -28 560 -28 q 459 -7 485 -28 q 429 51 433 14 q 350 -8 401 11 q 240 -28 299 -28 q 85 38 133 -28 q 38 232 38 104 q 79 472 38 357 q 208 662 121 588 q 422 736 294 736 q 491 729 460 736 q 563 707 522 722 l 701 725 l 590 144 m 525 610 q 467 642 500 631 q 406 653 435 653 q 293 590 333 653 q 229 429 253 528 q 206 310 215 375 q 197 201 197 246 q 221 95 197 135 q 296 56 244 56 q 407 122 367 56 q 464 279 447 188 l 525 610 m 461 1015 q 456 975 456 989 q 474 919 456 940 q 525 899 492 899 q 603 935 569 899 q 646 1015 638 972 l 758 1015 q 677 881 743 931 q 511 831 611 831 q 381 869 425 831 q 338 976 338 907 q 342 1015 338 994 l 461 1015 z "},"â":{"ha":735,"x_min":38,"x_max":739,"o":"m 38 0 m 590 144 q 583 86 583 103 q 625 38 583 42 q 588 -11 617 6 q 524 -28 560 -28 q 459 -7 485 -28 q 429 51 433 14 q 350 -8 401 11 q 240 -28 299 -28 q 85 38 133 -28 q 38 232 38 104 q 79 472 38 357 q 208 662 121 588 q 422 736 294 736 q 491 729 460 736 q 563 707 522 722 l 701 725 l 590 144 m 525 610 q 467 642 500 631 q 406 653 435 653 q 293 590 333 653 q 229 429 253 528 q 206 310 215 375 q 197 201 197 246 q 221 95 197 135 q 296 56 244 56 q 407 122 367 56 q 464 279 447 188 l 525 610 m 739 872 l 683 806 l 538 906 l 357 806 l 319 874 l 546 1035 l 556 1035 l 739 872 z "},"ä":{"ha":735,"x_min":38,"x_max":775,"o":"m 38 0 m 590 144 q 583 86 583 103 q 625 38 583 42 q 588 -11 617 6 q 524 -28 560 -28 q 459 -7 485 -28 q 429 51 433 14 q 350 -8 401 11 q 240 -28 299 -28 q 85 38 133 -28 q 38 232 38 104 q 79 472 38 357 q 208 662 121 588 q 422 736 294 736 q 491 729 460 736 q 563 707 522 722 l 701 725 l 590 144 m 525 610 q 467 642 500 631 q 406 653 435 653 q 293 590 333 653 q 229 429 253 528 q 206 310 215 375 q 197 201 197 246 q 221 95 197 135 q 296 56 244 56 q 407 122 367 56 q 464 279 447 188 l 525 610 m 674 1006 q 747 983 719 1006 q 775 919 775 961 q 745 853 775 876 q 669 831 715 831 q 596 853 624 831 q 568 917 568 875 q 598 983 568 960 q 674 1006 628 1006 m 390 1006 q 464 983 436 1006 q 492 919 492 961 q 462 853 492 876 q 386 831 432 831 q 313 853 340 831 q 285 917 285 875 q 315 983 285 960 q 390 1006 344 1006 z "},"à":{"ha":735,"x_min":38,"x_max":701,"o":"m 38 0 m 590 144 q 583 86 583 103 q 625 38 583 42 q 588 -11 617 6 q 524 -28 560 -28 q 459 -7 485 -28 q 429 51 433 14 q 350 -8 401 11 q 240 -28 299 -28 q 85 38 133 -28 q 38 232 38 104 q 79 472 38 357 q 208 662 121 588 q 422 736 294 736 q 491 729 460 736 q 563 707 522 722 l 701 725 l 590 144 m 525 610 q 467 642 500 631 q 406 653 435 653 q 293 590 333 653 q 229 429 253 528 q 206 310 215 375 q 197 201 197 246 q 221 95 197 135 q 296 56 244 56 q 407 122 367 56 q 464 279 447 188 l 525 610 m 436 864 q 318 912 360 885 q 276 990 276 939 q 288 1038 276 1015 q 321 1068 299 1060 l 615 879 l 592 822 l 436 864 z "},"ā":{"ha":735,"x_min":38,"x_max":739,"o":"m 38 0 m 590 144 q 583 86 583 103 q 625 38 583 42 q 588 -11 617 6 q 524 -28 560 -28 q 459 -7 485 -28 q 429 51 433 14 q 350 -8 401 11 q 240 -28 299 -28 q 85 38 133 -28 q 38 232 38 104 q 79 472 38 357 q 208 662 121 588 q 422 736 294 736 q 491 729 460 736 q 563 707 522 722 l 701 725 l 590 144 m 525 610 q 467 642 500 631 q 406 653 435 653 q 293 590 333 653 q 229 429 253 528 q 206 310 215 375 q 197 201 197 246 q 221 95 197 135 q 296 56 244 56 q 407 122 367 56 q 464 279 447 188 l 525 610 m 735 967 q 739 933 739 953 q 715 874 739 896 q 643 853 690 853 l 350 853 q 347 886 347 864 q 372 945 349 924 q 432 967 394 967 l 735 967 z "},"ą":{"ha":735,"x_min":38,"x_max":701,"o":"m 636 -237 q 658 -278 658 -254 q 625 -335 658 -311 q 540 -358 592 -358 q 424 -319 467 -358 q 381 -208 381 -279 q 408 -104 381 -153 q 481 -21 436 -56 q 429 51 435 0 q 350 -8 401 11 q 240 -28 299 -28 q 85 38 133 -28 q 38 232 38 104 q 79 472 38 357 q 208 662 121 588 q 422 736 294 736 q 491 729 460 736 q 563 707 522 722 l 701 725 l 590 144 q 583 86 583 103 q 625 38 583 42 q 615 15 621 24 l 615 14 q 615 14 615 14 q 614 13 614 14 q 567 -21 597 -10 q 505 -101 528 -56 q 482 -190 482 -146 q 501 -253 482 -233 q 564 -272 519 -272 q 605 -264 585 -272 q 636 -237 625 -256 m 296 56 q 407 122 367 56 q 464 279 447 188 l 525 610 q 467 642 500 631 q 406 653 435 653 q 293 590 333 653 q 229 429 253 528 q 206 310 215 375 q 197 201 197 246 q 221 95 197 135 q 296 56 244 56 z "},"å":{"ha":735,"x_min":38,"x_max":701,"o":"m 38 0 m 590 144 q 583 86 583 103 q 625 38 583 42 q 588 -11 617 6 q 524 -28 560 -28 q 459 -7 485 -28 q 429 51 433 14 q 350 -8 401 11 q 240 -28 299 -28 q 85 38 133 -28 q 38 232 38 104 q 79 472 38 357 q 208 662 121 588 q 422 736 294 736 q 491 729 460 736 q 563 707 522 722 l 701 725 l 590 144 m 525 610 q 467 642 500 631 q 406 653 435 653 q 293 590 333 653 q 229 429 253 528 q 206 310 215 375 q 197 201 197 246 q 221 95 197 135 q 296 56 244 56 q 407 122 367 56 q 464 279 447 188 l 525 610 m 493 789 q 403 817 435 789 q 372 900 372 846 q 423 1013 372 971 q 549 1056 474 1056 q 640 1027 607 1056 q 672 944 672 999 q 620 831 672 874 q 493 789 568 789 m 503 833 q 563 865 538 833 q 588 940 588 897 q 574 989 588 971 q 533 1007 560 1007 q 476 975 499 1007 q 454 899 454 943 q 503 833 454 833 z "},"ǻ":{"ha":735,"x_min":38,"x_max":763,"o":"m 407 1139 l 732 1263 q 763 1200 763 1242 q 711 1115 763 1138 q 578 1088 660 1092 l 418 1079 l 407 1139 m 493 775 q 403 803 435 775 q 372 886 372 832 q 423 999 372 957 q 549 1042 474 1042 q 640 1013 607 1042 q 672 931 672 985 q 620 817 672 860 q 493 775 568 775 m 503 819 q 563 851 538 819 q 588 926 588 883 q 574 975 588 957 q 533 993 560 993 q 476 961 499 993 q 454 885 454 929 q 503 819 454 819 m 590 144 q 583 86 583 103 q 625 38 583 42 q 588 -11 617 6 q 524 -28 560 -28 q 459 -7 485 -28 q 429 51 433 14 q 350 -8 401 11 q 240 -28 299 -28 q 85 38 133 -28 q 38 232 38 104 q 79 472 38 357 q 208 662 121 588 q 422 736 294 736 q 491 729 460 736 q 563 707 522 722 l 701 725 l 590 144 m 525 610 q 467 642 500 631 q 406 653 435 653 q 293 590 333 653 q 229 429 253 528 q 206 310 215 375 q 197 201 197 246 q 221 95 197 135 q 296 56 244 56 q 407 122 367 56 q 464 279 447 188 l 525 610 z "},"ã":{"ha":735,"x_min":38,"x_max":746,"o":"m 38 0 m 590 144 q 583 86 583 103 q 625 38 583 42 q 588 -11 617 6 q 524 -28 560 -28 q 459 -7 485 -28 q 429 51 433 14 q 350 -8 401 11 q 240 -28 299 -28 q 85 38 133 -28 q 38 232 38 104 q 79 472 38 357 q 208 662 121 588 q 422 736 294 736 q 491 729 460 736 q 563 707 522 722 l 701 725 l 590 144 m 525 610 q 467 642 500 631 q 406 653 435 653 q 293 590 333 653 q 229 429 253 528 q 206 310 215 375 q 197 201 197 246 q 221 95 197 135 q 296 56 244 56 q 407 122 367 56 q 464 279 447 188 l 525 610 m 724 1000 q 746 943 746 974 q 717 881 746 903 q 639 860 688 860 q 524 871 613 860 q 408 882 438 882 q 331 861 357 882 q 307 925 307 896 q 336 981 307 961 q 419 1000 365 1000 q 539 989 453 1000 q 654 978 625 978 q 724 1000 707 978 z "},"æ":{"ha":1021,"x_min":36,"x_max":1040,"o":"m 846 736 q 1040 579 1040 736 q 994 444 1040 500 q 867 358 947 388 q 690 329 788 329 q 614 332 650 329 q 610 249 610 286 q 639 128 610 168 q 739 88 668 88 q 846 116 799 88 q 919 197 893 144 q 944 178 936 193 q 953 142 953 163 q 919 61 953 100 q 828 -3 886 22 q 696 -28 769 -28 q 565 0 622 -28 q 481 81 508 28 q 373 0 431 28 q 243 -28 315 -28 q 85 37 133 -28 q 36 228 36 101 q 78 469 36 351 q 205 661 119 586 q 414 736 290 736 q 636 672 524 736 q 846 736 724 736 m 818 657 q 693 577 744 657 q 624 400 642 497 q 810 444 731 400 q 889 576 889 489 q 818 657 889 657 m 524 610 q 466 642 499 631 q 404 653 433 653 q 292 590 332 653 q 228 429 251 528 q 205 310 214 375 q 196 201 196 246 q 219 95 196 135 q 294 56 243 56 q 406 122 365 56 q 463 279 446 188 l 524 610 z "},"ǽ":{"ha":1021,"x_min":36,"x_max":1040,"o":"m 36 0 m 846 736 q 1040 579 1040 736 q 994 444 1040 500 q 867 358 947 388 q 690 329 788 329 q 614 332 650 329 q 610 249 610 286 q 639 128 610 168 q 739 88 668 88 q 846 116 799 88 q 919 197 893 144 q 944 178 936 193 q 953 142 953 163 q 919 61 953 100 q 828 -3 886 22 q 696 -28 769 -28 q 565 0 622 -28 q 481 81 508 28 q 373 0 431 28 q 243 -28 315 -28 q 85 37 133 -28 q 36 228 36 101 q 78 469 36 351 q 205 661 119 586 q 414 736 290 736 q 636 672 524 736 q 846 736 724 736 m 818 657 q 693 577 744 657 q 624 400 642 497 q 810 444 731 400 q 889 576 889 489 q 818 657 889 657 m 524 610 q 466 642 499 631 q 404 653 433 653 q 292 590 332 653 q 228 429 251 528 q 205 310 214 375 q 196 201 196 246 q 219 95 196 135 q 294 56 243 56 q 406 122 365 56 q 463 279 446 188 l 524 610 m 801 1068 q 836 1038 825 1060 q 847 990 847 1015 q 805 912 847 939 q 686 864 763 885 l 532 822 l 508 879 l 801 1068 z "},"b":{"ha":708,"x_min":18,"x_max":674,"o":"m 325 832 q 299 712 314 772 q 269 615 283 651 q 364 705 307 674 q 489 736 421 736 q 631 670 589 736 q 674 485 674 604 q 631 240 674 357 q 502 47 589 122 q 290 -28 415 -28 q 145 -9 225 -28 q 18 42 65 10 l 199 972 l 356 989 l 325 832 m 183 97 q 242 67 210 78 q 303 56 275 56 q 417 117 376 56 q 482 279 458 178 q 504 397 494 333 q 514 506 514 461 q 493 597 514 565 q 424 629 472 629 q 303 557 349 629 q 238 386 257 485 l 183 97 z "},"c":{"ha":610,"x_min":38,"x_max":624,"o":"m 428 736 q 570 699 517 736 q 624 590 624 661 q 590 501 624 532 q 508 469 556 469 q 450 489 468 469 q 464 537 458 510 q 469 583 469 564 q 453 635 469 617 q 403 654 436 654 q 293 587 340 654 q 222 424 246 519 q 197 253 197 329 q 324 88 197 88 q 428 124 383 88 q 493 221 472 161 q 540 150 540 207 q 506 61 540 101 q 412 -3 472 21 q 278 -28 351 -28 q 38 247 38 -28 q 83 483 38 371 q 216 666 128 596 q 428 736 304 736 z "},"ć":{"ha":610,"x_min":38,"x_max":650,"o":"m 38 0 m 428 736 q 570 699 517 736 q 624 590 624 661 q 590 501 624 532 q 508 469 556 469 q 450 489 468 469 q 464 537 458 510 q 469 583 469 564 q 453 635 469 617 q 403 654 436 654 q 293 587 340 654 q 222 424 246 519 q 197 253 197 329 q 324 88 197 88 q 428 124 383 88 q 493 221 472 161 q 540 150 540 207 q 506 61 540 101 q 412 -3 472 21 q 278 -28 351 -28 q 38 247 38 -28 q 83 483 38 371 q 216 666 128 596 q 428 736 304 736 m 604 1068 q 639 1038 628 1060 q 650 990 650 1015 q 608 912 650 939 q 489 864 565 885 l 335 822 l 311 879 l 604 1068 z "},"č":{"ha":610,"x_min":38,"x_max":685,"o":"m 38 0 m 428 736 q 570 699 517 736 q 624 590 624 661 q 590 501 624 532 q 508 469 556 469 q 450 489 468 469 q 464 537 458 510 q 469 583 469 564 q 453 635 469 617 q 403 654 436 654 q 293 587 340 654 q 222 424 246 519 q 197 253 197 329 q 324 88 197 88 q 428 124 383 88 q 493 221 472 161 q 540 150 540 207 q 506 61 540 101 q 412 -3 472 21 q 278 -28 351 -28 q 38 247 38 -28 q 83 483 38 371 q 216 666 128 596 q 428 736 304 736 m 267 983 l 322 1050 l 467 964 l 647 1050 l 685 982 l 458 821 l 450 821 l 267 983 z "},"ç":{"ha":610,"x_min":38,"x_max":624,"o":"m 508 469 q 450 489 468 469 q 464 537 458 510 q 469 583 469 564 q 453 635 469 617 q 403 654 436 654 q 293 587 340 654 q 222 424 246 519 q 197 253 197 329 q 324 88 197 88 q 428 124 383 88 q 493 221 472 161 q 540 150 540 207 q 477 33 540 83 q 315 -26 414 -17 l 296 -92 q 351 -89 324 -89 q 450 -115 413 -89 q 488 -194 488 -140 q 428 -307 488 -262 q 279 -351 368 -351 q 192 -334 225 -351 q 160 -285 160 -317 q 182 -239 160 -256 q 269 -278 206 -278 q 342 -262 311 -278 q 372 -211 372 -247 q 263 -154 372 -154 q 211 -157 247 -154 l 250 -26 q 38 247 38 -12 q 83 483 38 371 q 216 666 128 596 q 428 736 304 736 q 570 699 517 736 q 624 590 624 661 q 590 501 624 532 q 508 469 556 469 z "},"ĉ":{"ha":610,"x_min":38,"x_max":674,"o":"m 38 0 m 428 736 q 570 699 517 736 q 624 590 624 661 q 590 501 624 532 q 508 469 556 469 q 450 489 468 469 q 464 537 458 510 q 469 583 469 564 q 453 635 469 617 q 403 654 436 654 q 293 587 340 654 q 222 424 246 519 q 197 253 197 329 q 324 88 197 88 q 428 124 383 88 q 493 221 472 161 q 540 150 540 207 q 506 61 540 101 q 412 -3 472 21 q 278 -28 351 -28 q 38 247 38 -28 q 83 483 38 371 q 216 666 128 596 q 428 736 304 736 m 674 872 l 618 806 l 472 906 l 292 806 l 254 874 l 481 1035 l 490 1035 l 674 872 z "},"ċ":{"ha":610,"x_min":38,"x_max":624,"o":"m 38 0 m 428 736 q 570 699 517 736 q 624 590 624 661 q 590 501 624 532 q 508 469 556 469 q 450 489 468 469 q 464 537 458 510 q 469 583 469 564 q 453 635 469 617 q 403 654 436 654 q 293 587 340 654 q 222 424 246 519 q 197 253 197 329 q 324 88 197 88 q 428 124 383 88 q 493 221 472 161 q 540 150 540 207 q 506 61 540 101 q 412 -3 472 21 q 278 -28 351 -28 q 38 247 38 -28 q 83 483 38 371 q 216 666 128 596 q 428 736 304 736 m 450 1006 q 524 983 496 1006 q 551 919 551 961 q 522 853 551 876 q 446 831 492 831 q 372 853 400 831 q 344 917 344 875 q 374 983 344 960 q 450 1006 404 1006 z "},"d":{"ha":735,"x_min":38,"x_max":753,"o":"m 590 144 q 583 86 583 103 q 625 38 583 42 q 588 -11 617 6 q 524 -28 560 -28 q 459 -7 485 -28 q 429 51 433 14 q 350 -8 401 11 q 240 -28 299 -28 q 85 38 133 -28 q 38 231 38 104 q 79 472 38 356 q 208 662 121 588 q 421 736 294 736 q 483 731 454 736 q 546 713 511 725 l 597 972 l 753 989 l 590 144 m 525 610 q 467 642 500 631 q 406 653 435 653 q 293 590 333 653 q 229 429 253 528 q 206 310 215 375 q 197 201 197 246 q 221 95 197 135 q 296 56 244 56 q 407 122 367 56 q 464 279 447 188 l 525 610 z "},"ð":{"ha":714,"x_min":38,"x_max":758,"o":"m 743 969 q 758 929 758 956 q 744 894 758 908 q 699 868 729 879 l 665 857 q 693 642 693 775 q 647 327 693 481 q 502 73 601 174 q 254 -28 403 -28 q 90 35 143 -28 q 38 233 38 99 q 79 469 38 356 q 208 654 121 582 q 421 726 294 726 q 521 711 471 726 q 511 804 518 769 l 372 756 q 354 796 354 774 q 393 844 354 831 l 481 876 q 421 900 460 900 q 380 894 401 900 q 344 879 358 889 q 336 911 336 893 q 376 976 336 953 q 471 1000 417 1000 q 560 980 518 1000 q 626 928 603 960 l 743 969 m 486 364 q 510 483 500 415 q 522 601 519 551 q 465 632 497 621 q 404 643 433 643 q 292 583 332 643 q 229 431 251 522 q 206 312 215 376 q 197 200 197 247 q 290 56 197 56 q 380 99 343 56 q 439 206 417 143 q 486 364 461 268 z "},"ď":{"ha":735,"x_min":38,"x_max":944,"o":"m 38 0 m 590 144 q 583 86 583 103 q 625 38 583 42 q 588 -11 617 6 q 524 -28 560 -28 q 459 -7 485 -28 q 429 51 433 14 q 350 -8 401 11 q 240 -28 299 -28 q 85 38 133 -28 q 38 231 38 104 q 79 472 38 356 q 208 662 121 588 q 421 736 294 736 q 483 731 454 736 q 546 713 511 725 l 597 972 l 753 989 l 590 144 m 525 610 q 467 642 500 631 q 406 653 435 653 q 293 590 333 653 q 229 429 253 528 q 206 310 215 375 q 197 201 197 246 q 221 95 197 135 q 296 56 244 56 q 407 122 367 56 q 464 279 447 188 l 525 610 m 803 981 q 833 992 814 988 q 871 997 853 997 q 924 976 904 997 q 944 914 944 956 q 920 828 944 868 q 858 763 896 788 q 783 739 821 739 q 740 747 763 739 q 796 834 778 793 q 814 925 814 875 q 803 981 814 958 z "},"đ":{"ha":732,"x_min":38,"x_max":846,"o":"m 842 876 q 846 843 846 863 q 758 776 846 776 l 713 776 l 590 144 q 583 86 583 103 q 625 38 583 42 q 588 -11 617 6 q 524 -28 560 -28 q 459 -7 485 -28 q 429 51 433 14 q 350 -8 401 11 q 240 -28 299 -28 q 85 38 133 -28 q 38 231 38 104 q 79 472 38 356 q 208 662 121 588 q 421 736 294 736 q 483 731 454 736 q 546 713 511 725 l 558 776 l 347 776 q 344 810 344 788 q 422 876 347 876 l 578 876 l 597 972 l 753 989 l 731 876 l 842 876 m 525 610 q 467 642 500 631 q 406 653 435 653 q 293 590 333 653 q 229 429 253 528 q 206 310 215 375 q 197 201 197 246 q 221 95 197 135 q 296 56 244 56 q 407 122 367 56 q 464 279 447 188 l 525 610 z "},"ḍ":{"ha":735,"x_min":38,"x_max":753,"o":"m 38 0 m 590 144 q 583 86 583 103 q 625 38 583 42 q 588 -11 617 6 q 524 -28 560 -28 q 459 -7 485 -28 q 429 51 433 14 q 350 -8 401 11 q 240 -28 299 -28 q 85 38 133 -28 q 38 231 38 104 q 79 472 38 356 q 208 662 121 588 q 421 736 294 736 q 483 731 454 736 q 546 713 511 725 l 597 972 l 753 989 l 590 144 m 525 610 q 467 642 500 631 q 406 653 435 653 q 293 590 333 653 q 229 429 253 528 q 206 310 215 375 q 197 201 197 246 q 221 95 197 135 q 296 56 244 56 q 407 122 367 56 q 464 279 447 188 l 525 610 m 282 -75 q 356 -97 328 -75 q 383 -161 383 -119 q 353 -227 383 -204 q 278 -250 324 -250 q 204 -228 232 -250 q 176 -164 176 -206 q 206 -98 176 -121 q 282 -75 236 -75 z "},"ǳ":{"ha":1285,"x_min":38,"x_max":1308,"o":"m 38 0 m 590 144 q 583 86 583 103 q 625 38 583 42 q 588 -11 617 6 q 524 -28 560 -28 q 459 -7 485 -28 q 429 51 433 14 q 350 -8 401 11 q 240 -28 299 -28 q 85 38 133 -28 q 38 231 38 104 q 79 472 38 356 q 208 662 121 588 q 421 736 294 736 q 483 731 454 736 q 546 713 511 725 l 597 972 l 753 989 l 590 144 m 525 610 q 467 642 500 631 q 406 653 435 653 q 293 590 333 653 q 229 429 253 528 q 206 310 215 375 q 197 201 197 246 q 221 95 197 135 q 296 56 244 56 q 407 122 367 56 q 464 279 447 188 l 525 610 m 1139 581 q 1035 595 1097 589 q 938 601 974 601 q 877 593 903 601 q 831 564 851 585 q 806 640 806 596 q 843 713 806 690 q 942 735 881 735 q 1022 728 978 735 q 1074 719 1065 721 q 1208 703 1165 703 q 1283 717 1257 703 q 1308 656 1308 692 q 1267 557 1308 604 l 888 133 q 994 118 928 125 q 1100 111 1061 111 q 1214 149 1178 111 q 1239 74 1239 117 q 1199 0 1239 22 q 1097 -22 1160 -22 q 958 -6 1050 -22 q 829 11 869 11 q 753 -4 781 11 q 729 27 739 4 q 719 75 719 50 q 771 190 719 133 l 1139 581 z "},"ǆ":{"ha":1285,"x_min":38,"x_max":1339,"o":"m 38 0 m 590 144 q 583 86 583 103 q 625 38 583 42 q 588 -11 617 6 q 524 -28 560 -28 q 459 -7 485 -28 q 429 51 433 14 q 350 -8 401 11 q 240 -28 299 -28 q 85 38 133 -28 q 38 231 38 104 q 79 472 38 356 q 208 662 121 588 q 421 736 294 736 q 483 731 454 736 q 546 713 511 725 l 597 972 l 753 989 l 590 144 m 525 610 q 467 642 500 631 q 406 653 435 653 q 293 590 333 653 q 229 429 253 528 q 206 310 215 375 q 197 201 197 246 q 221 95 197 135 q 296 56 244 56 q 407 122 367 56 q 464 279 447 188 l 525 610 m 1139 581 q 1035 595 1097 589 q 938 601 974 601 q 877 593 903 601 q 831 564 851 585 q 806 640 806 596 q 843 713 806 690 q 942 735 881 735 q 1022 728 978 735 q 1074 719 1065 721 q 1208 703 1165 703 q 1283 717 1257 703 q 1308 656 1308 692 q 1267 557 1308 604 l 888 133 q 994 118 928 125 q 1100 111 1061 111 q 1214 149 1178 111 q 1239 74 1239 117 q 1199 0 1239 22 q 1097 -22 1160 -22 q 958 -6 1050 -22 q 829 11 869 11 q 753 -4 781 11 q 729 27 739 4 q 719 75 719 50 q 771 190 719 133 l 1139 581 m 921 983 l 976 1050 l 1121 964 l 1301 1050 l 1339 982 l 1113 821 l 1104 821 l 921 983 z "},"e":{"ha":608,"x_min":38,"x_max":628,"o":"m 436 736 q 576 699 524 736 q 628 578 628 661 q 581 443 628 499 q 453 358 533 388 q 276 329 374 329 q 201 332 238 329 q 197 249 197 286 q 226 128 197 168 q 326 88 256 88 q 433 116 386 88 q 507 197 481 144 q 532 178 524 193 q 540 142 540 163 q 507 61 540 100 q 414 -3 474 22 q 278 -28 354 -28 q 97 40 157 -28 q 38 247 38 107 q 83 483 38 371 q 217 665 128 594 q 436 736 307 736 m 404 657 q 281 577 332 657 q 211 400 229 497 q 397 444 318 400 q 476 576 476 489 q 458 637 476 617 q 404 657 439 657 z "},"é":{"ha":608,"x_min":38,"x_max":628,"o":"m 38 0 m 436 736 q 576 699 524 736 q 628 578 628 661 q 581 443 628 499 q 453 358 533 388 q 276 329 374 329 q 201 332 238 329 q 197 249 197 286 q 226 128 197 168 q 326 88 256 88 q 433 116 386 88 q 507 197 481 144 q 532 178 524 193 q 540 142 540 163 q 507 61 540 100 q 414 -3 474 22 q 278 -28 354 -28 q 97 40 157 -28 q 38 247 38 107 q 83 483 38 371 q 217 665 128 594 q 436 736 307 736 m 404 657 q 281 577 332 657 q 211 400 229 497 q 397 444 318 400 q 476 576 476 489 q 458 637 476 617 q 404 657 439 657 m 576 1068 q 611 1038 600 1060 q 622 990 622 1015 q 580 912 622 939 q 461 864 538 885 l 307 822 l 283 879 l 576 1068 z "},"ĕ":{"ha":608,"x_min":38,"x_max":665,"o":"m 38 0 m 436 736 q 576 699 524 736 q 628 578 628 661 q 581 443 628 499 q 453 358 533 388 q 276 329 374 329 q 201 332 238 329 q 197 249 197 286 q 226 128 197 168 q 326 88 256 88 q 433 116 386 88 q 507 197 481 144 q 532 178 524 193 q 540 142 540 163 q 507 61 540 100 q 414 -3 474 22 q 278 -28 354 -28 q 97 40 157 -28 q 38 247 38 107 q 83 483 38 371 q 217 665 128 594 q 436 736 307 736 m 404 657 q 281 577 332 657 q 211 400 229 497 q 397 444 318 400 q 476 576 476 489 q 458 637 476 617 q 404 657 439 657 m 368 1015 q 363 975 363 989 q 381 919 363 940 q 432 899 399 899 q 510 935 476 899 q 553 1015 544 972 l 665 1015 q 584 881 650 931 q 418 831 518 831 q 288 869 332 831 q 244 976 244 907 q 249 1015 244 994 l 368 1015 z "},"ě":{"ha":608,"x_min":38,"x_max":657,"o":"m 38 0 m 436 736 q 576 699 524 736 q 628 578 628 661 q 581 443 628 499 q 453 358 533 388 q 276 329 374 329 q 201 332 238 329 q 197 249 197 286 q 226 128 197 168 q 326 88 256 88 q 433 116 386 88 q 507 197 481 144 q 532 178 524 193 q 540 142 540 163 q 507 61 540 100 q 414 -3 474 22 q 278 -28 354 -28 q 97 40 157 -28 q 38 247 38 107 q 83 483 38 371 q 217 665 128 594 q 436 736 307 736 m 404 657 q 281 577 332 657 q 211 400 229 497 q 397 444 318 400 q 476 576 476 489 q 458 637 476 617 q 404 657 439 657 m 239 983 l 294 1050 l 439 964 l 619 1050 l 657 982 l 431 821 l 422 821 l 239 983 z "},"ê":{"ha":608,"x_min":38,"x_max":646,"o":"m 38 0 m 436 736 q 576 699 524 736 q 628 578 628 661 q 581 443 628 499 q 453 358 533 388 q 276 329 374 329 q 201 332 238 329 q 197 249 197 286 q 226 128 197 168 q 326 88 256 88 q 433 116 386 88 q 507 197 481 144 q 532 178 524 193 q 540 142 540 163 q 507 61 540 100 q 414 -3 474 22 q 278 -28 354 -28 q 97 40 157 -28 q 38 247 38 107 q 83 483 38 371 q 217 665 128 594 q 436 736 307 736 m 404 657 q 281 577 332 657 q 211 400 229 497 q 397 444 318 400 q 476 576 476 489 q 458 637 476 617 q 404 657 439 657 m 646 872 l 590 806 l 444 906 l 264 806 l 226 874 l 453 1035 l 463 1035 l 646 872 z "},"ë":{"ha":608,"x_min":38,"x_max":682,"o":"m 38 0 m 436 736 q 576 699 524 736 q 628 578 628 661 q 581 443 628 499 q 453 358 533 388 q 276 329 374 329 q 201 332 238 329 q 197 249 197 286 q 226 128 197 168 q 326 88 256 88 q 433 116 386 88 q 507 197 481 144 q 532 178 524 193 q 540 142 540 163 q 507 61 540 100 q 414 -3 474 22 q 278 -28 354 -28 q 97 40 157 -28 q 38 247 38 107 q 83 483 38 371 q 217 665 128 594 q 436 736 307 736 m 404 657 q 281 577 332 657 q 211 400 229 497 q 397 444 318 400 q 476 576 476 489 q 458 637 476 617 q 404 657 439 657 m 581 1006 q 654 983 626 1006 q 682 919 682 961 q 652 853 682 876 q 576 831 622 831 q 503 853 531 831 q 475 917 475 875 q 505 983 475 960 q 581 1006 535 1006 m 297 1006 q 371 983 343 1006 q 399 919 399 961 q 369 853 399 876 q 293 831 339 831 q 219 853 247 831 q 192 917 192 875 q 222 983 192 960 q 297 1006 251 1006 z "},"ė":{"ha":608,"x_min":38,"x_max":628,"o":"m 38 0 m 436 736 q 576 699 524 736 q 628 578 628 661 q 581 443 628 499 q 453 358 533 388 q 276 329 374 329 q 201 332 238 329 q 197 249 197 286 q 226 128 197 168 q 326 88 256 88 q 433 116 386 88 q 507 197 481 144 q 532 178 524 193 q 540 142 540 163 q 507 61 540 100 q 414 -3 474 22 q 278 -28 354 -28 q 97 40 157 -28 q 38 247 38 107 q 83 483 38 371 q 217 665 128 594 q 436 736 307 736 m 404 657 q 281 577 332 657 q 211 400 229 497 q 397 444 318 400 q 476 576 476 489 q 458 637 476 617 q 404 657 439 657 m 422 1006 q 496 983 468 1006 q 524 919 524 961 q 494 853 524 876 q 418 831 464 831 q 344 853 372 831 q 317 917 317 875 q 347 983 317 960 q 422 1006 376 1006 z "},"ẹ":{"ha":608,"x_min":38,"x_max":628,"o":"m 38 0 m 436 736 q 576 699 524 736 q 628 578 628 661 q 581 443 628 499 q 453 358 533 388 q 276 329 374 329 q 201 332 238 329 q 197 249 197 286 q 226 128 197 168 q 326 88 256 88 q 433 116 386 88 q 507 197 481 144 q 532 178 524 193 q 540 142 540 163 q 507 61 540 100 q 414 -3 474 22 q 278 -28 354 -28 q 97 40 157 -28 q 38 247 38 107 q 83 483 38 371 q 217 665 128 594 q 436 736 307 736 m 404 657 q 281 577 332 657 q 211 400 229 497 q 397 444 318 400 q 476 576 476 489 q 458 637 476 617 q 404 657 439 657 m 278 -75 q 351 -97 324 -75 q 379 -161 379 -119 q 349 -227 379 -204 q 274 -250 319 -250 q 200 -228 228 -250 q 172 -164 172 -206 q 202 -98 172 -121 q 278 -75 232 -75 z "},"è":{"ha":608,"x_min":38,"x_max":628,"o":"m 38 0 m 436 736 q 576 699 524 736 q 628 578 628 661 q 581 443 628 499 q 453 358 533 388 q 276 329 374 329 q 201 332 238 329 q 197 249 197 286 q 226 128 197 168 q 326 88 256 88 q 433 116 386 88 q 507 197 481 144 q 532 178 524 193 q 540 142 540 163 q 507 61 540 100 q 414 -3 474 22 q 278 -28 354 -28 q 97 40 157 -28 q 38 247 38 107 q 83 483 38 371 q 217 665 128 594 q 436 736 307 736 m 404 657 q 281 577 332 657 q 211 400 229 497 q 397 444 318 400 q 476 576 476 489 q 458 637 476 617 q 404 657 439 657 m 343 864 q 225 912 267 885 q 183 990 183 939 q 194 1038 183 1015 q 228 1068 206 1060 l 522 879 l 499 822 l 343 864 z "},"ē":{"ha":608,"x_min":38,"x_max":646,"o":"m 38 0 m 436 736 q 576 699 524 736 q 628 578 628 661 q 581 443 628 499 q 453 358 533 388 q 276 329 374 329 q 201 332 238 329 q 197 249 197 286 q 226 128 197 168 q 326 88 256 88 q 433 116 386 88 q 507 197 481 144 q 532 178 524 193 q 540 142 540 163 q 507 61 540 100 q 414 -3 474 22 q 278 -28 354 -28 q 97 40 157 -28 q 38 247 38 107 q 83 483 38 371 q 217 665 128 594 q 436 736 307 736 m 404 657 q 281 577 332 657 q 211 400 229 497 q 397 444 318 400 q 476 576 476 489 q 458 637 476 617 q 404 657 439 657 m 642 967 q 646 933 646 953 q 622 874 646 896 q 550 853 597 853 l 257 853 q 254 886 254 864 q 278 945 256 924 q 339 967 301 967 l 642 967 z "},"ę":{"ha":608,"x_min":38,"x_max":628,"o":"m 276 329 q 201 332 238 329 q 197 249 197 286 q 226 128 197 168 q 326 88 256 88 q 433 116 386 88 q 507 197 481 144 q 532 178 524 193 q 540 142 540 163 q 514 69 540 104 q 440 8 488 33 q 349 -81 383 -26 q 315 -190 315 -135 q 334 -253 315 -233 q 397 -272 353 -272 q 438 -264 418 -272 q 469 -237 458 -256 q 492 -278 492 -254 q 458 -335 492 -311 q 374 -358 425 -358 q 257 -319 300 -358 q 214 -208 214 -279 q 307 -26 214 -104 q 278 -28 297 -28 q 97 40 157 -28 q 38 247 38 107 q 83 483 38 371 q 217 665 128 594 q 436 736 307 736 q 576 699 524 736 q 628 578 628 661 q 581 443 628 499 q 453 358 533 388 q 276 329 374 329 m 404 657 q 281 577 332 657 q 211 400 229 497 q 397 444 318 400 q 476 576 476 489 q 458 637 476 617 q 404 657 439 657 z "},"ẽ":{"ha":608,"x_min":38,"x_max":653,"o":"m 38 0 m 436 736 q 576 699 524 736 q 628 578 628 661 q 581 443 628 499 q 453 358 533 388 q 276 329 374 329 q 201 332 238 329 q 197 249 197 286 q 226 128 197 168 q 326 88 256 88 q 433 116 386 88 q 507 197 481 144 q 532 178 524 193 q 540 142 540 163 q 507 61 540 100 q 414 -3 474 22 q 278 -28 354 -28 q 97 40 157 -28 q 38 247 38 107 q 83 483 38 371 q 217 665 128 594 q 436 736 307 736 m 404 657 q 281 577 332 657 q 211 400 229 497 q 397 444 318 400 q 476 576 476 489 q 458 637 476 617 q 404 657 439 657 m 631 1000 q 653 943 653 974 q 624 881 653 903 q 546 860 594 860 q 431 871 519 860 q 315 882 344 882 q 238 861 264 882 q 214 925 214 896 q 243 981 214 961 q 326 1000 272 1000 q 446 989 360 1000 q 561 978 532 978 q 631 1000 614 978 z "},"ə":{"ha":658,"x_min":22,"x_max":613,"o":"m 213 -28 q 74 10 125 -28 q 22 131 22 47 q 69 266 22 210 q 195 351 115 322 q 374 379 275 379 q 449 376 413 379 q 453 460 453 422 q 424 581 453 540 q 324 621 394 621 q 217 592 264 621 q 143 511 169 564 q 118 531 126 515 q 110 567 110 546 q 142 647 110 608 q 235 711 175 686 q 371 736 294 736 q 552 668 492 736 q 613 461 613 600 q 567 226 613 338 q 432 43 522 114 q 213 -28 342 -28 m 244 51 q 369 131 318 51 q 439 308 421 211 q 252 264 332 308 q 172 132 172 219 q 191 72 172 92 q 244 51 210 51 z "},"f":{"ha":428,"x_min":33,"x_max":664,"o":"m 193 783 q 290 947 221 894 q 472 1000 358 1000 q 610 972 556 1000 q 664 886 664 944 q 633 816 664 842 q 557 790 601 790 q 497 806 517 790 q 517 875 517 840 q 457 939 517 939 q 344 803 368 939 l 328 708 l 454 708 l 446 646 l 315 646 l 194 0 l 33 -17 l 163 646 l 64 646 l 76 708 l 174 708 l 193 783 z "},"g":{"ha":700,"x_min":14,"x_max":704,"o":"m 599 196 q 521 -85 564 17 q 413 -233 478 -186 q 249 -279 349 -279 q 80 -235 146 -279 q 14 -107 14 -190 q 44 -28 14 -54 q 115 -3 75 -3 q 163 -14 142 -3 q 196 -46 185 -25 q 169 -112 169 -75 q 194 -175 169 -153 q 257 -197 218 -197 q 381 -106 340 -197 q 449 160 421 -15 q 369 100 421 119 q 261 81 318 81 q 110 139 163 81 q 57 310 57 197 q 103 515 57 417 q 233 674 149 613 q 428 736 318 736 q 494 729 463 736 q 565 707 525 722 l 704 725 l 599 196 m 528 610 q 471 642 503 631 q 413 653 439 653 q 306 591 350 653 q 239 444 261 529 q 217 292 217 358 q 313 164 217 164 q 424 227 386 164 q 483 388 463 290 l 528 610 z "},"ğ":{"ha":700,"x_min":14,"x_max":721,"o":"m 14 0 m 599 196 q 521 -85 564 17 q 413 -233 478 -186 q 249 -279 349 -279 q 80 -235 146 -279 q 14 -107 14 -190 q 44 -28 14 -54 q 115 -3 75 -3 q 163 -14 142 -3 q 196 -46 185 -25 q 169 -112 169 -75 q 194 -175 169 -153 q 257 -197 218 -197 q 381 -106 340 -197 q 449 160 421 -15 q 369 100 421 119 q 261 81 318 81 q 110 139 163 81 q 57 310 57 197 q 103 515 57 417 q 233 674 149 613 q 428 736 318 736 q 494 729 463 736 q 565 707 525 722 l 704 725 l 599 196 m 528 610 q 471 642 503 631 q 413 653 439 653 q 306 591 350 653 q 239 444 261 529 q 217 292 217 358 q 313 164 217 164 q 424 227 386 164 q 483 388 463 290 l 528 610 m 424 1015 q 418 975 418 989 q 436 919 418 940 q 488 899 454 899 q 566 935 532 899 q 608 1015 600 972 l 721 1015 q 640 881 706 931 q 474 831 574 831 q 344 869 388 831 q 300 976 300 907 q 304 1015 300 994 l 424 1015 z "},"ĝ":{"ha":700,"x_min":14,"x_max":704,"o":"m 14 0 m 599 196 q 521 -85 564 17 q 413 -233 478 -186 q 249 -279 349 -279 q 80 -235 146 -279 q 14 -107 14 -190 q 44 -28 14 -54 q 115 -3 75 -3 q 163 -14 142 -3 q 196 -46 185 -25 q 169 -112 169 -75 q 194 -175 169 -153 q 257 -197 218 -197 q 381 -106 340 -197 q 449 160 421 -15 q 369 100 421 119 q 261 81 318 81 q 110 139 163 81 q 57 310 57 197 q 103 515 57 417 q 233 674 149 613 q 428 736 318 736 q 494 729 463 736 q 565 707 525 722 l 704 725 l 599 196 m 528 610 q 471 642 503 631 q 413 653 439 653 q 306 591 350 653 q 239 444 261 529 q 217 292 217 358 q 313 164 217 164 q 424 227 386 164 q 483 388 463 290 l 528 610 m 701 872 l 646 806 l 500 906 l 319 806 l 282 874 l 508 1035 l 518 1035 l 701 872 z "},"ģ":{"ha":700,"x_min":14,"x_max":704,"o":"m 14 0 m 599 196 q 521 -85 564 17 q 413 -233 478 -186 q 249 -279 349 -279 q 80 -235 146 -279 q 14 -107 14 -190 q 44 -28 14 -54 q 115 -3 75 -3 q 163 -14 142 -3 q 196 -46 185 -25 q 169 -112 169 -75 q 194 -175 169 -153 q 257 -197 218 -197 q 381 -106 340 -197 q 449 160 421 -15 q 369 100 421 119 q 261 81 318 81 q 110 139 163 81 q 57 310 57 197 q 103 515 57 417 q 233 674 149 613 q 428 736 318 736 q 494 729 463 736 q 565 707 525 722 l 704 725 l 599 196 m 528 610 q 471 642 503 631 q 413 653 439 653 q 306 591 350 653 q 239 444 261 529 q 217 292 217 358 q 313 164 217 164 q 424 227 386 164 q 483 388 463 290 l 528 610 m 579 1056 q 618 1040 603 1056 q 562 949 581 989 q 543 861 543 908 q 553 810 543 835 q 481 794 524 794 q 426 814 447 794 q 404 872 404 833 q 430 958 404 915 q 497 1028 456 1000 q 579 1056 538 1056 z "},"ġ":{"ha":700,"x_min":14,"x_max":704,"o":"m 14 0 m 599 196 q 521 -85 564 17 q 413 -233 478 -186 q 249 -279 349 -279 q 80 -235 146 -279 q 14 -107 14 -190 q 44 -28 14 -54 q 115 -3 75 -3 q 163 -14 142 -3 q 196 -46 185 -25 q 169 -112 169 -75 q 194 -175 169 -153 q 257 -197 218 -197 q 381 -106 340 -197 q 449 160 421 -15 q 369 100 421 119 q 261 81 318 81 q 110 139 163 81 q 57 310 57 197 q 103 515 57 417 q 233 674 149 613 q 428 736 318 736 q 494 729 463 736 q 565 707 525 722 l 704 725 l 599 196 m 528 610 q 471 642 503 631 q 413 653 439 653 q 306 591 350 653 q 239 444 261 529 q 217 292 217 358 q 313 164 217 164 q 424 227 386 164 q 483 388 463 290 l 528 610 m 478 1006 q 551 983 524 1006 q 579 919 579 961 q 549 853 579 876 q 474 831 519 831 q 400 853 428 831 q 372 917 372 875 q 402 983 372 960 q 478 1006 432 1006 z "},"h":{"ha":750,"x_min":35,"x_max":696,"o":"m 354 832 q 328 712 343 772 q 299 615 313 651 q 397 706 336 676 q 526 736 457 736 q 655 691 614 736 q 696 558 696 646 q 683 438 696 503 q 644 269 671 374 q 620 166 631 215 q 610 90 610 117 q 619 53 610 67 q 651 38 628 40 q 615 -11 643 6 q 549 -28 586 -28 q 456 76 456 -28 q 467 176 456 118 q 501 328 479 235 q 532 457 522 410 q 542 535 542 504 q 518 605 542 581 q 453 629 494 629 q 333 558 379 629 q 267 386 286 486 l 192 0 l 35 -17 l 228 972 l 385 989 l 354 832 z "},"ħ":{"ha":750,"x_min":35,"x_max":696,"o":"m 346 788 q 299 615 322 676 q 397 706 336 676 q 526 736 457 736 q 655 691 614 736 q 696 558 696 646 q 683 438 696 503 q 644 269 671 374 q 620 166 631 215 q 610 90 610 117 q 619 53 610 67 q 651 38 628 40 q 615 -11 643 6 q 549 -28 586 -28 q 456 76 456 -28 q 467 176 456 118 q 501 328 479 235 q 532 457 522 410 q 542 535 542 504 q 518 605 542 581 q 453 629 494 629 q 333 558 379 629 q 267 386 286 486 l 192 0 l 35 -17 l 192 788 l 103 788 q 100 821 100 799 q 178 888 103 888 l 211 888 l 228 972 l 385 989 l 365 888 l 597 888 q 601 854 601 874 q 514 788 601 788 l 346 788 z "},"ĥ":{"ha":750,"x_min":35,"x_max":696,"o":"m 35 0 m 354 832 q 328 712 343 772 q 299 615 313 651 q 397 706 336 676 q 526 736 457 736 q 655 691 614 736 q 696 558 696 646 q 683 438 696 503 q 644 269 671 374 q 620 166 631 215 q 610 90 610 117 q 619 53 610 67 q 651 38 628 40 q 615 -11 643 6 q 549 -28 586 -28 q 456 76 456 -28 q 467 176 456 118 q 501 328 479 235 q 532 457 522 410 q 542 535 542 504 q 518 605 542 581 q 453 629 494 629 q 333 558 379 629 q 267 386 286 486 l 192 0 l 35 -17 l 228 972 l 385 989 l 354 832 m 526 1003 l 471 936 l 325 1036 l 144 936 l 107 1004 l 333 1165 l 343 1165 l 526 1003 z "},"ḥ":{"ha":750,"x_min":35,"x_max":696,"o":"m 35 0 m 354 832 q 328 712 343 772 q 299 615 313 651 q 397 706 336 676 q 526 736 457 736 q 655 691 614 736 q 696 558 696 646 q 683 438 696 503 q 644 269 671 374 q 620 166 631 215 q 610 90 610 117 q 619 53 610 67 q 651 38 628 40 q 615 -11 643 6 q 549 -28 586 -28 q 456 76 456 -28 q 467 176 456 118 q 501 328 479 235 q 532 457 522 410 q 542 535 542 504 q 518 605 542 581 q 453 629 494 629 q 333 558 379 629 q 267 386 286 486 l 192 0 l 35 -17 l 228 972 l 385 989 l 354 832 m 307 -75 q 381 -97 353 -75 q 408 -161 408 -119 q 378 -227 408 -204 q 303 -250 349 -250 q 229 -228 257 -250 q 201 -164 201 -206 q 231 -98 201 -121 q 307 -75 261 -75 z "},"i":{"ha":364,"x_min":58,"x_max":397,"o":"m 296 1006 q 369 983 342 1006 q 397 919 397 961 q 367 853 397 876 q 292 831 338 831 q 218 853 246 831 q 190 917 190 875 q 220 983 190 960 q 296 1006 250 1006 m 219 144 q 213 86 213 107 q 254 38 213 42 q 217 -11 246 6 q 151 -28 189 -28 q 83 -3 108 -28 q 58 65 58 22 q 85 242 58 106 l 179 708 l 336 725 l 219 144 z "},"ı":{"ha":363,"x_min":58,"x_max":336,"o":"m 219 144 q 213 86 213 107 q 254 38 213 42 q 217 -11 246 6 q 151 -28 189 -28 q 83 -3 108 -28 q 58 65 58 22 q 85 242 58 106 l 179 708 l 336 725 l 219 144 z "},"í":{"ha":363,"x_min":58,"x_max":483,"o":"m 58 0 m 219 144 q 213 86 213 107 q 254 38 213 42 q 217 -11 246 6 q 151 -28 189 -28 q 83 -3 108 -28 q 58 65 58 22 q 85 242 58 106 l 179 708 l 336 725 l 219 144 m 438 1068 q 472 1038 461 1060 q 483 990 483 1015 q 441 912 483 939 q 322 864 399 885 l 168 822 l 144 879 l 438 1068 z "},"ĭ":{"ha":363,"x_min":58,"x_max":526,"o":"m 58 0 m 219 144 q 213 86 213 107 q 254 38 213 42 q 217 -11 246 6 q 151 -28 189 -28 q 83 -3 108 -28 q 58 65 58 22 q 85 242 58 106 l 179 708 l 336 725 l 219 144 m 229 1015 q 224 975 224 989 q 242 919 224 940 q 293 899 260 899 q 372 935 338 899 q 414 1015 406 972 l 526 1015 q 445 881 511 931 q 279 831 379 831 q 149 869 193 831 q 106 976 106 907 q 110 1015 106 994 l 229 1015 z "},"î":{"ha":363,"x_min":58,"x_max":507,"o":"m 58 0 m 219 144 q 213 86 213 107 q 254 38 213 42 q 217 -11 246 6 q 151 -28 189 -28 q 83 -3 108 -28 q 58 65 58 22 q 85 242 58 106 l 179 708 l 336 725 l 219 144 m 507 872 l 451 806 l 306 906 l 125 806 l 88 874 l 314 1035 l 324 1035 l 507 872 z "},"ï":{"ha":363,"x_min":53,"x_max":543,"o":"m 53 0 m 219 144 q 213 86 213 107 q 254 38 213 42 q 217 -11 246 6 q 151 -28 189 -28 q 83 -3 108 -28 q 58 65 58 22 q 85 242 58 106 l 179 708 l 336 725 l 219 144 m 442 1006 q 515 983 488 1006 q 543 919 543 961 q 513 853 543 876 q 438 831 483 831 q 364 853 392 831 q 336 917 336 875 q 366 983 336 960 q 442 1006 396 1006 m 158 1006 q 232 983 204 1006 q 260 919 260 961 q 230 853 260 876 q 154 831 200 831 q 81 853 108 831 q 53 917 53 875 q 83 983 53 960 q 158 1006 113 1006 z "},"ị":{"ha":364,"x_min":8,"x_max":397,"o":"m 8 0 m 296 1006 q 369 983 342 1006 q 397 919 397 961 q 367 853 397 876 q 292 831 338 831 q 218 853 246 831 q 190 917 190 875 q 220 983 190 960 q 296 1006 250 1006 m 219 144 q 213 86 213 107 q 254 38 213 42 q 217 -11 246 6 q 151 -28 189 -28 q 83 -3 108 -28 q 58 65 58 22 q 85 242 58 106 l 179 708 l 336 725 l 219 144 m 114 -75 q 188 -97 160 -75 q 215 -161 215 -119 q 185 -227 215 -204 q 110 -250 156 -250 q 36 -228 64 -250 q 8 -164 8 -206 q 38 -98 8 -121 q 114 -75 68 -75 z "},"ì":{"ha":363,"x_min":44,"x_max":383,"o":"m 44 0 m 219 144 q 213 86 213 107 q 254 38 213 42 q 217 -11 246 6 q 151 -28 189 -28 q 83 -3 108 -28 q 58 65 58 22 q 85 242 58 106 l 179 708 l 336 725 l 219 144 m 204 864 q 86 912 128 885 q 44 990 44 939 q 56 1038 44 1015 q 89 1068 67 1060 l 383 879 l 360 822 l 204 864 z "},"ĳ":{"ha":728,"x_min":58,"x_max":768,"o":"m 58 0 m 296 1006 q 369 983 342 1006 q 397 919 397 961 q 367 853 397 876 q 292 831 338 831 q 218 853 246 831 q 190 917 190 875 q 220 983 190 960 q 296 1006 250 1006 m 219 144 q 213 86 213 107 q 254 38 213 42 q 217 -11 246 6 q 151 -28 189 -28 q 83 -3 108 -28 q 58 65 58 22 q 85 242 58 106 l 179 708 l 336 725 l 219 144 m 667 1006 q 740 983 713 1006 q 768 919 768 961 q 738 853 768 876 q 663 831 708 831 q 589 853 617 831 q 561 917 561 875 q 591 983 561 960 q 667 1006 621 1006 m 571 43 q 476 -201 538 -125 q 335 -278 414 -278 q 238 -197 250 -278 q 326 -162 290 -196 q 386 -57 361 -128 q 436 138 411 14 l 551 708 l 708 725 l 571 43 z "},"ī":{"ha":363,"x_min":58,"x_max":507,"o":"m 58 0 m 219 144 q 213 86 213 107 q 254 38 213 42 q 217 -11 246 6 q 151 -28 189 -28 q 83 -3 108 -28 q 58 65 58 22 q 85 242 58 106 l 179 708 l 336 725 l 219 144 m 503 967 q 507 933 507 953 q 483 874 507 896 q 411 853 458 853 l 118 853 q 115 886 115 864 q 140 945 117 924 q 200 967 163 967 l 503 967 z "},"į":{"ha":363,"x_min":8,"x_max":385,"o":"m 283 1006 q 357 983 329 1006 q 385 919 385 961 q 355 853 385 876 q 279 831 325 831 q 206 853 233 831 q 178 917 178 875 q 208 983 178 960 q 283 1006 238 1006 m 219 144 q 213 86 213 107 q 254 38 213 42 q 194 -21 242 -7 q 133 -101 156 -57 q 110 -190 110 -146 q 128 -253 110 -233 q 192 -272 147 -272 q 233 -264 213 -272 q 264 -237 253 -256 q 286 -278 286 -254 q 253 -335 286 -311 q 168 -358 219 -358 q 51 -319 94 -358 q 8 -208 8 -279 q 36 -104 8 -153 q 108 -21 64 -56 q 72 13 85 -10 q 58 65 58 35 q 85 242 58 106 l 179 708 l 336 725 l 219 144 z "},"ĩ":{"ha":363,"x_min":58,"x_max":514,"o":"m 58 0 m 219 144 q 213 86 213 107 q 254 38 213 42 q 217 -11 246 6 q 151 -28 189 -28 q 83 -3 108 -28 q 58 65 58 22 q 85 242 58 106 l 179 708 l 336 725 l 219 144 m 492 1000 q 514 943 514 974 q 485 881 514 903 q 407 860 456 860 q 292 871 381 860 q 176 882 206 882 q 99 861 125 882 q 75 925 75 896 q 104 981 75 961 q 188 1000 133 1000 q 307 989 221 1000 q 422 978 393 978 q 492 1000 475 978 z "},"j":{"ha":364,"x_min":-126,"x_max":404,"o":"m 303 1006 q 376 983 349 1006 q 404 919 404 961 q 374 853 404 876 q 299 831 344 831 q 225 853 253 831 q 197 917 197 875 q 227 983 197 960 q 303 1006 257 1006 m 207 43 q 112 -201 174 -125 q -29 -278 50 -278 q -126 -197 -114 -278 q -38 -162 -74 -196 q 22 -57 -3 -128 q 72 138 47 14 l 188 708 l 344 725 l 207 43 z "},"ȷ":{"ha":364,"x_min":-126,"x_max":344,"o":"m 207 43 q 112 -201 174 -125 q -29 -278 50 -278 q -126 -197 -114 -278 q -38 -162 -74 -196 q 22 -57 -3 -128 q 72 138 47 14 l 188 708 l 344 725 l 207 43 z "},"ĵ":{"ha":364,"x_min":-126,"x_max":515,"o":"m 0 0 m 207 43 q 112 -201 174 -125 q -29 -278 50 -278 q -126 -197 -114 -278 q -38 -162 -74 -196 q 22 -57 -3 -128 q 72 138 47 14 l 188 708 l 344 725 l 207 43 m 515 872 l 460 806 l 314 906 l 133 806 l 96 874 l 322 1035 l 332 1035 l 515 872 z "},"k":{"ha":653,"x_min":6,"x_max":653,"o":"m 325 832 q 299 712 314 772 q 269 615 283 651 q 364 706 306 675 q 489 736 422 736 q 611 693 569 736 q 653 575 653 650 q 588 413 653 476 q 421 314 522 350 l 485 149 q 526 81 500 108 q 590 49 553 53 q 560 -7 585 14 q 493 -28 535 -28 q 402 9 439 -28 q 336 120 365 46 q 267 335 307 194 q 431 411 364 358 q 499 542 499 464 q 476 607 499 585 q 413 629 454 629 q 299 563 338 629 q 238 386 260 496 l 163 0 l 6 -17 l 199 972 l 356 989 l 325 832 z "},"ķ":{"ha":653,"x_min":6,"x_max":653,"o":"m 6 0 m 325 832 q 299 712 314 772 q 269 615 283 651 q 364 706 306 675 q 489 736 422 736 q 611 693 569 736 q 653 575 653 650 q 588 413 653 476 q 421 314 522 350 l 485 149 q 526 81 500 108 q 590 49 553 53 q 560 -7 585 14 q 493 -28 535 -28 q 402 9 439 -28 q 336 120 365 46 q 267 335 307 194 q 431 411 364 358 q 499 542 499 464 q 476 607 499 585 q 413 629 454 629 q 299 563 338 629 q 238 386 260 496 l 163 0 l 6 -17 l 199 972 l 356 989 l 325 832 m 375 -146 q 349 -231 375 -189 q 283 -301 324 -274 q 200 -329 242 -329 q 161 -314 176 -329 q 217 -222 199 -262 q 236 -135 236 -182 q 226 -83 236 -108 q 299 -68 256 -68 q 353 -87 332 -68 q 375 -146 375 -107 z "},"ĸ":{"ha":682,"x_min":35,"x_max":682,"o":"m 289 599 q 389 703 329 671 q 518 736 449 736 q 640 693 599 736 q 682 575 682 650 q 616 413 682 476 q 450 314 550 350 l 514 149 q 556 81 529 108 q 619 49 582 53 q 589 -7 614 14 q 522 -28 564 -28 q 431 9 468 -28 q 365 120 394 46 q 296 335 336 194 q 460 412 392 360 q 528 542 528 464 q 506 607 528 585 q 442 629 483 629 q 328 563 367 629 q 267 386 289 496 l 192 0 l 35 -17 l 176 708 l 307 724 l 289 599 z "},"l":{"ha":335,"x_min":29,"x_max":360,"o":"m 190 144 q 183 86 183 107 q 225 38 183 42 q 188 -11 217 6 q 122 -28 160 -28 q 54 -3 79 -28 q 29 65 29 22 q 56 242 29 106 l 203 972 l 360 989 l 190 144 z "},"ĺ":{"ha":335,"x_min":29,"x_max":538,"o":"m 29 0 m 190 144 q 183 86 183 107 q 225 38 183 42 q 188 -11 217 6 q 122 -28 160 -28 q 54 -3 79 -28 q 29 65 29 22 q 56 242 29 106 l 203 972 l 360 989 l 190 144 m 182 1074 l 507 1197 q 538 1135 538 1176 q 486 1049 538 1072 q 353 1022 435 1026 l 193 1014 l 182 1074 z "},"ľ":{"ha":335,"x_min":29,"x_max":546,"o":"m 29 0 m 190 144 q 183 86 183 107 q 225 38 183 42 q 188 -11 217 6 q 122 -28 160 -28 q 54 -3 79 -28 q 29 65 29 22 q 56 242 29 106 l 203 972 l 360 989 l 190 144 m 404 983 q 435 995 415 990 q 472 1000 454 1000 q 526 979 506 1000 q 546 917 546 958 q 522 831 546 871 q 460 766 497 790 q 385 742 422 742 q 342 750 364 742 q 397 837 379 796 q 415 928 415 878 q 404 983 415 961 z "},"ļ":{"ha":335,"x_min":1,"x_max":360,"o":"m 1 0 m 190 144 q 183 86 183 107 q 225 38 183 42 q 188 -11 217 6 q 122 -28 160 -28 q 54 -3 79 -28 q 29 65 29 22 q 56 242 29 106 l 203 972 l 360 989 l 190 144 m 215 -146 q 190 -231 215 -189 q 123 -301 164 -274 q 40 -329 82 -329 q 1 -314 17 -329 q 58 -222 39 -262 q 76 -135 76 -182 q 67 -83 76 -108 q 139 -68 96 -68 q 194 -87 172 -68 q 215 -146 215 -107 z "},"ŀ":{"ha":375,"x_min":29,"x_max":447,"o":"m 190 144 q 183 86 183 107 q 225 38 183 42 q 188 -11 217 6 q 122 -28 160 -28 q 54 -3 79 -28 q 29 65 29 22 q 56 242 29 106 l 203 972 l 360 989 l 190 144 m 381 539 q 428 522 410 539 q 447 478 447 506 q 415 406 447 433 q 344 378 383 378 q 297 394 315 378 q 279 439 279 410 q 310 511 279 483 q 381 539 342 539 z "},"ǉ":{"ha":335,"x_min":-125,"x_max":406,"o":"m 304 1238 q 378 1215 350 1238 q 406 1151 406 1193 q 376 1085 406 1108 q 300 1063 346 1063 q 226 1085 254 1063 q 199 1149 199 1107 q 228 1215 199 1192 q 304 1238 258 1238 m 190 144 q 183 86 183 107 q 225 38 183 42 q 188 -11 217 6 q 122 -28 160 -28 q 68 -14 88 -28 q -28 -46 24 -46 q -125 35 -112 -46 q -37 70 -72 36 q 24 175 -1 104 q 74 369 49 246 l 189 940 l 196 942 l 203 972 l 360 989 l 190 144 z "},"ł":{"ha":425,"x_min":-3,"x_max":515,"o":"m 493 628 q 515 569 515 607 q 495 522 515 540 q 432 488 475 503 l 319 446 l 258 144 q 251 86 251 107 q 293 38 251 42 q 256 -11 285 6 q 190 -28 228 -28 q 122 -3 147 -28 q 97 65 97 22 q 124 239 97 107 l 153 386 l 22 339 q 3 365 10 353 q -3 393 -3 376 q 50 464 -3 443 l 178 511 l 271 972 l 428 989 l 344 572 l 493 628 z "},"m":{"ha":1136,"x_min":35,"x_max":1092,"o":"m 289 600 q 518 736 360 736 q 631 705 592 736 q 682 610 669 674 q 780 705 718 674 q 914 736 842 736 q 1047 690 1003 736 q 1092 557 1092 643 q 1077 435 1092 501 q 1035 271 1063 369 q 1006 158 1015 199 q 996 92 996 118 q 1006 53 996 65 q 1038 38 1017 40 q 1001 -11 1029 6 q 935 -28 972 -28 q 842 76 842 -28 q 854 179 842 118 q 889 329 867 240 q 916 447 904 389 q 928 535 928 504 q 904 605 928 581 q 838 629 881 629 q 722 560 761 629 q 663 386 682 492 l 588 0 l 431 -17 l 501 335 q 518 416 503 344 q 533 532 533 488 q 510 604 533 579 q 442 629 486 629 q 326 562 365 629 q 267 386 288 494 l 192 0 l 35 -17 l 176 708 l 307 725 l 289 600 z "},"n":{"ha":750,"x_min":35,"x_max":696,"o":"m 289 600 q 388 703 325 669 q 526 736 450 736 q 655 691 614 736 q 696 558 696 646 q 683 438 696 503 q 644 269 671 374 q 620 166 631 215 q 610 90 610 117 q 619 53 610 67 q 651 38 628 40 q 615 -11 643 6 q 549 -28 586 -28 q 456 76 456 -28 q 467 176 456 118 q 501 328 479 235 q 532 457 522 410 q 542 535 542 504 q 518 605 542 581 q 453 629 494 629 q 333 558 379 629 q 267 386 286 486 l 192 0 l 35 -17 l 176 708 l 307 725 l 289 600 z "},"ń":{"ha":750,"x_min":35,"x_max":696,"o":"m 35 0 m 289 600 q 388 703 325 669 q 526 736 450 736 q 655 691 614 736 q 696 558 696 646 q 683 438 696 503 q 644 269 671 374 q 620 166 631 215 q 610 90 610 117 q 619 53 610 67 q 651 38 628 40 q 615 -11 643 6 q 549 -28 586 -28 q 456 76 456 -28 q 467 176 456 118 q 501 328 479 235 q 532 457 522 410 q 542 535 542 504 q 518 605 542 581 q 453 629 494 629 q 333 558 379 629 q 267 386 286 486 l 192 0 l 35 -17 l 176 708 l 307 725 l 289 600 m 639 1068 q 674 1038 663 1060 q 685 990 685 1015 q 642 912 685 939 q 524 864 600 885 l 369 822 l 346 879 l 639 1068 z "},"ŉ":{"ha":750,"x_min":-1,"x_max":696,"o":"m 142 971 q 200 948 178 971 q 222 885 222 925 q 174 749 222 800 q 44 697 125 697 q -1 706 24 697 q 59 788 40 742 q 78 900 78 835 q 67 954 78 936 q 99 966 78 961 q 142 971 121 971 m 526 736 q 655 691 614 736 q 696 558 696 646 q 683 438 696 503 q 644 269 671 374 q 620 166 631 215 q 610 90 610 117 q 619 53 610 67 q 651 38 628 40 q 615 -11 643 6 q 549 -28 586 -28 q 456 76 456 -28 q 467 176 456 118 q 501 328 479 235 q 532 457 522 410 q 542 535 542 504 q 518 605 542 581 q 453 629 494 629 q 333 558 379 629 q 267 386 286 486 l 192 0 l 35 -17 l 176 708 l 307 725 l 289 600 q 388 703 325 669 q 526 736 450 736 z "},"ň":{"ha":750,"x_min":35,"x_max":719,"o":"m 35 0 m 289 600 q 388 703 325 669 q 526 736 450 736 q 655 691 614 736 q 696 558 696 646 q 683 438 696 503 q 644 269 671 374 q 620 166 631 215 q 610 90 610 117 q 619 53 610 67 q 651 38 628 40 q 615 -11 643 6 q 549 -28 586 -28 q 456 76 456 -28 q 467 176 456 118 q 501 328 479 235 q 532 457 522 410 q 542 535 542 504 q 518 605 542 581 q 453 629 494 629 q 333 558 379 629 q 267 386 286 486 l 192 0 l 35 -17 l 176 708 l 307 725 l 289 600 m 301 983 l 357 1050 l 501 964 l 682 1050 l 719 982 l 493 821 l 485 821 l 301 983 z "},"ņ":{"ha":750,"x_min":35,"x_max":696,"o":"m 35 0 m 289 600 q 388 703 325 669 q 526 736 450 736 q 655 691 614 736 q 696 558 696 646 q 683 438 696 503 q 644 269 671 374 q 620 166 631 215 q 610 90 610 117 q 619 53 610 67 q 651 38 628 40 q 615 -11 643 6 q 549 -28 586 -28 q 456 76 456 -28 q 467 176 456 118 q 501 328 479 235 q 532 457 522 410 q 542 535 542 504 q 518 605 542 581 q 453 629 494 629 q 333 558 379 629 q 267 386 286 486 l 192 0 l 35 -17 l 176 708 l 307 725 l 289 600 m 390 -146 q 365 -231 390 -189 q 298 -301 339 -274 q 215 -329 257 -329 q 176 -314 192 -329 q 233 -222 214 -262 q 251 -135 251 -182 q 242 -83 251 -108 q 314 -68 271 -68 q 369 -87 347 -68 q 390 -146 390 -107 z "},"ṅ":{"ha":750,"x_min":35,"x_max":696,"o":"m 35 0 m 289 600 q 388 703 325 669 q 526 736 450 736 q 655 691 614 736 q 696 558 696 646 q 683 438 696 503 q 644 269 671 374 q 620 166 631 215 q 610 90 610 117 q 619 53 610 67 q 651 38 628 40 q 615 -11 643 6 q 549 -28 586 -28 q 456 76 456 -28 q 467 176 456 118 q 501 328 479 235 q 532 457 522 410 q 542 535 542 504 q 518 605 542 581 q 453 629 494 629 q 333 558 379 629 q 267 386 286 486 l 192 0 l 35 -17 l 176 708 l 307 725 l 289 600 m 485 1006 q 558 983 531 1006 q 586 919 586 961 q 556 853 586 876 q 481 831 526 831 q 407 853 435 831 q 379 917 379 875 q 409 983 379 960 q 485 1006 439 1006 z "},"ŋ":{"ha":751,"x_min":35,"x_max":696,"o":"m 307 725 l 289 600 q 388 703 325 669 q 526 736 450 736 q 655 691 614 736 q 696 558 696 646 q 689 486 696 528 q 677 419 682 444 q 669 382 672 393 q 656 318 664 360 l 601 43 q 506 -201 568 -125 q 365 -278 444 -278 q 301 -258 326 -278 q 271 -197 276 -237 q 359 -162 324 -196 q 419 -57 394 -128 q 469 138 444 14 l 496 269 q 529 440 517 371 q 542 535 542 510 q 518 605 542 581 q 453 629 494 629 q 333 558 379 629 q 267 386 286 486 l 192 0 l 35 -17 l 176 708 l 307 725 z "},"ǌ":{"ha":750,"x_min":35,"x_max":696,"o":"m 481 831 q 407 853 435 831 q 379 917 379 875 q 409 983 379 960 q 485 1006 439 1006 q 558 983 531 1006 q 586 919 586 961 q 556 853 586 876 q 481 831 526 831 m 610 90 q 619 53 610 67 q 651 38 628 40 q 615 -11 643 6 q 549 -28 586 -28 q 456 76 456 -28 q 467 176 456 118 q 501 328 479 235 q 532 457 522 410 q 542 535 542 504 q 504 615 542 592 l 389 43 q 294 -201 356 -125 q 153 -278 232 -278 q 56 -197 68 -278 q 144 -162 108 -196 q 204 -57 179 -128 q 254 138 229 14 l 342 569 q 267 386 290 504 l 192 0 l 35 -17 l 176 708 l 307 725 l 289 600 q 365 689 317 654 l 369 708 l 408 713 q 526 736 460 736 q 655 691 614 736 q 696 558 696 646 q 683 438 696 503 q 644 269 671 374 q 620 166 631 215 q 610 90 610 117 z "},"ñ":{"ha":750,"x_min":35,"x_max":715,"o":"m 35 0 m 289 600 q 388 703 325 669 q 526 736 450 736 q 655 691 614 736 q 696 558 696 646 q 683 438 696 503 q 644 269 671 374 q 620 166 631 215 q 610 90 610 117 q 619 53 610 67 q 651 38 628 40 q 615 -11 643 6 q 549 -28 586 -28 q 456 76 456 -28 q 467 176 456 118 q 501 328 479 235 q 532 457 522 410 q 542 535 542 504 q 518 605 542 581 q 453 629 494 629 q 333 558 379 629 q 267 386 286 486 l 192 0 l 35 -17 l 176 708 l 307 725 l 289 600 m 693 1000 q 715 943 715 974 q 686 881 715 903 q 608 860 657 860 q 493 871 582 860 q 378 882 407 882 q 300 861 326 882 q 276 925 276 896 q 306 981 276 961 q 389 1000 335 1000 q 508 989 422 1000 q 624 978 594 978 q 693 1000 676 978 z "},"o":{"ha":707,"x_min":38,"x_max":669,"o":"m 436 736 q 621 665 572 736 q 669 476 669 594 q 626 228 669 343 q 493 43 583 114 q 269 -28 403 -28 q 86 43 135 -28 q 38 232 38 114 q 81 480 38 365 q 213 665 124 594 q 436 736 303 736 m 406 653 q 293 592 333 653 q 229 429 253 531 q 206 310 215 375 q 197 200 197 246 q 300 56 197 56 q 413 117 372 56 q 478 279 454 178 q 501 398 492 333 q 510 508 510 463 q 406 653 510 653 z "},"ó":{"ha":707,"x_min":38,"x_max":671,"o":"m 38 0 m 436 736 q 621 665 572 736 q 669 476 669 594 q 626 228 669 343 q 493 43 583 114 q 269 -28 403 -28 q 86 43 135 -28 q 38 232 38 114 q 81 480 38 365 q 213 665 124 594 q 436 736 303 736 m 406 653 q 293 592 333 653 q 229 429 253 531 q 206 310 215 375 q 197 200 197 246 q 300 56 197 56 q 413 117 372 56 q 478 279 454 178 q 501 398 492 333 q 510 508 510 463 q 406 653 510 653 m 625 1068 q 660 1038 649 1060 q 671 990 671 1015 q 628 912 671 939 q 510 864 586 885 l 356 822 l 332 879 l 625 1068 z "},"ŏ":{"ha":707,"x_min":38,"x_max":714,"o":"m 38 0 m 436 736 q 621 665 572 736 q 669 476 669 594 q 626 228 669 343 q 493 43 583 114 q 269 -28 403 -28 q 86 43 135 -28 q 38 232 38 114 q 81 480 38 365 q 213 665 124 594 q 436 736 303 736 m 406 653 q 293 592 333 653 q 229 429 253 531 q 206 310 215 375 q 197 200 197 246 q 300 56 197 56 q 413 117 372 56 q 478 279 454 178 q 501 398 492 333 q 510 508 510 463 q 406 653 510 653 m 417 1015 q 411 975 411 989 q 429 919 411 940 q 481 899 447 899 q 559 935 525 899 q 601 1015 593 972 l 714 1015 q 633 881 699 931 q 467 831 567 831 q 337 869 381 831 q 293 976 293 907 q 297 1015 293 994 l 417 1015 z "},"ô":{"ha":707,"x_min":38,"x_max":694,"o":"m 38 0 m 436 736 q 621 665 572 736 q 669 476 669 594 q 626 228 669 343 q 493 43 583 114 q 269 -28 403 -28 q 86 43 135 -28 q 38 232 38 114 q 81 480 38 365 q 213 665 124 594 q 436 736 303 736 m 406 653 q 293 592 333 653 q 229 429 253 531 q 206 310 215 375 q 197 200 197 246 q 300 56 197 56 q 413 117 372 56 q 478 279 454 178 q 501 398 492 333 q 510 508 510 463 q 406 653 510 653 m 694 872 l 639 806 l 493 906 l 313 806 l 275 874 l 501 1035 l 511 1035 l 694 872 z "},"ö":{"ha":707,"x_min":38,"x_max":731,"o":"m 38 0 m 436 736 q 621 665 572 736 q 669 476 669 594 q 626 228 669 343 q 493 43 583 114 q 269 -28 403 -28 q 86 43 135 -28 q 38 232 38 114 q 81 480 38 365 q 213 665 124 594 q 436 736 303 736 m 406 653 q 293 592 333 653 q 229 429 253 531 q 206 310 215 375 q 197 200 197 246 q 300 56 197 56 q 413 117 372 56 q 478 279 454 178 q 501 398 492 333 q 510 508 510 463 q 406 653 510 653 m 629 1006 q 703 983 675 1006 q 731 919 731 961 q 701 853 731 876 q 625 831 671 831 q 551 853 579 831 q 524 917 524 875 q 553 983 524 960 q 629 1006 583 1006 m 346 1006 q 419 983 392 1006 q 447 919 447 961 q 417 853 447 876 q 342 831 388 831 q 268 853 296 831 q 240 917 240 875 q 270 983 240 960 q 346 1006 300 1006 z "},"ọ":{"ha":707,"x_min":38,"x_max":669,"o":"m 38 0 m 436 736 q 621 665 572 736 q 669 476 669 594 q 626 228 669 343 q 493 43 583 114 q 269 -28 403 -28 q 86 43 135 -28 q 38 232 38 114 q 81 480 38 365 q 213 665 124 594 q 436 736 303 736 m 406 653 q 293 592 333 653 q 229 429 253 531 q 206 310 215 375 q 197 200 197 246 q 300 56 197 56 q 413 117 372 56 q 478 279 454 178 q 501 398 492 333 q 510 508 510 463 q 406 653 510 653 m 254 -75 q 328 -97 300 -75 q 356 -161 356 -119 q 326 -227 356 -204 q 250 -250 296 -250 q 176 -228 204 -250 q 149 -164 149 -206 q 178 -98 149 -121 q 254 -75 208 -75 z "},"ò":{"ha":707,"x_min":38,"x_max":669,"o":"m 38 0 m 436 736 q 621 665 572 736 q 669 476 669 594 q 626 228 669 343 q 493 43 583 114 q 269 -28 403 -28 q 86 43 135 -28 q 38 232 38 114 q 81 480 38 365 q 213 665 124 594 q 436 736 303 736 m 406 653 q 293 592 333 653 q 229 429 253 531 q 206 310 215 375 q 197 200 197 246 q 300 56 197 56 q 413 117 372 56 q 478 279 454 178 q 501 398 492 333 q 510 508 510 463 q 406 653 510 653 m 392 864 q 274 912 315 885 q 232 990 232 939 q 243 1038 232 1015 q 276 1068 254 1060 l 571 879 l 547 822 l 392 864 z "},"ő":{"ha":707,"x_min":38,"x_max":796,"o":"m 38 0 m 436 736 q 621 665 572 736 q 669 476 669 594 q 626 228 669 343 q 493 43 583 114 q 269 -28 403 -28 q 86 43 135 -28 q 38 232 38 114 q 81 480 38 365 q 213 665 124 594 q 436 736 303 736 m 406 653 q 293 592 333 653 q 229 429 253 531 q 206 310 215 375 q 197 200 197 246 q 300 56 197 56 q 413 117 372 56 q 478 279 454 178 q 501 398 492 333 q 510 508 510 463 q 406 653 510 653 m 458 1069 q 510 1032 490 1061 q 531 967 531 1003 q 506 897 531 926 q 436 839 481 868 l 325 769 l 271 810 l 458 1069 m 722 1069 q 775 1032 754 1061 q 796 967 796 1003 q 771 897 796 926 q 700 839 746 868 l 589 769 l 535 810 l 722 1069 z "},"ō":{"ha":707,"x_min":38,"x_max":694,"o":"m 38 0 m 436 736 q 621 665 572 736 q 669 476 669 594 q 626 228 669 343 q 493 43 583 114 q 269 -28 403 -28 q 86 43 135 -28 q 38 232 38 114 q 81 480 38 365 q 213 665 124 594 q 436 736 303 736 m 406 653 q 293 592 333 653 q 229 429 253 531 q 206 310 215 375 q 197 200 197 246 q 300 56 197 56 q 413 117 372 56 q 478 279 454 178 q 501 398 492 333 q 510 508 510 463 q 406 653 510 653 m 690 967 q 694 933 694 953 q 670 874 694 896 q 599 853 646 853 l 306 853 q 303 886 303 864 q 327 945 304 924 q 388 967 350 967 l 690 967 z "},"ǫ":{"ha":707,"x_min":38,"x_max":669,"o":"m 397 -8 q 323 -93 350 -44 q 296 -190 296 -142 q 315 -253 296 -233 q 378 -272 333 -272 q 419 -264 399 -272 q 450 -237 439 -256 q 472 -278 472 -254 q 439 -335 472 -311 q 354 -358 406 -358 q 238 -319 281 -358 q 194 -208 194 -279 q 219 -109 194 -156 q 286 -28 244 -62 l 269 -28 q 86 43 135 -28 q 38 232 38 114 q 81 480 38 365 q 213 665 124 594 q 436 736 303 736 q 621 665 572 736 q 669 476 669 594 q 601 172 669 307 q 397 -8 532 38 m 197 200 q 300 56 197 56 q 413 117 372 56 q 478 279 454 178 q 501 398 492 333 q 510 508 510 463 q 406 653 510 653 q 293 592 333 653 q 229 429 253 531 q 206 310 215 375 q 197 200 197 246 z "},"ø":{"ha":707,"x_min":-29,"x_max":736,"o":"m 736 753 q 710 693 736 719 l 646 622 q 669 476 669 565 q 626 228 669 343 q 493 43 583 114 q 269 -28 403 -28 q 104 24 160 -28 l 89 7 q 28 -75 54 -31 q -14 -58 1 -75 q -29 -15 -29 -40 q -4 46 -29 21 l 53 110 q 38 232 38 156 q 81 480 38 365 q 213 665 124 594 q 436 736 303 736 q 581 700 526 736 l 618 742 q 679 818 651 778 q 717 799 699 818 q 736 753 736 781 m 229 431 q 201 276 214 367 l 493 601 q 406 653 468 653 q 293 592 333 653 q 229 431 253 531 m 300 56 q 413 124 368 56 q 481 288 458 193 q 508 469 503 383 l 203 133 q 300 56 225 56 z "},"ǿ":{"ha":707,"x_min":-29,"x_max":736,"o":"m 0 0 m 736 753 q 710 693 736 719 l 646 622 q 669 476 669 565 q 626 228 669 343 q 493 43 583 114 q 269 -28 403 -28 q 104 24 160 -28 l 89 7 q 28 -75 54 -31 q -14 -58 1 -75 q -29 -15 -29 -40 q -4 46 -29 21 l 53 110 q 38 232 38 156 q 81 480 38 365 q 213 665 124 594 q 436 736 303 736 q 581 700 526 736 l 618 742 q 679 818 651 778 q 717 799 699 818 q 736 753 736 781 m 229 431 q 201 276 214 367 l 493 601 q 406 653 468 653 q 293 592 333 653 q 229 431 253 531 m 300 56 q 413 124 368 56 q 481 288 458 193 q 508 469 503 383 l 203 133 q 300 56 225 56 m 622 1068 q 657 1038 646 1060 q 668 990 668 1015 q 626 912 668 939 q 507 864 583 885 l 353 822 l 329 879 l 622 1068 z "},"õ":{"ha":707,"x_min":38,"x_max":701,"o":"m 38 0 m 436 736 q 621 665 572 736 q 669 476 669 594 q 626 228 669 343 q 493 43 583 114 q 269 -28 403 -28 q 86 43 135 -28 q 38 232 38 114 q 81 480 38 365 q 213 665 124 594 q 436 736 303 736 m 406 653 q 293 592 333 653 q 229 429 253 531 q 206 310 215 375 q 197 200 197 246 q 300 56 197 56 q 413 117 372 56 q 478 279 454 178 q 501 398 492 333 q 510 508 510 463 q 406 653 510 653 m 679 1000 q 701 943 701 974 q 672 881 701 903 q 594 860 643 860 q 479 871 568 860 q 364 882 393 882 q 286 861 313 882 q 263 925 263 896 q 292 981 263 961 q 375 1000 321 1000 q 494 989 408 1000 q 610 978 581 978 q 679 1000 663 978 z "},"œ":{"ha":1054,"x_min":38,"x_max":1074,"o":"m 878 736 q 1074 579 1074 736 q 1027 444 1074 500 q 901 358 981 388 q 724 329 821 329 q 647 332 683 329 q 643 249 643 286 q 672 128 643 168 q 772 88 701 88 q 879 117 832 88 q 953 197 926 146 q 978 178 969 193 q 986 142 986 163 q 953 61 986 100 q 860 -3 919 22 q 729 -28 801 -28 q 608 -5 663 -28 q 522 67 553 18 q 412 -5 471 18 q 276 -28 353 -28 q 91 37 144 -28 q 38 235 38 101 q 81 480 38 365 q 213 665 124 594 q 431 736 301 736 q 558 712 504 736 q 635 643 611 688 q 878 736 732 736 m 850 657 q 726 577 778 657 q 657 400 675 497 q 843 444 764 400 q 922 576 922 489 q 903 637 922 617 q 850 657 885 657 m 300 56 q 413 117 372 56 q 478 279 454 178 q 501 398 492 333 q 510 508 510 463 q 406 653 510 653 q 293 592 333 653 q 229 429 253 531 q 206 310 215 375 q 197 200 197 246 q 300 56 197 56 z "},"p":{"ha":738,"x_min":-11,"x_max":701,"o":"m 288 600 q 389 699 326 663 q 524 736 451 736 q 660 670 619 736 q 701 483 701 604 q 659 238 701 354 q 530 47 617 121 q 317 -28 443 -28 q 193 -4 257 -28 l 144 -250 l -11 -267 l 175 708 l 306 725 l 288 600 m 214 99 q 271 67 239 78 q 332 56 303 56 q 446 118 406 56 q 510 279 486 181 q 533 397 524 333 q 542 506 542 461 q 520 598 542 567 q 450 629 499 629 q 336 572 381 629 q 275 429 292 514 l 214 99 z "},"þ":{"ha":736,"x_min":-12,"x_max":700,"o":"m 353 832 q 326 713 342 774 q 297 617 311 653 q 397 703 338 671 q 522 736 456 736 q 659 670 618 736 q 700 483 700 604 q 658 238 700 354 q 528 47 615 121 q 315 -28 442 -28 q 192 -4 256 -28 l 143 -250 l -12 -267 l 226 972 l 383 989 l 353 832 m 213 99 q 269 67 238 78 q 331 56 301 56 q 444 118 404 56 q 508 279 485 181 q 531 397 522 333 q 540 506 540 461 q 519 598 540 567 q 449 629 497 629 q 335 572 379 629 q 274 429 290 514 l 213 99 z "},"q":{"ha":703,"x_min":36,"x_max":699,"o":"m 515 -264 l 358 -281 l 388 -124 q 440 93 417 31 q 346 3 403 35 q 221 -28 289 -28 q 78 38 121 -28 q 36 225 36 104 q 78 471 36 354 q 208 662 121 588 q 421 736 294 736 q 490 729 458 736 q 561 707 521 722 l 699 725 l 515 -264 m 525 611 q 467 642 500 631 q 404 653 435 653 q 292 591 333 653 q 228 429 251 529 q 206 311 215 375 q 196 203 196 247 q 217 111 196 143 q 285 79 238 79 q 407 151 361 79 q 472 322 453 224 l 525 611 z "},"r":{"ha":586,"x_min":35,"x_max":615,"o":"m 286 600 q 367 699 314 661 q 485 736 421 736 q 582 697 549 736 q 615 597 615 658 q 577 478 615 528 q 479 429 539 429 q 418 454 435 429 q 447 511 435 478 q 458 572 458 544 q 408 629 458 629 q 264 386 308 629 l 196 0 l 35 -17 l 174 708 l 304 725 l 286 600 z "},"ŕ":{"ha":586,"x_min":35,"x_max":615,"o":"m 35 0 m 286 600 q 367 699 314 661 q 485 736 421 736 q 582 697 549 736 q 615 597 615 658 q 577 478 615 528 q 479 429 539 429 q 418 454 435 429 q 447 511 435 478 q 458 572 458 544 q 408 629 458 629 q 264 386 308 629 l 196 0 l 35 -17 l 174 708 l 304 725 l 286 600 m 429 1068 q 464 1038 453 1060 q 475 990 475 1015 q 433 912 475 939 q 314 864 390 885 l 160 822 l 136 879 l 429 1068 z "},"ř":{"ha":586,"x_min":35,"x_max":615,"o":"m 35 0 m 286 600 q 367 699 314 661 q 485 736 421 736 q 582 697 549 736 q 615 597 615 658 q 577 478 615 528 q 479 429 539 429 q 418 454 435 429 q 447 511 435 478 q 458 572 458 544 q 408 629 458 629 q 264 386 308 629 l 196 0 l 35 -17 l 174 708 l 304 725 l 286 600 m 92 983 l 147 1050 l 292 964 l 472 1050 l 510 982 l 283 821 l 275 821 l 92 983 z "},"ŗ":{"ha":586,"x_min":-15,"x_max":615,"o":"m 0 0 m 286 600 q 367 699 314 661 q 485 736 421 736 q 582 697 549 736 q 615 597 615 658 q 577 478 615 528 q 479 429 539 429 q 418 454 435 429 q 447 511 435 478 q 458 572 458 544 q 408 629 458 629 q 264 386 308 629 l 196 0 l 35 -17 l 174 708 l 304 725 l 286 600 m 199 -146 q 173 -231 199 -189 q 106 -301 147 -274 q 24 -329 65 -329 q -15 -314 0 -329 q 41 -222 22 -262 q 60 -135 60 -182 q 50 -83 60 -108 q 122 -68 79 -68 q 177 -87 156 -68 q 199 -146 199 -107 z "},"ṛ":{"ha":586,"x_min":4,"x_max":615,"o":"m 4 0 m 286 600 q 367 699 314 661 q 485 736 421 736 q 582 697 549 736 q 615 597 615 658 q 577 478 615 528 q 479 429 539 429 q 418 454 435 429 q 447 511 435 478 q 458 572 458 544 q 408 629 458 629 q 264 386 308 629 l 196 0 l 35 -17 l 174 708 l 304 725 l 286 600 m 110 -75 q 183 -97 156 -75 q 211 -161 211 -119 q 181 -227 211 -204 q 106 -250 151 -250 q 32 -228 60 -250 q 4 -164 4 -206 q 34 -98 4 -121 q 110 -75 64 -75 z "},"s":{"ha":578,"x_min":-10,"x_max":579,"o":"m 361 150 q 331 229 361 196 q 239 306 301 263 q 125 401 165 356 q 85 517 85 447 q 126 633 85 583 q 237 710 168 683 q 382 736 306 736 q 522 705 465 736 q 579 604 579 674 q 544 521 579 551 q 458 490 510 490 q 403 506 419 490 q 422 588 422 554 q 343 665 422 665 q 266 638 294 665 q 238 565 238 611 q 267 485 238 518 q 358 410 297 453 q 440 348 408 375 q 492 283 471 321 q 514 197 514 246 q 472 78 514 129 q 362 -2 431 26 q 217 -31 293 -31 q 58 7 126 -31 q -10 113 -10 44 q 30 191 -10 165 q 119 217 69 217 q 179 200 158 217 q 160 118 160 158 q 242 40 160 40 q 327 71 293 40 q 361 150 361 101 z "},"ś":{"ha":578,"x_min":-10,"x_max":589,"o":"m 0 0 m 361 150 q 331 229 361 196 q 239 306 301 263 q 125 401 165 356 q 85 517 85 447 q 126 633 85 583 q 237 710 168 683 q 382 736 306 736 q 522 705 465 736 q 579 604 579 674 q 544 521 579 551 q 458 490 510 490 q 403 506 419 490 q 422 588 422 554 q 343 665 422 665 q 266 638 294 665 q 238 565 238 611 q 267 485 238 518 q 358 410 297 453 q 440 348 408 375 q 492 283 471 321 q 514 197 514 246 q 472 78 514 129 q 362 -2 431 26 q 217 -31 293 -31 q 58 7 126 -31 q -10 113 -10 44 q 30 191 -10 165 q 119 217 69 217 q 179 200 158 217 q 160 118 160 158 q 242 40 160 40 q 327 71 293 40 q 361 150 361 101 m 543 1068 q 578 1038 567 1060 q 589 990 589 1015 q 547 912 589 939 q 428 864 504 885 l 274 822 l 250 879 l 543 1068 z "},"š":{"ha":578,"x_min":-10,"x_max":624,"o":"m 0 0 m 361 150 q 331 229 361 196 q 239 306 301 263 q 125 401 165 356 q 85 517 85 447 q 126 633 85 583 q 237 710 168 683 q 382 736 306 736 q 522 705 465 736 q 579 604 579 674 q 544 521 579 551 q 458 490 510 490 q 403 506 419 490 q 422 588 422 554 q 343 665 422 665 q 266 638 294 665 q 238 565 238 611 q 267 485 238 518 q 358 410 297 453 q 440 348 408 375 q 492 283 471 321 q 514 197 514 246 q 472 78 514 129 q 362 -2 431 26 q 217 -31 293 -31 q 58 7 126 -31 q -10 113 -10 44 q 30 191 -10 165 q 119 217 69 217 q 179 200 158 217 q 160 118 160 158 q 242 40 160 40 q 327 71 293 40 q 361 150 361 101 m 206 983 l 261 1050 l 406 964 l 586 1050 l 624 982 l 397 821 l 389 821 l 206 983 z "},"ş":{"ha":578,"x_min":-10,"x_max":579,"o":"m 458 490 q 403 506 419 490 q 422 588 422 554 q 343 665 422 665 q 266 638 294 665 q 238 565 238 611 q 267 485 238 518 q 358 410 297 453 q 440 348 408 375 q 492 283 471 321 q 514 197 514 246 q 475 81 514 132 q 372 2 436 31 q 235 -31 308 -26 l 217 -92 q 272 -89 244 -89 q 371 -115 333 -89 q 408 -194 408 -140 q 349 -307 408 -262 q 200 -351 289 -351 q 113 -334 146 -351 q 81 -285 81 -317 q 103 -239 81 -256 q 190 -278 126 -278 q 263 -262 232 -278 q 293 -211 293 -247 q 183 -154 293 -154 q 132 -157 168 -154 l 171 -28 q 42 18 94 -18 q -10 113 -10 54 q 30 191 -10 165 q 119 217 69 217 q 179 200 158 217 q 160 118 160 158 q 242 40 160 40 q 327 71 293 40 q 361 150 361 101 q 331 229 361 196 q 239 306 301 263 q 125 401 165 356 q 85 517 85 447 q 126 633 85 583 q 237 710 168 683 q 382 736 306 736 q 522 705 465 736 q 579 604 579 674 q 544 521 579 551 q 458 490 510 490 z "},"ŝ":{"ha":578,"x_min":-10,"x_max":613,"o":"m 0 0 m 361 150 q 331 229 361 196 q 239 306 301 263 q 125 401 165 356 q 85 517 85 447 q 126 633 85 583 q 237 710 168 683 q 382 736 306 736 q 522 705 465 736 q 579 604 579 674 q 544 521 579 551 q 458 490 510 490 q 403 506 419 490 q 422 588 422 554 q 343 665 422 665 q 266 638 294 665 q 238 565 238 611 q 267 485 238 518 q 358 410 297 453 q 440 348 408 375 q 492 283 471 321 q 514 197 514 246 q 472 78 514 129 q 362 -2 431 26 q 217 -31 293 -31 q 58 7 126 -31 q -10 113 -10 44 q 30 191 -10 165 q 119 217 69 217 q 179 200 158 217 q 160 118 160 158 q 242 40 160 40 q 327 71 293 40 q 361 150 361 101 m 613 872 l 557 806 l 411 906 l 231 806 l 193 874 l 419 1035 l 429 1035 l 613 872 z "},"ș":{"ha":578,"x_min":-10,"x_max":579,"o":"m 0 0 m 361 150 q 331 229 361 196 q 239 306 301 263 q 125 401 165 356 q 85 517 85 447 q 126 633 85 583 q 237 710 168 683 q 382 736 306 736 q 522 705 465 736 q 579 604 579 674 q 544 521 579 551 q 458 490 510 490 q 403 506 419 490 q 422 588 422 554 q 343 665 422 665 q 266 638 294 665 q 238 565 238 611 q 267 485 238 518 q 358 410 297 453 q 440 348 408 375 q 492 283 471 321 q 514 197 514 246 q 472 78 514 129 q 362 -2 431 26 q 217 -31 293 -31 q 58 7 126 -31 q -10 113 -10 44 q 30 191 -10 165 q 119 217 69 217 q 179 200 158 217 q 160 118 160 158 q 242 40 160 40 q 327 71 293 40 q 361 150 361 101 m 289 -146 q 263 -231 289 -189 q 197 -301 238 -274 q 114 -329 156 -329 q 75 -314 90 -329 q 131 -222 113 -262 q 150 -135 150 -182 q 140 -83 150 -108 q 213 -68 169 -68 q 267 -87 246 -68 q 289 -146 289 -107 z "},"ṣ":{"ha":578,"x_min":-10,"x_max":579,"o":"m 0 0 m 361 150 q 331 229 361 196 q 239 306 301 263 q 125 401 165 356 q 85 517 85 447 q 126 633 85 583 q 237 710 168 683 q 382 736 306 736 q 522 705 465 736 q 579 604 579 674 q 544 521 579 551 q 458 490 510 490 q 403 506 419 490 q 422 588 422 554 q 343 665 422 665 q 266 638 294 665 q 238 565 238 611 q 267 485 238 518 q 358 410 297 453 q 440 348 408 375 q 492 283 471 321 q 514 197 514 246 q 472 78 514 129 q 362 -2 431 26 q 217 -31 293 -31 q 58 7 126 -31 q -10 113 -10 44 q 30 191 -10 165 q 119 217 69 217 q 179 200 158 217 q 160 118 160 158 q 242 40 160 40 q 327 71 293 40 q 361 150 361 101 m 200 -75 q 274 -97 246 -75 q 301 -161 301 -119 q 272 -227 301 -204 q 196 -250 242 -250 q 122 -228 150 -250 q 94 -164 94 -206 q 124 -98 94 -121 q 200 -75 154 -75 z "},"ß":{"ha":857,"x_min":-121,"x_max":836,"o":"m 153 782 q 456 1000 194 1000 q 643 958 571 1000 q 715 832 715 915 q 692 733 715 769 q 624 656 668 696 q 575 604 590 625 q 560 553 560 583 q 590 477 560 507 q 686 406 621 447 q 765 346 736 371 q 815 284 794 321 q 836 199 836 247 q 794 78 836 131 q 685 -2 753 26 q 540 -31 617 -31 q 383 6 451 -31 q 314 113 314 43 q 353 191 314 165 q 443 217 393 217 q 503 200 482 217 q 483 118 483 158 q 565 40 483 40 q 651 71 617 40 q 685 150 685 101 q 651 235 685 201 q 549 315 618 269 q 444 401 481 360 q 407 506 407 442 q 425 578 407 547 q 479 649 443 608 q 540 730 519 696 q 560 817 560 764 q 534 906 560 872 q 453 939 508 939 q 363 900 394 939 q 317 788 331 861 l 172 97 q 97 -137 143 -51 q -29 -222 50 -222 q -85 -208 -60 -222 q -121 -168 -110 -194 q -40 -83 -68 -147 q 4 69 -12 -19 l 153 782 z "},"ſ":{"ha":400,"x_min":6,"x_max":636,"o":"m 165 783 q 444 1000 208 1000 q 582 972 528 1000 q 636 886 636 944 q 605 816 636 842 q 529 790 574 790 q 469 806 490 790 q 489 875 489 840 q 429 939 489 939 q 355 902 381 939 q 317 803 329 865 l 167 0 l 6 -17 l 165 783 z "},"t":{"ha":415,"x_min":83,"x_max":467,"o":"m 358 708 l 467 708 l 454 646 l 344 646 l 244 144 q 238 86 238 107 q 279 38 238 42 q 242 -11 271 6 q 176 -28 213 -28 q 108 -3 132 -28 q 83 68 83 22 q 138 381 83 131 l 151 447 l 190 646 l 92 646 l 97 688 q 229 754 165 713 q 342 846 293 796 l 386 846 l 358 708 z "},"ŧ":{"ha":415,"x_min":15,"x_max":467,"o":"m 463 458 q 467 425 467 444 q 388 358 467 358 l 288 358 l 244 144 q 238 86 238 107 q 279 38 238 42 q 242 -11 271 6 q 176 -28 213 -28 q 108 -3 132 -28 q 83 68 83 22 q 133 358 83 133 l 17 358 q 15 392 15 369 q 85 458 18 458 l 154 458 l 190 646 l 92 646 l 97 688 q 229 754 165 713 q 342 846 293 796 l 386 846 l 358 708 l 467 708 l 454 646 l 344 646 l 307 458 l 463 458 z "},"ť":{"ha":415,"x_min":83,"x_max":600,"o":"m 458 983 q 489 995 469 990 q 526 1000 508 1000 q 580 979 560 1000 q 600 917 600 958 q 576 831 600 871 q 514 766 551 790 q 439 742 476 742 q 396 750 418 742 q 451 837 433 796 q 469 928 469 878 q 458 983 469 957 m 358 708 l 467 708 l 454 646 l 344 646 l 244 144 q 238 86 238 107 q 279 38 238 42 q 242 -11 271 6 q 176 -28 213 -28 q 108 -3 132 -28 q 83 68 83 22 q 138 381 83 131 l 151 447 l 190 646 l 92 646 l 97 688 q 229 754 165 713 q 342 846 293 796 l 386 846 l 358 708 z "},"ţ":{"ha":415,"x_min":22,"x_max":467,"o":"m 244 144 q 238 86 238 107 q 279 38 238 42 q 242 -11 271 6 q 178 -28 214 -28 l 158 -92 q 214 -89 186 -89 q 313 -115 275 -89 q 350 -194 350 -140 q 290 -307 350 -262 q 142 -351 231 -351 q 55 -334 88 -351 q 22 -285 22 -317 q 44 -239 22 -256 q 132 -278 68 -278 q 204 -262 174 -278 q 235 -211 235 -247 q 125 -154 235 -154 q 74 -157 110 -154 l 117 -11 q 83 68 83 14 q 138 381 83 131 l 151 447 l 190 646 l 92 646 l 97 688 q 229 754 165 713 q 342 846 293 796 l 386 846 l 358 708 l 467 708 l 454 646 l 344 646 l 244 144 z "},"ț":{"ha":415,"x_min":17,"x_max":467,"o":"m 17 0 m 358 708 l 467 708 l 454 646 l 344 646 l 244 144 q 238 86 238 107 q 279 38 238 42 q 242 -11 271 6 q 176 -28 213 -28 q 108 -3 132 -28 q 83 68 83 22 q 138 381 83 131 l 151 447 l 190 646 l 92 646 l 97 688 q 229 754 165 713 q 342 846 293 796 l 386 846 l 358 708 m 231 -146 q 205 -231 231 -189 q 138 -301 179 -274 q 56 -329 97 -329 q 17 -314 32 -329 q 73 -222 54 -262 q 92 -135 92 -182 q 82 -83 92 -108 q 154 -68 111 -68 q 209 -87 188 -68 q 231 -146 231 -107 z "},"ṭ":{"ha":415,"x_min":36,"x_max":467,"o":"m 36 0 m 358 708 l 467 708 l 454 646 l 344 646 l 244 144 q 238 86 238 107 q 279 38 238 42 q 242 -11 271 6 q 176 -28 213 -28 q 108 -3 132 -28 q 83 68 83 22 q 138 381 83 131 l 151 447 l 190 646 l 92 646 l 97 688 q 229 754 165 713 q 342 846 293 796 l 386 846 l 358 708 m 142 -75 q 215 -97 188 -75 q 243 -161 243 -119 q 213 -227 243 -204 q 138 -250 183 -250 q 64 -228 92 -250 q 36 -164 36 -206 q 66 -98 36 -121 q 142 -75 96 -75 z "},"u":{"ha":733,"x_min":53,"x_max":701,"o":"m 589 144 q 582 86 582 103 q 624 38 582 42 q 587 -11 615 6 q 522 -28 558 -28 q 458 -7 483 -28 q 428 51 432 14 q 349 -8 400 11 q 239 -28 297 -28 q 97 26 142 -28 q 53 171 53 79 q 63 279 53 218 q 94 431 74 340 l 158 708 l 310 725 l 243 429 q 217 296 229 368 q 204 179 204 224 q 226 91 204 126 q 296 56 247 56 q 404 121 364 56 q 463 279 444 186 l 546 708 l 701 725 l 589 144 z "},"ú":{"ha":733,"x_min":53,"x_max":701,"o":"m 53 0 m 589 144 q 582 86 582 103 q 624 38 582 42 q 587 -11 615 6 q 522 -28 558 -28 q 458 -7 483 -28 q 428 51 432 14 q 349 -8 400 11 q 239 -28 297 -28 q 97 26 142 -28 q 53 171 53 79 q 63 279 53 218 q 94 431 74 340 l 158 708 l 310 725 l 243 429 q 217 296 229 368 q 204 179 204 224 q 226 91 204 126 q 296 56 247 56 q 404 121 364 56 q 463 279 444 186 l 546 708 l 701 725 l 589 144 m 617 1068 q 651 1038 640 1060 q 663 990 663 1015 q 620 912 663 939 q 501 864 578 885 l 347 822 l 324 879 l 617 1068 z "},"ŭ":{"ha":733,"x_min":53,"x_max":706,"o":"m 53 0 m 589 144 q 582 86 582 103 q 624 38 582 42 q 587 -11 615 6 q 522 -28 558 -28 q 458 -7 483 -28 q 428 51 432 14 q 349 -8 400 11 q 239 -28 297 -28 q 97 26 142 -28 q 53 171 53 79 q 63 279 53 218 q 94 431 74 340 l 158 708 l 310 725 l 243 429 q 217 296 229 368 q 204 179 204 224 q 226 91 204 126 q 296 56 247 56 q 404 121 364 56 q 463 279 444 186 l 546 708 l 701 725 l 589 144 m 408 1015 q 403 975 403 989 q 421 919 403 940 q 472 899 439 899 q 551 935 517 899 q 593 1015 585 972 l 706 1015 q 624 881 690 931 q 458 831 558 831 q 328 869 372 831 q 285 976 285 907 q 289 1015 285 994 l 408 1015 z "},"û":{"ha":733,"x_min":53,"x_max":701,"o":"m 53 0 m 589 144 q 582 86 582 103 q 624 38 582 42 q 587 -11 615 6 q 522 -28 558 -28 q 458 -7 483 -28 q 428 51 432 14 q 349 -8 400 11 q 239 -28 297 -28 q 97 26 142 -28 q 53 171 53 79 q 63 279 53 218 q 94 431 74 340 l 158 708 l 310 725 l 243 429 q 217 296 229 368 q 204 179 204 224 q 226 91 204 126 q 296 56 247 56 q 404 121 364 56 q 463 279 444 186 l 546 708 l 701 725 l 589 144 m 686 872 l 631 806 l 485 906 l 304 806 l 267 874 l 493 1035 l 503 1035 l 686 872 z "},"ü":{"ha":733,"x_min":53,"x_max":722,"o":"m 53 0 m 589 144 q 582 86 582 103 q 624 38 582 42 q 587 -11 615 6 q 522 -28 558 -28 q 458 -7 483 -28 q 428 51 432 14 q 349 -8 400 11 q 239 -28 297 -28 q 97 26 142 -28 q 53 171 53 79 q 63 279 53 218 q 94 431 74 340 l 158 708 l 310 725 l 243 429 q 217 296 229 368 q 204 179 204 224 q 226 91 204 126 q 296 56 247 56 q 404 121 364 56 q 463 279 444 186 l 546 708 l 701 725 l 589 144 m 621 1006 q 694 983 667 1006 q 722 919 722 961 q 692 853 722 876 q 617 831 663 831 q 543 853 571 831 q 515 917 515 875 q 545 983 515 960 q 621 1006 575 1006 m 338 1006 q 411 983 383 1006 q 439 919 439 961 q 409 853 439 876 q 333 831 379 831 q 260 853 288 831 q 232 917 232 875 q 262 983 232 960 q 338 1006 292 1006 z "},"ụ":{"ha":733,"x_min":53,"x_max":701,"o":"m 53 0 m 589 144 q 582 86 582 103 q 624 38 582 42 q 587 -11 615 6 q 522 -28 558 -28 q 458 -7 483 -28 q 428 51 432 14 q 349 -8 400 11 q 239 -28 297 -28 q 97 26 142 -28 q 53 171 53 79 q 63 279 53 218 q 94 431 74 340 l 158 708 l 310 725 l 243 429 q 217 296 229 368 q 204 179 204 224 q 226 91 204 126 q 296 56 247 56 q 404 121 364 56 q 463 279 444 186 l 546 708 l 701 725 l 589 144 m 254 -75 q 328 -97 300 -75 q 356 -161 356 -119 q 326 -227 356 -204 q 250 -250 296 -250 q 176 -228 204 -250 q 149 -164 149 -206 q 178 -98 149 -121 q 254 -75 208 -75 z "},"ù":{"ha":733,"x_min":53,"x_max":701,"o":"m 53 0 m 589 144 q 582 86 582 103 q 624 38 582 42 q 587 -11 615 6 q 522 -28 558 -28 q 458 -7 483 -28 q 428 51 432 14 q 349 -8 400 11 q 239 -28 297 -28 q 97 26 142 -28 q 53 171 53 79 q 63 279 53 218 q 94 431 74 340 l 158 708 l 310 725 l 243 429 q 217 296 229 368 q 204 179 204 224 q 226 91 204 126 q 296 56 247 56 q 404 121 364 56 q 463 279 444 186 l 546 708 l 701 725 l 589 144 m 383 864 q 265 912 307 885 q 224 990 224 939 q 235 1038 224 1015 q 268 1068 246 1060 l 563 879 l 539 822 l 383 864 z "},"ű":{"ha":733,"x_min":53,"x_max":788,"o":"m 53 0 m 589 144 q 582 86 582 103 q 624 38 582 42 q 587 -11 615 6 q 522 -28 558 -28 q 458 -7 483 -28 q 428 51 432 14 q 349 -8 400 11 q 239 -28 297 -28 q 97 26 142 -28 q 53 171 53 79 q 63 279 53 218 q 94 431 74 340 l 158 708 l 310 725 l 243 429 q 217 296 229 368 q 204 179 204 224 q 226 91 204 126 q 296 56 247 56 q 404 121 364 56 q 463 279 444 186 l 546 708 l 701 725 l 589 144 m 450 1069 q 502 1032 482 1061 q 522 967 522 1003 q 497 897 522 926 q 428 839 472 868 l 317 769 l 263 810 l 450 1069 m 714 1069 q 767 1032 746 1061 q 788 967 788 1003 q 763 897 788 926 q 692 839 738 868 l 581 769 l 526 810 l 714 1069 z "},"ū":{"ha":733,"x_min":53,"x_max":701,"o":"m 53 0 m 589 144 q 582 86 582 103 q 624 38 582 42 q 587 -11 615 6 q 522 -28 558 -28 q 458 -7 483 -28 q 428 51 432 14 q 349 -8 400 11 q 239 -28 297 -28 q 97 26 142 -28 q 53 171 53 79 q 63 279 53 218 q 94 431 74 340 l 158 708 l 310 725 l 243 429 q 217 296 229 368 q 204 179 204 224 q 226 91 204 126 q 296 56 247 56 q 404 121 364 56 q 463 279 444 186 l 546 708 l 701 725 l 589 144 m 682 967 q 686 933 686 953 q 662 874 686 896 q 590 853 638 853 l 297 853 q 294 886 294 864 q 319 945 296 924 q 379 967 342 967 l 682 967 z "},"ų":{"ha":733,"x_min":53,"x_max":701,"o":"m 633 -237 q 656 -278 656 -254 q 622 -335 656 -311 q 538 -358 589 -358 q 421 -319 464 -358 q 378 -208 378 -279 q 406 -103 378 -151 q 479 -19 433 -56 q 428 51 435 -3 q 349 -8 400 11 q 239 -28 297 -28 q 97 26 142 -28 q 53 171 53 79 q 63 279 53 218 q 94 431 74 340 l 158 708 l 310 725 l 243 429 q 217 296 229 368 q 204 179 204 224 q 226 91 204 126 q 296 56 247 56 q 404 121 364 56 q 463 279 444 186 l 546 708 l 701 725 l 589 144 q 582 86 582 103 q 624 38 582 42 q 564 -22 613 -6 q 502 -101 525 -57 q 479 -190 479 -146 q 498 -253 479 -233 q 561 -272 517 -272 q 602 -264 582 -272 q 633 -237 622 -256 z "},"ů":{"ha":733,"x_min":53,"x_max":701,"o":"m 53 0 m 589 144 q 582 86 582 103 q 624 38 582 42 q 587 -11 615 6 q 522 -28 558 -28 q 458 -7 483 -28 q 428 51 432 14 q 349 -8 400 11 q 239 -28 297 -28 q 97 26 142 -28 q 53 171 53 79 q 63 279 53 218 q 94 431 74 340 l 158 708 l 310 725 l 243 429 q 217 296 229 368 q 204 179 204 224 q 226 91 204 126 q 296 56 247 56 q 404 121 364 56 q 463 279 444 186 l 546 708 l 701 725 l 589 144 m 440 789 q 351 817 382 789 q 319 900 319 846 q 370 1013 319 971 q 496 1056 421 1056 q 587 1027 554 1056 q 619 944 619 999 q 567 831 619 874 q 440 789 515 789 m 450 833 q 510 865 485 833 q 535 940 535 897 q 521 989 535 971 q 481 1007 507 1007 q 424 975 446 1007 q 401 899 401 943 q 450 833 401 833 z "},"ũ":{"ha":733,"x_min":53,"x_max":701,"o":"m 53 0 m 589 144 q 582 86 582 103 q 624 38 582 42 q 587 -11 615 6 q 522 -28 558 -28 q 458 -7 483 -28 q 428 51 432 14 q 349 -8 400 11 q 239 -28 297 -28 q 97 26 142 -28 q 53 171 53 79 q 63 279 53 218 q 94 431 74 340 l 158 708 l 310 725 l 243 429 q 217 296 229 368 q 204 179 204 224 q 226 91 204 126 q 296 56 247 56 q 404 121 364 56 q 463 279 444 186 l 546 708 l 701 725 l 589 144 m 671 1000 q 693 943 693 974 q 664 881 693 903 q 586 860 635 860 q 471 871 560 860 q 356 882 385 882 q 278 861 304 882 q 254 925 254 896 q 283 981 254 961 q 367 1000 313 1000 q 486 989 400 1000 q 601 978 572 978 q 671 1000 654 978 z "},"v":{"ha":629,"x_min":42,"x_max":653,"o":"m 135 -15 q 99 569 125 396 q 78 656 90 628 q 42 699 67 683 q 136 736 71 736 q 228 698 201 736 q 263 569 254 660 q 271 260 271 478 q 269 100 271 161 q 418 357 356 213 q 481 618 481 501 q 471 699 481 660 q 517 726 489 715 q 575 736 546 736 q 635 714 618 736 q 653 646 653 692 q 604 442 653 558 q 486 232 556 326 q 390 115 449 179 q 272 0 332 51 l 135 -15 z "},"w":{"ha":975,"x_min":42,"x_max":999,"o":"m 135 -15 q 99 569 125 396 q 78 656 90 628 q 42 699 67 683 q 136 736 71 736 q 228 698 201 736 q 263 569 254 660 q 269 322 269 490 l 268 100 q 408 349 350 201 q 467 617 467 497 q 457 699 467 660 q 499 725 474 714 q 551 736 524 736 q 607 708 594 736 q 624 618 619 679 q 630 464 628 561 q 632 297 632 367 q 629 100 632 253 q 769 349 711 201 q 828 617 828 497 q 818 699 828 660 q 865 726 836 715 q 922 736 893 736 q 981 714 964 736 q 999 646 999 692 q 950 444 999 558 q 832 232 901 329 q 742 118 797 183 q 632 0 688 53 l 496 -15 q 486 254 492 144 q 387 117 439 176 q 272 0 335 57 l 135 -15 z "},"ẃ":{"ha":975,"x_min":42,"x_max":999,"o":"m 42 0 m 135 -15 q 99 569 125 396 q 78 656 90 628 q 42 699 67 683 q 136 736 71 736 q 228 698 201 736 q 263 569 254 660 q 269 322 269 490 l 268 100 q 408 349 350 201 q 467 617 467 497 q 457 699 467 660 q 499 725 474 714 q 551 736 524 736 q 607 708 594 736 q 624 618 619 679 q 630 464 628 561 q 632 297 632 367 q 629 100 632 253 q 769 349 711 201 q 828 617 828 497 q 818 699 828 660 q 865 726 836 715 q 922 736 893 736 q 981 714 964 736 q 999 646 999 692 q 950 444 999 558 q 832 232 901 329 q 742 118 797 183 q 632 0 688 53 l 496 -15 q 486 254 492 144 q 387 117 439 176 q 272 0 335 57 l 135 -15 m 732 1068 q 767 1038 756 1060 q 778 990 778 1015 q 735 912 778 939 q 617 864 693 885 l 463 822 l 439 879 l 732 1068 z "},"ŵ":{"ha":975,"x_min":42,"x_max":999,"o":"m 42 0 m 135 -15 q 99 569 125 396 q 78 656 90 628 q 42 699 67 683 q 136 736 71 736 q 228 698 201 736 q 263 569 254 660 q 269 322 269 490 l 268 100 q 408 349 350 201 q 467 617 467 497 q 457 699 467 660 q 499 725 474 714 q 551 736 524 736 q 607 708 594 736 q 624 618 619 679 q 630 464 628 561 q 632 297 632 367 q 629 100 632 253 q 769 349 711 201 q 828 617 828 497 q 818 699 828 660 q 865 726 836 715 q 922 736 893 736 q 981 714 964 736 q 999 646 999 692 q 950 444 999 558 q 832 232 901 329 q 742 118 797 183 q 632 0 688 53 l 496 -15 q 486 254 492 144 q 387 117 439 176 q 272 0 335 57 l 135 -15 m 801 872 l 746 806 l 600 906 l 419 806 l 382 874 l 608 1035 l 618 1035 l 801 872 z "},"ẅ":{"ha":975,"x_min":42,"x_max":999,"o":"m 42 0 m 135 -15 q 99 569 125 396 q 78 656 90 628 q 42 699 67 683 q 136 736 71 736 q 228 698 201 736 q 263 569 254 660 q 269 322 269 490 l 268 100 q 408 349 350 201 q 467 617 467 497 q 457 699 467 660 q 499 725 474 714 q 551 736 524 736 q 607 708 594 736 q 624 618 619 679 q 630 464 628 561 q 632 297 632 367 q 629 100 632 253 q 769 349 711 201 q 828 617 828 497 q 818 699 828 660 q 865 726 836 715 q 922 736 893 736 q 981 714 964 736 q 999 646 999 692 q 950 444 999 558 q 832 232 901 329 q 742 118 797 183 q 632 0 688 53 l 496 -15 q 486 254 492 144 q 387 117 439 176 q 272 0 335 57 l 135 -15 m 736 1006 q 810 983 782 1006 q 838 919 838 961 q 808 853 838 876 q 732 831 778 831 q 658 853 686 831 q 631 917 631 875 q 660 983 631 960 q 736 1006 690 1006 m 453 1006 q 526 983 499 1006 q 554 919 554 961 q 524 853 554 876 q 449 831 494 831 q 375 853 403 831 q 347 917 347 875 q 377 983 347 960 q 453 1006 407 1006 z "},"ẁ":{"ha":975,"x_min":42,"x_max":999,"o":"m 42 0 m 135 -15 q 99 569 125 396 q 78 656 90 628 q 42 699 67 683 q 136 736 71 736 q 228 698 201 736 q 263 569 254 660 q 269 322 269 490 l 268 100 q 408 349 350 201 q 467 617 467 497 q 457 699 467 660 q 499 725 474 714 q 551 736 524 736 q 607 708 594 736 q 624 618 619 679 q 630 464 628 561 q 632 297 632 367 q 629 100 632 253 q 769 349 711 201 q 828 617 828 497 q 818 699 828 660 q 865 726 836 715 q 922 736 893 736 q 981 714 964 736 q 999 646 999 692 q 950 444 999 558 q 832 232 901 329 q 742 118 797 183 q 632 0 688 53 l 496 -15 q 486 254 492 144 q 387 117 439 176 q 272 0 335 57 l 135 -15 m 499 864 q 381 912 422 885 q 339 990 339 939 q 350 1038 339 1015 q 383 1068 361 1060 l 678 879 l 654 822 l 499 864 z "},"x":{"ha":597,"x_min":-21,"x_max":621,"o":"m 135 574 q 33 660 104 653 q 65 716 39 696 q 133 736 92 736 q 225 697 190 736 q 293 578 260 657 l 354 431 q 430 522 404 479 q 456 614 456 564 q 435 704 456 656 q 475 726 450 718 q 526 735 500 735 q 597 708 574 735 q 621 638 621 682 q 570 511 621 569 q 431 390 519 453 l 383 358 l 471 135 q 572 49 501 56 q 540 -8 567 13 q 472 -28 514 -28 q 378 13 413 -28 q 313 131 343 54 l 251 282 q 173 188 201 233 q 144 93 144 142 q 165 4 144 53 q 125 -18 150 -10 q 74 -26 100 -26 q 3 0 26 -26 q -21 69 -21 26 q 37 206 -21 143 q 190 333 94 268 l 222 354 l 135 574 z "},"y":{"ha":614,"x_min":36,"x_max":633,"o":"m 49 -176 q 181 26 49 -90 l 118 26 l 115 125 q 107 397 111 304 q 93 569 103 490 q 74 656 86 628 q 36 699 61 683 q 131 736 65 736 q 224 697 199 736 q 254 569 250 658 q 257 389 257 503 l 257 260 l 256 128 q 405 376 349 251 q 461 618 461 501 q 451 699 461 660 q 498 726 469 715 q 557 736 526 736 q 616 714 599 736 q 633 646 633 692 q 544 358 633 518 q 294 49 456 199 q 228 -28 247 6 q 208 -114 208 -61 q 219 -176 208 -143 q 247 -236 231 -210 q 200 -267 229 -256 q 139 -278 171 -278 q 72 -251 94 -278 q 49 -176 49 -224 z "},"ý":{"ha":614,"x_min":36,"x_max":633,"o":"m 36 0 m 49 -176 q 181 26 49 -90 l 118 26 l 115 125 q 107 397 111 304 q 93 569 103 490 q 74 656 86 628 q 36 699 61 683 q 131 736 65 736 q 224 697 199 736 q 254 569 250 658 q 257 389 257 503 l 257 260 l 256 128 q 405 376 349 251 q 461 618 461 501 q 451 699 461 660 q 498 726 469 715 q 557 736 526 736 q 616 714 599 736 q 633 646 633 692 q 544 358 633 518 q 294 49 456 199 q 228 -28 247 6 q 208 -114 208 -61 q 219 -176 208 -143 q 247 -236 231 -210 q 200 -267 229 -256 q 139 -278 171 -278 q 72 -251 94 -278 q 49 -176 49 -224 m 539 1068 q 574 1038 563 1060 q 585 990 585 1015 q 542 912 585 939 q 424 864 500 885 l 269 822 l 246 879 l 539 1068 z "},"ŷ":{"ha":614,"x_min":36,"x_max":633,"o":"m 36 0 m 49 -176 q 181 26 49 -90 l 118 26 l 115 125 q 107 397 111 304 q 93 569 103 490 q 74 656 86 628 q 36 699 61 683 q 131 736 65 736 q 224 697 199 736 q 254 569 250 658 q 257 389 257 503 l 257 260 l 256 128 q 405 376 349 251 q 461 618 461 501 q 451 699 461 660 q 498 726 469 715 q 557 736 526 736 q 616 714 599 736 q 633 646 633 692 q 544 358 633 518 q 294 49 456 199 q 228 -28 247 6 q 208 -114 208 -61 q 219 -176 208 -143 q 247 -236 231 -210 q 200 -267 229 -256 q 139 -278 171 -278 q 72 -251 94 -278 q 49 -176 49 -224 m 608 872 l 553 806 l 407 906 l 226 806 l 189 874 l 415 1035 l 425 1035 l 608 872 z "},"ÿ":{"ha":614,"x_min":36,"x_max":644,"o":"m 36 0 m 49 -176 q 181 26 49 -90 l 118 26 l 115 125 q 107 397 111 304 q 93 569 103 490 q 74 656 86 628 q 36 699 61 683 q 131 736 65 736 q 224 697 199 736 q 254 569 250 658 q 257 389 257 503 l 257 260 l 256 128 q 405 376 349 251 q 461 618 461 501 q 451 699 461 660 q 498 726 469 715 q 557 736 526 736 q 616 714 599 736 q 633 646 633 692 q 544 358 633 518 q 294 49 456 199 q 228 -28 247 6 q 208 -114 208 -61 q 219 -176 208 -143 q 247 -236 231 -210 q 200 -267 229 -256 q 139 -278 171 -278 q 72 -251 94 -278 q 49 -176 49 -224 m 543 1006 q 617 983 589 1006 q 644 919 644 961 q 615 853 644 876 q 539 831 585 831 q 465 853 493 831 q 438 917 438 875 q 467 983 438 960 q 543 1006 497 1006 m 260 1006 q 333 983 306 1006 q 361 919 361 961 q 331 853 361 876 q 256 831 301 831 q 182 853 210 831 q 154 917 154 875 q 184 983 154 960 q 260 1006 214 1006 z "},"ỳ":{"ha":614,"x_min":36,"x_max":633,"o":"m 36 0 m 49 -176 q 181 26 49 -90 l 118 26 l 115 125 q 107 397 111 304 q 93 569 103 490 q 74 656 86 628 q 36 699 61 683 q 131 736 65 736 q 224 697 199 736 q 254 569 250 658 q 257 389 257 503 l 257 260 l 256 128 q 405 376 349 251 q 461 618 461 501 q 451 699 461 660 q 498 726 469 715 q 557 736 526 736 q 616 714 599 736 q 633 646 633 692 q 544 358 633 518 q 294 49 456 199 q 228 -28 247 6 q 208 -114 208 -61 q 219 -176 208 -143 q 247 -236 231 -210 q 200 -267 229 -256 q 139 -278 171 -278 q 72 -251 94 -278 q 49 -176 49 -224 m 306 864 q 188 912 229 885 q 146 990 146 939 q 157 1038 146 1015 q 190 1068 168 1060 l 485 879 l 461 822 l 306 864 z "},"ỹ":{"ha":614,"x_min":36,"x_max":633,"o":"m 36 0 m 49 -176 q 181 26 49 -90 l 118 26 l 115 125 q 107 397 111 304 q 93 569 103 490 q 74 656 86 628 q 36 699 61 683 q 131 736 65 736 q 224 697 199 736 q 254 569 250 658 q 257 389 257 503 l 257 260 l 256 128 q 405 376 349 251 q 461 618 461 501 q 451 699 461 660 q 498 726 469 715 q 557 736 526 736 q 616 714 599 736 q 633 646 633 692 q 544 358 633 518 q 294 49 456 199 q 228 -28 247 6 q 208 -114 208 -61 q 219 -176 208 -143 q 247 -236 231 -210 q 200 -267 229 -256 q 139 -278 171 -278 q 72 -251 94 -278 q 49 -176 49 -224 m 593 1000 q 615 943 615 974 q 586 881 615 903 q 508 860 557 860 q 393 871 482 860 q 278 882 307 882 q 200 861 226 882 q 176 925 176 896 q 206 981 176 961 q 289 1000 235 1000 q 408 989 322 1000 q 524 978 494 978 q 593 1000 576 978 z "},"z":{"ha":550,"x_min":-15,"x_max":574,"o":"m 404 581 q 301 595 363 589 q 203 601 239 601 q 142 593 168 601 q 96 564 117 585 q 71 640 71 596 q 108 713 71 690 q 207 735 146 735 q 287 728 243 735 q 339 719 331 721 q 474 703 431 703 q 549 717 522 703 q 574 656 574 692 q 532 557 574 604 l 153 133 q 260 118 193 125 q 365 111 326 111 q 479 149 443 111 q 504 74 504 117 q 465 0 504 22 q 363 -22 425 -22 q 224 -6 315 -22 q 94 11 135 11 q 18 -4 46 11 q -6 27 4 4 q -15 75 -15 50 q 36 190 -15 133 l 404 581 z "},"ź":{"ha":550,"x_min":-15,"x_max":574,"o":"m 0 0 m 404 581 q 301 595 363 589 q 203 601 239 601 q 142 593 168 601 q 96 564 117 585 q 71 640 71 596 q 108 713 71 690 q 207 735 146 735 q 287 728 243 735 q 339 719 331 721 q 474 703 431 703 q 549 717 522 703 q 574 656 574 692 q 532 557 574 604 l 153 133 q 260 118 193 125 q 365 111 326 111 q 479 149 443 111 q 504 74 504 117 q 465 0 504 22 q 363 -22 425 -22 q 224 -6 315 -22 q 94 11 135 11 q 18 -4 46 11 q -6 27 4 4 q -15 75 -15 50 q 36 190 -15 133 l 404 581 m 524 1068 q 558 1038 547 1060 q 569 990 569 1015 q 527 912 569 939 q 408 864 485 885 l 254 822 l 231 879 l 524 1068 z "},"ž":{"ha":550,"x_min":-15,"x_max":604,"o":"m 0 0 m 404 581 q 301 595 363 589 q 203 601 239 601 q 142 593 168 601 q 96 564 117 585 q 71 640 71 596 q 108 713 71 690 q 207 735 146 735 q 287 728 243 735 q 339 719 331 721 q 474 703 431 703 q 549 717 522 703 q 574 656 574 692 q 532 557 574 604 l 153 133 q 260 118 193 125 q 365 111 326 111 q 479 149 443 111 q 504 74 504 117 q 465 0 504 22 q 363 -22 425 -22 q 224 -6 315 -22 q 94 11 135 11 q 18 -4 46 11 q -6 27 4 4 q -15 75 -15 50 q 36 190 -15 133 l 404 581 m 186 983 l 242 1050 l 386 964 l 567 1050 l 604 982 l 378 821 l 369 821 l 186 983 z "},"ż":{"ha":550,"x_min":-15,"x_max":574,"o":"m 0 0 m 404 581 q 301 595 363 589 q 203 601 239 601 q 142 593 168 601 q 96 564 117 585 q 71 640 71 596 q 108 713 71 690 q 207 735 146 735 q 287 728 243 735 q 339 719 331 721 q 474 703 431 703 q 549 717 522 703 q 574 656 574 692 q 532 557 574 604 l 153 133 q 260 118 193 125 q 365 111 326 111 q 479 149 443 111 q 504 74 504 117 q 465 0 504 22 q 363 -22 425 -22 q 224 -6 315 -22 q 94 11 135 11 q 18 -4 46 11 q -6 27 4 4 q -15 75 -15 50 q 36 190 -15 133 l 404 581 m 369 1006 q 443 983 415 1006 q 471 919 471 961 q 441 853 471 876 q 365 831 411 831 q 292 853 319 831 q 264 917 264 875 q 294 983 264 960 q 369 1006 324 1006 z "},"ẓ":{"ha":550,"x_min":-15,"x_max":574,"o":"m 0 0 m 404 581 q 301 595 363 589 q 203 601 239 601 q 142 593 168 601 q 96 564 117 585 q 71 640 71 596 q 108 713 71 690 q 207 735 146 735 q 287 728 243 735 q 339 719 331 721 q 474 703 431 703 q 549 717 522 703 q 574 656 574 692 q 532 557 574 604 l 153 133 q 260 118 193 125 q 365 111 326 111 q 479 149 443 111 q 504 74 504 117 q 465 0 504 22 q 363 -22 425 -22 q 224 -6 315 -22 q 94 11 135 11 q 18 -4 46 11 q -6 27 4 4 q -15 75 -15 50 q 36 190 -15 133 l 404 581 m 225 -75 q 299 -97 271 -75 q 326 -161 326 -119 q 297 -227 326 -204 q 221 -250 267 -250 q 147 -228 175 -250 q 119 -164 119 -206 q 149 -98 119 -121 q 225 -75 179 -75 z "},"ﬁ":{"ha":772,"x_min":33,"x_max":792,"o":"m 628 144 q 621 86 621 107 q 663 38 621 42 q 626 -11 654 6 q 561 -28 597 -28 q 492 -3 517 -28 q 467 65 467 21 q 493 242 467 106 l 575 646 l 315 646 l 194 0 l 33 -17 l 163 646 l 64 646 l 76 708 l 174 708 l 193 783 q 306 953 225 907 q 531 1000 386 1000 q 714 976 636 1000 q 792 886 792 953 q 757 819 792 843 q 672 796 722 796 q 629 799 650 796 q 597 811 608 803 q 618 872 618 843 q 508 939 618 939 q 398 906 439 939 q 344 803 357 874 l 328 708 l 742 708 l 628 144 z "},"ﬂ":{"ha":776,"x_min":33,"x_max":801,"o":"m 613 815 q 624 876 624 868 q 592 922 624 904 q 507 939 560 939 q 344 803 369 939 l 326 708 l 453 708 l 443 646 l 315 646 l 194 0 l 33 -17 l 163 646 l 64 646 l 76 708 l 174 708 l 193 783 q 307 953 225 907 q 531 1000 389 1000 q 700 978 628 1000 l 801 989 l 632 144 q 625 86 625 107 q 667 38 625 42 q 630 -11 658 6 q 565 -28 601 -28 q 496 -3 521 -28 q 471 65 471 21 q 497 242 471 106 l 613 815 z "},"ª":{"ha":624,"x_min":57,"x_max":579,"o":"m 500 511 q 494 471 494 489 q 525 436 494 438 q 497 402 519 415 q 446 389 474 389 q 394 405 417 389 q 369 449 372 421 q 314 404 350 419 q 238 389 278 389 q 124 439 163 389 q 86 582 86 489 q 119 750 86 668 q 215 884 151 832 q 368 936 279 936 q 468 915 414 936 l 579 928 l 500 511 m 353 856 q 239 711 272 856 q 218 563 218 619 q 282 469 218 469 q 353 511 326 469 q 390 614 379 553 l 429 828 q 392 848 413 840 q 353 856 371 856 m 496 322 q 499 292 499 300 q 480 244 499 263 q 424 225 461 225 l 60 225 q 57 254 57 244 q 76 303 57 285 q 122 322 94 322 l 496 322 z "},"º":{"ha":631,"x_min":57,"x_max":585,"o":"m 585 742 q 553 575 585 656 q 456 442 522 494 q 290 389 390 389 q 158 435 201 389 q 114 583 114 482 q 146 751 114 671 q 244 884 178 832 q 408 936 310 936 q 540 889 496 936 q 585 742 585 842 m 313 469 q 391 520 360 469 q 437 638 422 571 q 451 757 451 706 q 388 856 451 856 q 308 804 339 856 q 263 685 276 753 q 249 567 249 617 q 313 469 249 469 m 60 225 q 57 254 57 244 q 76 303 57 285 q 122 322 94 322 l 494 322 q 497 292 497 300 q 478 244 497 263 q 424 225 460 225 l 60 225 z "},"Δ":{"ha":811,"x_min":-78,"x_max":757,"o":"m 606 917 q 651 596 619 781 q 731 144 682 411 l 757 0 l -78 0 l 388 917 l 606 917 m 460 779 q 231 314 360 589 q 126 101 151 151 l 567 101 l 460 739 l 460 779 z "},"Ω":{"ha":844,"x_min":-3,"x_max":807,"o":"m 408 140 q 592 404 535 185 q 620 547 608 469 q 632 678 632 624 q 501 847 632 847 q 356 774 408 847 q 274 585 303 700 q 245 444 257 519 q 233 313 233 368 q 340 142 233 157 l 300 1 l 124 1 q 31 24 65 1 q -3 97 -3 47 q 22 163 -3 136 q 56 144 36 149 q 104 140 75 140 l 206 140 q 94 206 129 156 q 58 356 58 257 q 107 614 58 478 q 263 847 156 750 q 538 944 371 944 q 742 869 678 944 q 807 644 807 794 q 774 427 807 531 q 680 248 740 324 q 540 140 619 172 l 638 140 q 686 144 667 140 q 719 163 706 149 q 744 97 744 136 q 710 24 744 47 q 618 1 676 1 l 408 1 l 408 140 z "},"μ":{"ha":758,"x_min":-11,"x_max":725,"o":"m 725 725 l 614 144 q 607 86 607 103 q 649 38 607 42 q 612 -11 640 6 q 547 -28 583 -28 q 483 -7 508 -28 q 453 51 457 14 q 374 -8 425 11 q 268 -28 324 -28 q 192 -15 225 -28 l 150 -250 l -11 -267 l 124 429 q 153 619 153 581 q 111 671 153 667 q 148 719 119 703 q 214 736 176 736 q 283 711 258 736 q 307 635 307 686 q 296 542 307 601 q 271 422 285 483 q 240 272 250 328 q 231 174 231 215 q 319 56 231 56 q 429 120 389 56 q 488 279 469 185 l 568 708 l 725 725 z "},"π":{"ha":644,"x_min":15,"x_max":694,"o":"m 196 617 q 171 618 186 618 q 123 608 150 618 q 85 583 96 599 q 58 649 58 621 q 95 712 58 688 q 194 736 132 736 q 285 728 226 736 q 400 713 343 721 q 476 702 413 711 q 572 693 540 693 q 629 703 603 693 q 668 728 656 713 q 694 663 694 690 q 658 599 694 624 q 560 575 622 575 l 513 271 q 505 208 508 243 q 501 151 501 174 q 519 76 501 104 q 576 46 538 47 q 532 -15 564 6 q 456 -36 500 -36 q 350 79 350 -36 q 364 203 350 132 q 379 283 378 275 l 438 583 l 301 604 l 178 0 l 15 -22 l 196 617 z "},"¹":{"ha":460,"x_min":53,"x_max":390,"o":"m 292 489 l 338 489 q 378 501 369 489 q 390 453 390 488 q 373 408 390 419 q 324 396 356 396 l 115 399 q 60 389 71 399 q 55 410 57 397 q 53 436 53 422 q 118 492 53 492 l 164 492 l 225 806 q 189 790 210 796 q 151 785 168 785 q 106 807 119 785 q 88 868 92 829 q 213 896 147 876 q 336 943 279 915 l 378 929 l 292 489 z "},"²":{"ha":486,"x_min":82,"x_max":474,"o":"m 315 946 q 431 911 389 946 q 474 804 474 876 q 455 719 474 756 q 400 647 436 682 l 358 610 q 246 510 276 535 q 356 496 293 496 q 442 513 414 496 q 451 467 451 493 q 368 397 451 397 q 264 408 325 397 q 158 419 200 419 q 101 410 125 419 q 88 428 93 417 q 82 450 82 440 q 116 509 82 472 q 214 604 150 546 q 252 639 224 614 q 294 681 281 664 q 331 736 317 707 q 344 790 344 765 q 324 839 344 822 q 269 856 303 856 q 157 781 199 856 q 126 826 126 790 q 183 915 126 883 q 315 946 240 946 z "},"³":{"ha":482,"x_min":76,"x_max":463,"o":"m 203 699 q 299 731 260 706 q 338 800 338 756 q 276 856 338 856 q 208 838 242 856 q 153 792 174 821 q 126 833 126 806 q 185 915 126 883 q 317 946 244 946 q 422 917 382 946 q 463 832 463 888 q 424 739 463 776 q 331 685 386 701 q 451 569 451 675 q 422 476 451 517 q 342 413 392 435 q 236 390 293 390 q 123 419 169 390 q 76 500 76 449 q 83 526 76 517 q 101 544 89 536 q 158 497 128 513 q 229 481 189 481 q 321 563 321 481 q 289 628 321 611 q 196 644 257 644 l 203 699 z "},"⁄":{"ha":389,"x_min":-87,"x_max":475,"o":"m 10 -124 q -28 -126 1 -126 q -87 -90 -87 -126 q -79 -60 -87 -79 l 379 997 q 414 1000 396 1000 q 460 992 446 1000 q 475 965 475 985 q 463 915 475 949 l 10 -124 z "},"½":{"ha":1079,"x_min":50,"x_max":1051,"o":"m 729 997 q 765 1000 746 1000 q 810 992 796 1000 q 825 964 825 985 q 813 915 825 944 l 360 -124 q 322 -126 351 -126 q 263 -90 263 -126 q 271 -60 263 -79 l 729 997 m 289 489 l 335 489 q 375 501 367 489 q 388 453 388 488 q 370 408 388 419 q 321 396 353 396 l 113 399 q 57 389 68 399 q 52 410 54 397 q 50 436 50 422 q 115 492 50 492 l 161 492 l 222 806 q 186 790 207 796 q 149 785 165 785 q 103 807 117 785 q 85 868 89 829 q 210 896 144 876 q 333 943 276 915 l 375 929 l 289 489 m 811 207 q 922 379 922 304 q 902 428 922 413 q 849 444 882 444 q 735 369 776 444 q 704 415 704 379 q 761 503 704 472 q 893 535 818 535 q 1010 499 968 535 q 1051 393 1051 464 q 1026 296 1051 338 q 947 207 1000 254 l 901 168 q 862 133 882 150 q 824 99 842 115 q 933 85 871 85 q 1019 101 992 85 q 1029 56 1029 82 q 942 -14 1029 -14 q 833 -3 908 -14 q 735 8 761 8 q 679 -1 704 8 q 665 18 671 6 q 660 42 660 31 q 670 72 660 57 q 703 107 681 88 l 811 207 z "},"⅓":{"ha":1131,"x_min":50,"x_max":1053,"o":"m 729 997 q 765 1000 746 1000 q 810 992 796 1000 q 825 964 825 985 q 813 915 825 944 l 360 -124 q 322 -126 351 -126 q 263 -90 263 -126 q 271 -60 263 -79 l 729 997 m 289 489 l 335 489 q 375 501 367 489 q 388 453 388 488 q 370 408 388 419 q 321 396 353 396 l 113 399 q 57 389 68 399 q 52 410 54 397 q 50 436 50 422 q 115 492 50 492 l 161 492 l 222 806 q 186 790 207 796 q 149 785 165 785 q 103 807 117 785 q 85 868 89 829 q 210 896 144 876 q 333 943 276 915 l 375 929 l 289 489 m 793 294 q 889 326 850 301 q 928 396 928 351 q 867 451 928 451 q 798 434 832 451 q 743 388 764 417 q 717 429 717 401 q 776 510 717 479 q 907 542 835 542 q 1013 513 972 542 q 1053 428 1053 483 q 1015 335 1053 372 q 921 281 976 297 q 1042 165 1042 271 q 1012 72 1042 113 q 933 8 982 31 q 826 -14 883 -14 q 713 15 760 -14 q 667 96 667 44 q 673 122 667 113 q 692 140 679 132 q 749 92 718 108 q 819 76 779 76 q 911 158 911 76 q 879 224 911 207 q 786 240 847 240 l 793 294 z "},"⅔":{"ha":1186,"x_min":72,"x_max":1108,"o":"m 785 997 q 821 1000 801 1000 q 866 992 851 1000 q 881 964 881 985 q 868 915 881 944 l 415 -124 q 378 -126 407 -126 q 318 -90 318 -126 q 326 -60 318 -79 l 785 997 m 224 614 q 335 786 335 711 q 315 835 335 819 q 261 851 294 851 q 147 776 189 851 q 117 822 117 786 q 174 910 117 879 q 306 942 231 942 q 422 906 381 942 q 464 800 464 871 q 438 703 464 744 q 360 614 413 661 l 314 575 q 274 540 294 557 q 236 506 254 522 q 346 492 283 492 q 432 508 404 492 q 442 463 442 489 q 354 393 442 393 q 247 404 322 393 q 147 415 175 415 q 92 406 115 415 q 78 425 83 413 q 72 449 72 438 q 83 479 72 464 q 115 514 93 494 l 224 614 m 849 294 q 944 326 906 301 q 983 396 983 351 q 922 451 983 451 q 853 434 888 451 q 799 388 819 417 q 772 429 772 401 q 831 510 772 479 q 963 542 890 542 q 1068 513 1028 542 q 1108 428 1108 483 q 1070 335 1108 372 q 976 281 1032 297 q 1097 165 1097 271 q 1067 72 1097 113 q 988 8 1038 31 q 882 -14 939 -14 q 769 15 815 -14 q 722 96 722 44 q 728 122 722 113 q 747 140 735 132 q 804 92 774 108 q 875 76 835 76 q 967 158 967 76 q 935 224 967 207 q 842 240 903 240 l 849 294 z "},"¼":{"ha":1149,"x_min":50,"x_max":1071,"o":"m 729 997 q 765 1000 746 1000 q 810 992 796 1000 q 825 964 825 985 q 813 915 825 944 l 360 -124 q 322 -126 351 -126 q 263 -90 263 -126 q 271 -60 263 -79 l 729 997 m 289 489 l 335 489 q 375 501 367 489 q 388 453 388 488 q 370 408 388 419 q 321 396 353 396 l 113 399 q 57 389 68 399 q 52 410 54 397 q 50 436 50 422 q 115 492 50 492 l 161 492 l 222 806 q 186 790 207 796 q 149 785 165 785 q 103 807 117 785 q 85 868 89 829 q 210 896 144 876 q 333 943 276 915 l 375 929 l 289 489 m 1057 528 q 989 190 1025 396 q 1060 210 1036 194 q 1071 167 1071 192 q 1047 117 1071 135 q 969 93 1022 99 l 956 0 q 899 -17 935 -17 q 848 -3 863 -17 q 833 42 833 11 l 835 60 l 840 96 q 638 122 719 101 l 633 185 l 935 539 l 1057 528 m 731 196 q 860 189 793 189 l 871 239 q 914 421 894 363 l 731 196 z "},"¾":{"ha":1175,"x_min":61,"x_max":1097,"o":"m 756 997 q 792 1000 772 1000 q 837 992 822 1000 q 851 964 851 985 q 839 915 851 944 l 386 -124 q 349 -126 378 -126 q 289 -90 289 -126 q 297 -60 289 -79 l 756 997 m 188 699 q 283 731 244 706 q 322 800 322 756 q 261 856 322 856 q 192 838 226 856 q 138 792 158 821 q 111 833 111 806 q 170 915 111 883 q 301 946 229 946 q 407 917 367 946 q 447 832 447 888 q 409 739 447 776 q 315 685 371 701 q 436 569 436 675 q 406 476 436 517 q 327 413 376 435 q 221 390 278 390 q 108 419 154 390 q 61 500 61 449 q 67 526 61 517 q 86 544 74 536 q 143 497 113 513 q 214 481 174 481 q 306 563 306 481 q 274 628 306 611 q 181 644 242 644 l 188 699 m 1083 528 q 1015 190 1051 396 q 1086 210 1063 194 q 1097 167 1097 192 q 1073 117 1097 135 q 996 93 1049 99 l 982 0 q 925 -17 961 -17 q 874 -3 889 -17 q 860 42 860 11 l 861 60 l 867 96 q 664 122 746 101 l 660 185 l 961 539 l 1083 528 m 757 196 q 886 189 819 189 l 897 239 q 940 421 921 363 l 757 196 z "},"⅛":{"ha":1140,"x_min":50,"x_max":1071,"o":"m 729 997 q 764 1000 746 1000 q 810 992 796 1000 q 825 965 825 985 q 813 915 825 944 l 360 -124 q 322 -126 351 -126 q 263 -90 263 -126 q 271 -60 263 -79 l 729 997 m 289 489 l 335 489 q 375 501 367 489 q 388 453 388 488 q 370 408 388 419 q 321 396 353 396 l 113 399 q 57 389 68 399 q 52 410 54 397 q 50 436 50 422 q 115 492 50 492 l 161 492 l 222 806 q 186 790 207 796 q 149 785 165 785 q 103 807 117 785 q 85 868 89 829 q 210 896 144 876 q 333 943 276 915 l 375 929 l 289 489 m 1035 163 q 1006 71 1035 113 q 931 5 978 29 q 826 -19 883 -19 q 706 15 757 -19 q 654 111 654 50 q 692 198 654 163 q 796 265 729 233 q 738 324 754 299 q 722 378 722 349 q 753 460 722 424 q 831 519 783 497 q 929 540 879 540 q 1029 513 988 540 q 1071 435 1071 485 q 1053 376 1071 401 q 1013 336 1035 351 q 944 292 992 321 q 1013 233 992 260 q 1035 163 1035 206 m 901 338 q 943 372 926 350 q 960 419 960 394 q 947 454 960 442 q 910 467 933 467 q 864 451 883 467 q 844 413 844 436 q 881 353 844 381 l 901 338 m 836 219 q 785 180 801 200 q 769 128 769 160 q 788 75 769 94 q 836 56 806 56 q 890 76 869 56 q 910 129 910 97 q 900 166 910 151 q 871 194 890 181 l 836 219 z "},"*":{"ha":592,"x_min":103,"x_max":639,"o":"m 597 792 q 635 738 628 764 q 639 715 639 725 q 585 663 639 679 q 431 647 525 643 l 529 494 q 489 440 514 458 q 457 429 474 429 q 403 465 429 429 q 339 614 365 514 l 219 468 q 157 490 181 472 q 132 531 132 507 q 153 581 132 553 q 274 685 193 635 l 107 750 q 103 785 103 769 q 107 817 103 803 q 157 854 119 854 q 235 831 190 854 q 326 768 281 807 l 338 949 q 401 968 369 968 q 457 897 457 968 q 424 747 457 838 l 597 792 z "},"\\":{"ha":393,"x_min":89,"x_max":304,"o":"m 154 997 q 165 1070 157 1046 q 194 1105 172 1094 q 260 1115 215 1115 q 304 1110 296 1115 l 240 -183 q 215 -258 238 -237 q 140 -278 193 -278 q 89 -272 97 -278 l 154 997 z "},"·":{"ha":267,"x_min":17,"x_max":225,"o":"m 122 449 q 197 426 168 449 q 225 363 225 404 q 195 297 225 319 q 118 274 165 274 q 44 296 72 274 q 17 360 17 318 q 47 426 17 403 q 122 449 76 449 z "},"•":{"ha":329,"x_min":0,"x_max":271,"o":"m 271 360 q 234 278 271 308 q 135 249 197 249 q 36 278 72 249 q 0 356 0 307 q 39 438 0 407 q 140 469 78 469 q 235 440 200 469 q 271 360 271 410 z "},":":{"ha":381,"x_min":1,"x_max":324,"o":"m 1 0 m 221 733 q 295 711 267 733 q 324 647 324 689 q 294 581 324 604 q 217 558 264 558 q 143 581 171 558 q 115 644 115 603 q 145 710 115 688 q 221 733 175 733 m 107 144 q 181 122 153 144 q 210 58 210 100 q 180 -8 210 15 q 103 -31 150 -31 q 29 -8 57 -31 q 1 56 1 14 q 31 122 1 99 q 107 144 61 144 z "},",":{"ha":269,"x_min":-58,"x_max":189,"o":"m 189 44 q 159 -56 189 -7 q 83 -137 129 -106 q -7 -168 38 -168 q -58 -158 -33 -168 q 7 -56 -17 -111 q 31 57 31 0 q 18 118 31 94 q 54 131 31 125 q 99 136 78 136 q 165 113 140 136 q 189 44 189 90 z "},"…":{"ha":849,"x_min":-15,"x_max":758,"o":"m 0 0 m 656 144 q 730 122 701 144 q 758 58 758 100 q 728 -8 758 15 q 651 -31 699 -31 q 578 -8 606 -31 q 550 56 550 14 q 580 122 550 99 q 656 144 610 144 m 90 144 q 165 122 136 144 q 193 58 193 100 q 163 -8 193 15 q 86 -31 133 -31 q 13 -8 40 -31 q -15 56 -15 14 q 15 122 -15 99 q 90 144 44 144 m 375 144 q 449 122 421 144 q 478 58 478 100 q 448 -8 478 15 q 371 -31 418 -31 q 297 -8 325 -31 q 269 56 269 14 q 299 122 269 99 q 375 144 329 144 z "},"!":{"ha":346,"x_min":8,"x_max":351,"o":"m 196 931 q 267 944 232 944 q 332 921 313 944 q 351 851 351 897 q 337 747 351 807 q 292 586 322 686 q 242 409 260 483 q 222 276 224 335 q 192 257 211 264 q 154 250 174 250 q 101 270 119 250 q 82 324 82 290 q 89 378 82 347 l 196 931 m 114 144 q 188 122 160 144 q 217 58 217 100 q 187 -8 217 15 q 110 -31 157 -31 q 36 -8 64 -31 q 8 56 8 14 q 38 122 8 99 q 114 144 68 144 z "},"¡":{"ha":332,"x_min":-6,"x_max":332,"o":"m 229 736 q 303 714 275 736 q 332 650 332 692 q 302 584 332 607 q 225 561 272 561 q 151 583 179 561 q 124 647 124 606 q 153 713 124 690 q 229 736 183 736 m 150 -224 q 78 -237 111 -237 q 14 -214 33 -237 q -6 -144 -6 -190 q 9 -40 -6 -100 q 54 121 24 21 q 104 298 86 224 q 124 431 122 372 q 153 450 135 443 q 192 457 172 457 q 244 437 226 457 q 263 383 263 417 q 257 329 263 354 l 150 -224 z "},"#":{"ha":769,"x_min":-7,"x_max":781,"o":"m 732 358 q 740 308 740 332 q 717 245 740 268 q 653 222 694 222 l 561 222 l 538 72 q 507 19 532 39 q 447 0 482 0 q 389 15 419 0 l 425 222 l 274 222 l 250 72 q 219 19 244 39 q 160 0 194 0 q 101 15 132 0 l 138 222 l 0 222 q -7 271 -7 253 q 16 335 -7 311 q 79 358 39 358 l 161 358 l 190 539 l 42 539 q 33 589 33 567 q 56 652 33 629 q 119 675 79 675 l 214 675 l 240 850 q 266 902 246 883 q 318 921 286 921 q 379 907 346 921 l 343 675 l 500 675 l 528 850 q 553 902 533 883 q 606 921 574 921 q 667 907 635 921 l 631 675 l 775 675 q 781 625 781 644 q 758 562 781 585 q 696 539 736 539 l 610 539 l 582 358 l 732 358 m 449 358 l 478 539 l 322 539 l 296 358 l 449 358 z "},".":{"ha":267,"x_min":-31,"x_max":178,"o":"m 75 144 q 149 122 121 144 q 178 58 178 100 q 148 -8 178 15 q 71 -31 118 -31 q -3 -8 25 -31 q -31 56 -31 14 q -1 122 -31 99 q 75 144 29 144 z "},"?":{"ha":568,"x_min":40,"x_max":626,"o":"m 626 774 q 595 668 626 717 q 519 583 564 619 q 400 494 475 546 q 290 413 331 446 q 221 338 249 379 q 193 249 193 297 q 134 276 154 249 q 114 349 114 303 q 137 426 114 390 q 192 491 160 463 q 283 563 225 519 q 373 634 340 606 q 428 699 406 663 q 451 776 451 735 q 426 840 451 819 q 356 861 400 861 q 261 829 299 861 q 224 740 224 797 q 236 679 224 706 q 167 671 204 671 q 80 695 111 671 q 49 768 49 719 q 151 903 49 863 q 374 944 253 944 q 559 901 492 944 q 626 774 626 858 m 146 144 q 220 122 192 144 q 249 58 249 100 q 219 -8 249 15 q 142 -31 189 -31 q 68 -8 96 -31 q 40 56 40 14 q 70 122 40 99 q 146 144 100 144 z "},"¿":{"ha":568,"x_min":-58,"x_max":519,"o":"m 410 736 q 484 714 456 736 q 513 650 513 692 q 483 584 513 607 q 406 561 453 561 q 332 583 360 561 q 304 647 304 606 q 334 713 304 690 q 410 736 364 736 m -58 -65 q -27 40 -58 -8 q 49 126 4 89 q 168 214 93 163 q 278 296 238 263 q 347 370 319 329 q 375 460 375 411 q 434 433 414 460 q 454 360 454 406 q 412 254 454 300 q 286 147 369 208 q 159 38 201 85 q 117 -68 117 -8 q 142 -132 117 -111 q 213 -153 168 -153 q 307 -121 269 -153 q 344 -32 344 -89 q 332 29 344 3 q 401 38 364 38 q 488 13 457 38 q 519 -60 519 -11 q 417 -195 519 -154 q 194 -236 315 -236 q 9 -193 76 -236 q -58 -65 -58 -150 z "},"\"":{"ha":549,"x_min":157,"x_max":583,"o":"m 157 682 q 184 828 174 749 q 196 978 194 908 q 257 986 226 986 q 347 900 347 986 q 322 782 347 850 q 265 682 296 714 l 157 682 m 394 682 q 422 828 411 749 q 433 978 432 908 q 494 986 464 986 q 583 900 583 986 q 558 782 583 850 q 503 682 533 714 l 394 682 z "},"'":{"ha":313,"x_min":157,"x_max":347,"o":"m 157 682 q 184 828 174 749 q 196 978 194 908 q 258 986 229 986 q 347 900 347 986 q 322 782 347 850 q 267 682 297 714 l 157 682 z "},";":{"ha":360,"x_min":-58,"x_max":324,"o":"m 0 0 m 221 733 q 295 711 267 733 q 324 647 324 689 q 294 581 324 604 q 217 558 264 558 q 143 581 171 558 q 115 644 115 603 q 145 710 115 688 q 221 733 175 733 m 189 44 q 159 -56 189 -7 q 83 -137 129 -106 q -7 -168 38 -168 q -58 -158 -33 -168 q 7 -56 -17 -111 q 31 57 31 0 q 18 118 31 94 q 54 131 31 125 q 99 136 78 136 q 165 113 140 136 q 189 44 189 90 z "},"/":{"ha":440,"x_min":-81,"x_max":522,"o":"m 46 -272 q -7 -278 29 -278 q -81 -229 -81 -278 q -74 -195 -81 -214 q -67 -172 -68 -176 l 397 1108 q 443 1113 415 1113 q 503 1102 485 1113 q 522 1065 522 1092 q 507 999 522 1044 l 46 -272 z "},"_":{"ha":686,"x_min":-58,"x_max":635,"o":"m 628 -64 q 635 -100 635 -85 q 609 -162 635 -137 q 535 -186 583 -186 l -53 -186 q -58 -153 -58 -169 q -33 -89 -58 -114 q 31 -64 -8 -64 l 628 -64 z "},"{":{"ha":518,"x_min":83,"x_max":594,"o":"m 483 1111 q 594 1101 536 1111 l 583 1039 l 551 1039 q 473 1002 497 1039 q 435 886 449 965 l 385 600 q 243 432 358 447 q 314 404 294 428 q 333 342 333 381 q 324 264 333 310 l 265 -26 q 256 -119 256 -81 q 269 -183 256 -161 q 319 -204 283 -204 l 353 -204 l 338 -268 q 225 -278 269 -278 q 119 -253 154 -278 q 83 -169 83 -228 q 94 -75 83 -133 l 156 229 q 165 304 165 278 q 145 367 165 344 q 83 389 125 389 l 99 467 q 183 508 150 467 q 229 626 217 550 l 282 929 q 315 1036 294 997 q 376 1093 336 1075 q 483 1111 415 1111 z "},"}":{"ha":561,"x_min":-37,"x_max":478,"o":"m 6 -206 q 83 -169 58 -206 q 121 -53 107 -132 l 176 257 q 318 425 203 410 q 247 453 267 429 q 228 515 228 476 q 236 593 228 540 l 290 860 q 300 953 300 914 q 286 1016 300 994 q 238 1038 272 1038 l 204 1038 l 219 1101 q 331 1111 288 1111 q 438 1086 403 1111 q 474 1003 474 1061 q 466 931 474 975 q 439 792 458 886 l 406 628 q 396 553 396 579 q 416 490 396 513 q 478 468 436 468 l 463 390 q 378 349 411 390 q 332 231 344 307 l 275 -96 q 242 -203 263 -164 q 181 -260 221 -242 q 72 -278 140 -278 q -37 -268 21 -278 l -26 -206 l 6 -206 z "},"[":{"ha":525,"x_min":24,"x_max":661,"o":"m 661 1111 q 622 1038 653 1056 q 528 1019 592 1019 l 431 1019 l 206 -185 l 275 -185 q 365 -201 338 -185 q 392 -257 392 -218 q 390 -278 392 -272 l 24 -278 l 285 1111 l 661 1111 z "},"]":{"ha":525,"x_min":-111,"x_max":526,"o":"m 343 1018 l 271 1018 q 181 1035 208 1018 q 154 1090 154 1051 q 156 1111 154 1106 l 526 1111 l 265 -278 l -111 -278 q -72 -204 -103 -222 q 22 -186 -42 -186 l 118 -186 l 343 1018 z "},"(":{"ha":524,"x_min":114,"x_max":690,"o":"m 690 1083 q 388 721 494 958 q 282 183 282 483 q 312 -69 282 33 q 410 -250 342 -172 q 360 -278 401 -278 q 235 -208 292 -278 q 147 -21 179 -137 q 114 232 114 96 q 189 644 114 439 q 382 981 264 850 q 621 1111 500 1111 q 690 1083 671 1111 z "},")":{"ha":565,"x_min":-125,"x_max":451,"o":"m 156 1083 q 206 1111 164 1111 q 330 1041 274 1111 q 419 854 386 971 q 451 601 451 738 q 376 189 451 394 q 183 -147 301 -17 q -56 -278 65 -278 q -125 -250 -106 -278 q 101 -24 7 -167 q 244 291 196 119 q 292 631 292 463 q 257 889 292 771 q 156 1083 222 1007 z "},"—":{"ha":1228,"x_min":19,"x_max":1210,"o":"m 1203 396 q 1210 361 1210 375 q 1181 293 1210 313 q 1096 274 1151 274 l 25 274 q 19 307 19 290 q 132 396 19 396 l 1203 396 z "},"–":{"ha":635,"x_min":19,"x_max":615,"o":"m 608 396 q 615 354 615 372 q 588 297 614 319 q 515 274 563 274 l 25 274 q 19 307 19 290 q 44 371 19 346 q 108 396 69 396 l 608 396 z "},"-":{"ha":461,"x_min":11,"x_max":450,"o":"m 364 399 q 405 401 381 399 q 439 410 429 404 q 450 347 450 383 q 430 292 450 313 q 375 271 410 271 l 97 271 q 56 268 81 271 q 22 260 32 265 q 14 290 17 271 q 11 322 11 308 q 31 378 11 357 q 86 399 51 399 l 364 399 z "},"­":{"ha":461,"x_min":11,"x_max":450,"o":"m 364 399 q 405 401 381 399 q 439 410 429 404 q 450 347 450 383 q 430 292 450 313 q 375 271 410 271 l 97 271 q 56 268 81 271 q 22 260 32 265 q 14 290 17 271 q 11 322 11 308 q 31 378 11 357 q 86 399 51 399 l 364 399 z "},"«":{"ha":664,"x_min":42,"x_max":669,"o":"m 258 707 l 393 707 l 226 440 l 294 175 l 163 175 l 42 440 l 258 707 m 533 707 l 669 707 l 503 440 l 571 175 l 438 175 l 317 440 l 533 707 z "},"»":{"ha":664,"x_min":-6,"x_max":622,"o":"m 346 442 l 129 175 l -6 175 l 161 442 l 93 707 l 225 707 l 346 442 m 622 442 l 406 175 l 269 175 l 436 442 l 368 707 l 501 707 l 622 442 z "},"‹":{"ha":351,"x_min":4,"x_max":357,"o":"m 221 707 l 357 707 l 190 440 l 258 175 l 125 175 l 4 440 l 221 707 z "},"›":{"ha":351,"x_min":-6,"x_max":346,"o":"m 346 442 l 129 175 l -6 175 l 161 442 l 93 707 l 225 707 l 346 442 z "},"„":{"ha":582,"x_min":-58,"x_max":453,"o":"m 190 44 q 160 -56 190 -7 q 84 -137 131 -106 q -7 -168 38 -168 q -58 -158 -33 -168 q 7 -56 -17 -111 q 31 57 31 0 q 18 118 31 94 q 54 131 31 125 q 100 136 78 136 q 166 113 142 136 q 190 44 190 90 m 453 44 q 423 -56 453 -7 q 347 -137 393 -106 q 257 -168 301 -168 q 206 -158 231 -168 q 271 -56 247 -111 q 294 57 294 0 q 282 118 294 94 q 318 131 294 125 q 363 136 342 136 q 428 113 404 136 q 453 44 453 90 z "},"“":{"ha":600,"x_min":146,"x_max":658,"o":"m 146 774 q 176 874 146 825 q 252 955 206 924 q 343 986 299 986 q 394 976 369 986 q 329 874 353 929 q 306 761 306 818 q 318 700 306 724 q 282 688 306 693 q 238 682 258 682 q 171 705 196 682 q 146 774 146 728 m 410 774 q 440 874 410 825 q 516 955 469 924 q 607 986 563 986 q 658 976 633 986 q 593 875 617 931 q 569 761 569 819 q 582 700 569 724 q 545 688 569 693 q 500 682 521 682 q 434 705 458 682 q 410 774 410 728 z "},"”":{"ha":563,"x_min":86,"x_max":597,"o":"m 163 968 q 199 981 175 975 q 243 986 222 986 q 309 963 285 986 q 333 894 333 940 q 303 794 333 843 q 228 713 274 744 q 138 682 182 682 q 86 692 111 682 q 151 794 128 739 q 175 907 175 850 q 163 968 175 944 m 425 968 q 463 981 439 975 q 507 986 486 986 q 573 963 549 986 q 597 894 597 940 q 567 794 597 843 q 491 713 538 744 q 400 682 444 682 q 349 692 374 682 q 414 793 390 738 q 438 907 438 849 q 425 968 438 944 z "},"‘":{"ha":308,"x_min":119,"x_max":368,"o":"m 368 976 q 302 875 326 931 q 278 761 278 819 q 290 700 278 724 q 254 688 278 693 q 210 682 231 682 q 144 705 168 682 q 119 774 119 728 q 149 874 119 825 q 226 955 179 924 q 317 986 272 986 q 368 976 343 986 z "},"’":{"ha":300,"x_min":86,"x_max":335,"o":"m 163 968 q 199 981 175 975 q 243 986 222 986 q 310 963 285 986 q 335 894 335 940 q 305 794 335 843 q 228 713 275 744 q 138 682 182 682 q 86 692 111 682 q 151 794 128 739 q 175 907 175 850 q 163 968 175 944 z "},"‚":{"ha":292,"x_min":-58,"x_max":190,"o":"m 18 118 q 54 131 31 125 q 99 136 78 136 q 165 113 140 136 q 190 44 190 90 q 160 -56 190 -7 q 84 -137 131 -106 q -7 -168 38 -168 q -58 -158 -33 -168 q 7 -56 -17 -111 q 31 57 31 0 q 18 118 31 94 z "}," ":{"ha":1111,"x_min":0,"x_max":0,"o":""}," ":{"ha":556,"x_min":0,"x_max":0,"o":""}," ":{"ha":278,"x_min":0,"x_max":0,"o":""}," ":{"ha":225,"x_min":0,"x_max":0,"o":""}," ":{"ha":371,"x_min":0,"x_max":0,"o":""},"¢":{"ha":769,"x_min":118,"x_max":704,"o":"m 568 821 q 668 772 632 811 q 704 678 704 733 q 671 590 704 622 q 589 558 638 558 q 529 578 547 558 q 543 626 538 599 q 549 674 549 653 q 532 724 549 706 q 483 743 515 743 q 374 676 421 743 q 302 513 326 608 q 278 342 278 418 q 307 222 278 267 q 403 176 336 176 q 508 213 464 176 q 572 310 551 249 q 621 239 621 296 q 564 128 621 178 q 424 65 507 79 l 415 22 q 388 -49 406 -31 q 331 -67 371 -67 q 281 -61 297 -67 l 306 65 q 162 148 206 82 q 118 332 118 214 q 157 557 118 450 q 272 735 196 664 q 454 821 349 807 l 463 865 q 490 935 472 917 q 543 954 507 954 q 593 949 563 954 l 568 821 z "},"¤":{"ha":769,"x_min":49,"x_max":732,"o":"m 624 493 q 592 358 624 418 l 731 238 l 653 146 l 515 276 q 368 236 454 236 q 257 257 303 236 l 133 136 l 49 222 l 178 338 q 161 431 161 378 q 204 585 161 521 l 74 706 l 146 803 l 285 663 q 414 696 344 696 q 517 676 471 696 l 647 804 l 732 718 l 600 600 q 624 493 624 556 m 382 326 q 486 367 450 326 q 522 472 522 407 q 489 569 522 535 q 400 604 456 604 q 300 561 338 604 q 263 450 263 518 q 294 357 263 388 q 382 326 325 326 z "},"$":{"ha":769,"x_min":42,"x_max":699,"o":"m 572 628 q 504 646 533 628 q 519 696 514 667 q 525 746 525 725 q 500 816 525 790 q 429 842 475 842 q 338 805 374 842 q 303 713 303 768 q 324 634 303 669 q 376 572 346 599 q 460 506 407 544 q 554 430 518 464 q 616 349 590 396 q 642 243 642 303 q 600 107 642 167 q 488 13 558 47 q 335 -29 418 -22 l 326 -74 q 299 -144 317 -126 q 242 -162 282 -162 q 192 -157 208 -162 l 218 -22 q 91 35 140 -8 q 42 147 42 79 q 78 238 42 206 q 165 269 114 269 q 235 251 207 269 q 220 201 226 231 q 214 153 214 172 q 246 83 214 107 q 328 58 278 58 q 438 98 392 58 q 483 200 483 138 q 463 274 483 240 q 414 332 442 307 q 331 399 386 357 q 233 478 269 444 q 172 558 197 511 q 146 667 146 606 q 217 838 146 769 q 403 922 289 906 l 413 971 q 440 1041 422 1022 q 493 1060 457 1060 q 543 1054 513 1060 l 518 926 q 651 879 603 918 q 699 767 699 840 q 660 664 699 700 q 572 628 622 628 z "},"€":{"ha":769,"x_min":-15,"x_max":804,"o":"m 681 619 q 613 640 632 619 q 628 691 622 663 q 633 740 633 719 q 609 801 633 782 q 538 821 585 821 q 405 751 461 821 q 315 571 349 682 l 599 571 q 606 539 606 557 q 515 483 606 483 l 293 483 q 279 385 283 439 l 563 385 q 569 353 569 371 q 537 306 569 315 q 428 297 504 297 l 275 297 q 312 155 278 207 q 426 103 346 103 q 549 144 497 103 q 642 258 600 186 q 676 229 665 246 q 686 185 686 213 q 642 75 686 124 q 528 -1 599 26 q 378 -28 457 -28 q 173 56 244 -28 q 100 297 101 139 l -10 297 q -15 328 -15 310 q 6 370 -15 356 q 65 385 28 385 l 104 385 q 122 483 111 438 l 26 483 q 21 514 21 496 q 42 556 21 542 q 101 571 64 571 l 147 571 q 312 820 203 724 q 574 917 421 917 q 742 876 681 917 q 804 753 804 835 q 769 654 804 689 q 681 619 733 619 z "}}}
